<svg width="1849" height="288" viewBox="0 0 1849 288" fill="none" xmlns="http://www.w3.org/2000/svg">
<g opacity="0.12" clip-path="url(#clip0_8619_798)">
<path d="M766.302 83.0276H750.625V126.524H766.302V83.0276Z" fill="white"/>
<path d="M780.07 96.6593L736.562 97.1769L736.749 112.847L780.256 112.329L780.07 96.6593Z" fill="white"/>
<path d="M495.672 10H483.971V42.5163H495.672V10Z" fill="#DBE9A1"/>
<path d="M506.14 31.9048L506.001 20.2092L473.477 20.5962L473.616 32.2917L506.14 31.9048Z" fill="#DBE9A1"/>
<path d="M1370.43 208.524L1370.2 189.04L1352.96 189.236V172H1333.44V189.464L1316 189.659L1316.23 209.175L1333.44 208.98V226.183H1352.96V208.719L1370.43 208.524Z" stroke="white" stroke-miterlimit="10"/>
<path d="M381.021 76.1704H365.148V120.253H381.021V76.1704Z" fill="#0D6DFD"/>
<path d="M395.265 105.849L395.076 89.9831L350.983 90.5077L351.171 106.373L395.265 105.849Z" fill="#0D6DFD"/>
<path d="M82.1452 185.759H70.4443V218.276H82.1452V185.759Z" fill="#0D6DFD"/>
<path d="M92.6637 207.671L92.5244 195.975L60.0001 196.362L60.1393 208.058L92.6637 207.671Z" fill="#0D6DFD"/>
<path d="M122.816 28.5238L122.588 9.00752L105.346 9.203V-8H85.8555V9.46366L68.3857 9.65914L68.6139 29.1428L85.8555 28.9474V46.1829H105.346V28.7193L122.816 28.5238Z" stroke="white" stroke-miterlimit="10"/>
</g>
<g opacity="0.08">
<path d="M1656.8 167.188C1656.8 183.982 1643.18 197.596 1626.38 197.596C1643.18 197.596 1656.8 211.21 1656.8 228.004C1656.8 211.21 1670.42 197.596 1687.22 197.596C1670.42 197.596 1656.8 183.982 1656.8 167.188Z" fill="#F2F2F2"/>
<path d="M1341.79 412.656C1341.79 426.884 1330.23 438.433 1316 438.433C1330.23 438.433 1341.79 449.983 1341.79 464.21C1341.79 449.983 1353.35 438.433 1367.58 438.433C1353.32 438.433 1341.79 426.912 1341.79 412.656Z" fill="#F2F2F2"/>
<path d="M1791 438.712C1791 446.523 1784.66 452.856 1776.85 452.856C1784.66 452.856 1791 459.189 1791 467C1791 459.189 1797.34 452.856 1805.15 452.856C1797.31 452.856 1791 446.523 1791 438.712Z" fill="#F2F2F2"/>
<path d="M1601.28 0C1601.28 7.81123 1594.95 14.1439 1587.13 14.1439C1594.95 14.1439 1601.28 20.4766 1601.28 28.2878C1601.28 20.4766 1607.62 14.1439 1615.44 14.1439C1607.62 14.1439 1601.28 7.81123 1601.28 0Z" fill="#F2F2F2"/>
<path d="M1834.85 64.9448C1834.85 72.756 1828.51 79.0887 1820.7 79.0887C1828.51 79.0887 1834.85 85.4214 1834.85 93.2326C1834.85 85.4214 1841.18 79.0887 1849 79.0887C1841.18 79.0608 1834.85 72.756 1834.85 64.9448Z" fill="#F2F2F2"/>
</g>
<defs>
<clipPath id="clip0_8619_798">
<rect width="1316" height="270" fill="white" transform="translate(0 10)"/>
</clipPath>
</defs>
</svg>
