<svg width="638" height="404" viewBox="0 0 638 404" fill="none" xmlns="http://www.w3.org/2000/svg">
<path opacity="0.04" d="M-115 377.607C-115 377.607 -96.61 362.749 -73.4108 365.862C-50.2115 368.974 -41.1572 377.041 -37.3381 370.814C-33.5189 364.588 -28.7096 342.514 -27.4366 349.73C-26.1636 356.946 -25.5978 368.974 -19.9398 372.795C-14.2818 376.615 19.952 372.794 26.6002 377.605C33.2483 382.416 38.2006 388.218 57.2978 387.368C76.395 386.517 98.4627 378.454 95.3508 375.764C92.2389 373.076 48.5279 373.217 58.9952 370.812C69.4625 368.407 93.5119 373.783 99.0285 370.671C104.545 367.558 107.374 354.115 102.706 353.973C98.0383 353.832 55.1761 351.532 63.3801 348.295C71.5842 345.058 105.535 353.973 108.223 352.275C110.91 350.578 111.617 345.343 112.749 346.333C113.881 347.323 133.968 361.615 127.744 362.04C121.521 362.464 109.496 358.078 110.062 356.663C110.627 355.248 115.578 343.786 111.052 341.098C106.525 338.41 73.0344 322.95 76.5349 328.681C80.0354 334.412 102.846 341.841 105.286 341.098C107.727 340.355 107.302 334.731 105.816 333.139C104.331 331.547 89.6897 316.902 81.3084 317.113C72.9272 317.326 71.8655 321.464 62.6356 317.751C53.4056 314.038 20.409 293.236 19.136 294.085C17.863 294.934 15.7412 298.329 15.8469 298.648C15.9526 298.967 54.4657 317.751 51.3538 321.146C48.2419 324.542 9.48168 326.098 -1.55292 338.41C-12.5875 350.721 -17.9626 367.275 -15.2751 368.69C-12.5875 370.105 9.90448 372.793 10.6117 370.388C11.319 367.982 2.26621 350.318 18.6743 340.754C35.084 331.192 58.4947 328.149 70.1666 302.042C81.8385 275.935 42.5824 182.122 37.4887 189.338C32.3965 196.553 23.2722 232.636 11.1775 257.681C-0.917173 282.727 -15.3466 306.287 -20.2274 321.781C-25.1081 337.274 -29.563 347.675 -26.1682 343.749C-22.7734 339.823 -13.5435 317.96 -6.75236 315.625C0.0372155 313.29 32.8208 317.96 25.0769 313.714C17.3314 309.47 -1.23427 307.24 -0.385575 300.237C0.463121 293.233 16.2713 266.171 26.8815 234.97C37.4918 203.769 35.0514 184.667 41.9467 181.483C48.8435 178.298 70.0624 177.874 93.4031 164.821C116.744 151.768 126.292 138.289 127.035 142.853C127.778 147.416 126.753 167.191 142.879 194.218C159.006 221.244 182.205 257.044 191.117 289.943C200.028 322.841 208.492 370.596 205.095 367.625C201.701 364.653 191.752 299.307 169.26 264.697C146.768 230.086 122.26 220.854 122.896 219.05C123.533 217.247 125.867 209.712 124.169 208.65C122.472 207.588 110.696 206.209 111.226 207.588C111.756 208.967 115.469 218.518 113.878 220.748C112.286 222.976 102.843 224.993 100.191 238.153C97.5394 251.313 102.632 268.718 105.072 278.905C107.512 289.094 111.013 304.482 115.682 315.624C120.35 326.767 125.089 338.335 127.53 339.714C129.97 341.093 132.835 340.952 132.445 340.316C132.055 339.68 124.488 332.074 117.485 309.468C110.483 286.864 105.391 265.32 104.542 251.842C103.693 238.364 107.725 228.247 116.071 226.478C124.416 224.708 133.188 231.218 137.148 237.868C141.109 244.518 143.904 251.204 145.494 271.58C147.086 291.956 147.297 312.651 146.873 323.157C146.448 333.663 144.574 338.403 139.693 340.173C134.812 341.942 128.2 340.986 128.04 341.57C127.881 342.154 127.987 344.595 127.191 344.966C126.395 345.338 119.553 345.338 119.021 343.851C118.489 342.365 118.65 338.12 120.347 337.802C122.044 337.483 126.288 339.234 126.395 340.401C126.502 341.569 126.129 343.691 126.448 343.957C126.767 344.223 130.056 345.708 137.27 344.487C144.483 343.267 148.197 337.536 148.357 338.013C148.516 338.49 148.091 341.303 149.843 341.303C151.593 341.303 156.155 339.605 156.103 338.703C156.05 337.802 155.784 334.989 155.201 334.936C154.618 334.883 148.836 336.953 148.941 336.209C149.047 335.466 149.524 336.315 150.373 311.695C151.222 287.074 147.827 253.219 146.024 245.897C144.221 238.574 135.945 229.713 129.897 226.37C123.849 223.027 120.296 222.39 119.766 220.375C119.236 218.358 119.766 209.392 118.174 208.967C116.582 208.543 93.9316 209.497 94.9917 202.493C96.0534 195.488 98.3865 180.949 104.01 169.594C109.634 158.239 132.656 140.516 133.611 142.427C134.565 144.338 145.988 159.407 155.891 170.302C165.793 181.198 178.702 190.076 177.747 191.987C176.793 193.898 171.807 196.232 172.124 199.84C172.441 203.449 172.337 216.821 174.564 216.396C176.791 215.972 185.28 214.593 185.704 215.547C186.129 216.502 193.095 230.439 194.651 242.75C196.207 255.062 194.368 259.589 197.339 272.323C200.309 285.059 202.467 296.095 201.937 300.871C201.407 305.646 200.558 310.317 199.496 307.77C198.435 305.223 197.693 295.353 188.037 272.855C178.382 250.357 172.371 242.963 172.512 237.727C172.654 232.49 172.654 219.12 173.715 218.837C174.777 218.554 183.475 219.262 183.83 218.341C184.184 217.421 191.185 197.399 188.922 196.409C186.659 195.418 179.02 193.721 176.827 196.339C175.023 198.492 163.403 208.883 159.342 212.5C158.614 213.148 157.494 212.969 157.01 212.122C152.753 204.673 135.274 173.643 133.505 163.122C131.489 151.129 138.173 138.712 138.597 128.419C139.021 118.125 139.127 114.199 135.097 106.77C131.064 99.3411 123.108 81.8306 131.913 72.9168C140.719 64.003 152.389 74.6147 151.222 80.876C150.054 87.1372 148.994 88.7294 149.736 94.8849C150.479 101.04 153.025 112.077 147.933 110.486C142.841 108.894 132.336 92.0209 137.322 85.7597C142.309 79.4984 157.906 105.181 160.133 99.0254C162.361 92.8699 160.027 82.3639 166.923 78.8609C173.819 75.3594 189.309 77.799 190.582 68.4607C191.855 59.1224 189.52 49.3581 193.552 43.7343C197.585 38.1089 238.961 48.9352 243.523 37.1543C248.085 25.3749 226.76 -1.33391 177.956 2.34481C129.153 6.02353 124.059 42.5308 124.2 54.1345C124.342 65.7382 125.19 75.0765 127.454 72.6711C129.717 70.2658 140.291 28.0274 152.386 28.5592C164.481 29.0894 202.145 40.6573 192.808 32.9096C183.472 25.1619 149.308 13.2768 167.027 12.3206C184.745 11.3659 207.833 6.69521 219.578 18.6876C231.321 30.68 241.226 45.3249 244.124 66.4441C247.023 87.5633 238.748 96.1583 239.385 102.951C240.022 109.743 244.477 117.385 240.764 124.601C237.05 131.817 233.55 132.666 228.456 145.826C223.364 158.986 224.637 175.647 212.011 176.921C199.386 178.194 183.967 173.702 172.013 165.636C160.06 157.571 150.864 149.151 155.958 150.708C161.05 152.264 200.165 170.518 199.033 172.712C197.902 174.906 186.231 187.57 188.353 191.531C190.475 195.493 200.731 220.61 204.197 215.162C207.663 209.713 211.977 177.805 212.118 179.999C212.26 182.193 208.405 261.397 206.07 282.092C203.735 302.787 199.386 316.583 201.296 315.521C203.207 314.459 220.252 282.941 227.89 269.074C235.529 255.206 238.146 240.633 237.298 235.609C236.449 230.585 232.064 216.931 233.407 215.516C234.752 214.101 238.782 211.766 239.136 213.039C239.491 214.313 248.189 267.729 246.846 268.012C245.503 268.295 236.519 265.959 233.761 273.035C231.002 280.11 237.793 289.591 246.563 291.5C255.333 293.411 258.022 286.973 257.315 281.242C256.608 275.511 249.287 269.745 243.806 270.24C238.324 270.736 237.122 277.88 240.588 281.878C244.055 285.875 249.995 284.637 251.233 282.691C252.47 280.744 252.364 277.597 250.631 275.616C248.898 273.636 243.381 273.494 243.381 272.822C243.381 272.151 240.977 253.65 239.067 240.49C237.156 227.33 235.6 217.425 236.06 216.222C236.52 215.019 256.891 207.095 255.052 202.992C253.213 198.889 219.121 166.415 224.637 166.307C230.154 166.202 283.202 175.329 290.204 188.487C297.207 201.647 301.026 217.352 317.789 236.879C334.551 256.406 351.951 262.562 353.013 269.778C354.074 276.994 368.396 325.388 357.256 312.971C346.116 300.554 352.588 269.354 357.68 247.28C362.773 225.206 369.351 204.405 371.048 206.739C372.745 209.074 379.535 215.724 388.024 218.13C396.511 220.535 408.252 217.139 408.394 214.31C408.535 211.48 407.439 209.605 409.773 198.037C412.107 186.469 414.865 185.726 414.972 171.93C415.078 158.134 414.442 153.995 416.882 149.537C419.323 145.079 425.901 122.9 425.369 116.533C424.839 110.166 419.923 109.458 418.155 112.147C416.387 114.835 416.458 119.646 413.346 127.074C410.234 134.503 406.768 139.952 406.981 138.182C407.194 136.413 409.527 128.772 411.72 113.986C413.914 99.1996 414.266 93.9629 411.862 92.9725C409.457 91.9821 405.284 92.4765 404.576 95.5908C403.869 98.7036 403.09 106.063 402.03 111.085C400.969 116.108 397.787 133.655 397.221 131.106C396.655 128.559 396.725 115.046 398.565 105.92C400.404 96.7927 401.749 88.5863 399.131 87.2414C396.514 85.8965 392.412 85.8265 390.148 90.7786C387.885 95.7308 386.258 109.527 385.268 118.442C384.278 127.356 383.995 136.413 382.933 134.432C381.871 132.451 380.457 118.018 380.387 110.236C380.317 102.454 381.801 98.7036 379.397 96.3682C376.992 94.0329 371.828 95.2363 369.848 99.3395C367.868 103.443 368.079 121.626 368.398 130.859C368.717 140.091 368.151 168.675 364.473 166.906C360.795 165.137 356.728 151.695 350.221 151.271C343.714 150.846 344.421 153.995 344.774 156.472C345.129 158.948 347.603 166.889 350.681 172.62C353.757 178.351 358.036 189.051 362.21 192.66C366.383 196.269 367.939 196.48 369.92 199.806C371.9 203.132 372.89 205.537 377.205 208.578C381.52 211.621 386.682 215.158 396.514 214.097C406.345 213.035 413.914 206.315 415.398 214.168C416.884 222.022 411.79 337.061 388.449 341.093C365.109 345.126 295.934 320.08 293.388 303.101C290.842 286.121 294.025 247.067 297.631 256.618C301.239 266.169 284.263 366.138 279.383 368.474C274.502 370.809 142.59 367.836 138.064 374.063C133.537 380.289 128.728 411.031 119.497 414.851C110.267 418.671 -70.5196 417.504 -67.3378 410.501C-64.1544 403.496 -27.6589 380.998 -20.232 382.06C-12.8051 383.122 32.3918 397.554 63.3708 392.318C94.3498 387.083 104.111 374.631 111.608 373.216C119.105 371.801 131.554 372.367 131.13 374.914C130.705 377.461 117.69 404.345 120.661 405.052C123.631 405.76 248.823 413.896 243.731 405.831C238.639 397.767 207.234 381.422 178.164 379.088C149.094 376.755 132.967 392.884 140.607 396.705C148.245 400.525 319.907 417.505 314.179 409.652C308.45 401.798 281.077 372.084 283.412 370.811C285.746 369.537 492.631 362.321 493.055 361.048C493.48 359.774 527.006 225.42 530.188 223.722C533.37 222.025 627.159 228.392 626.523 232C625.886 235.609 590.663 376.543 587.904 378.666C585.145 380.788 484.072 397.838 485.063 394.442C485.868 391.684 489.566 378.653 490.926 373.86C491.188 372.931 490.546 372.009 489.584 371.928C481.714 371.266 450.269 367.718 448.422 367.964C446.301 368.247 398.346 373.199 399.902 375.038C401.458 376.877 431.944 381.954 435.552 381.317C439.16 380.679 464.442 377.518 464.834 375.904C465.183 374.468 444.61 372.396 441.599 372.19C439.562 372.05 342.399 381.422 346.537 383.333C350.675 385.244 490.296 392.46 491.428 390.904C492.559 389.347 533.371 232.212 534.432 231.574C535.493 230.937 619.307 234.97 618.672 237.305C618.034 239.641 588.046 354.538 590.45 356.66C592.855 358.782 614.781 337.699 615.347 343.359C615.913 349.018 611.811 364.3 622.136 357.085C632.464 349.869 636 321.143 636 321.143" stroke="#041C33" stroke-width="4" stroke-miterlimit="10"/>
</svg>
