<svg width="175" height="32" viewBox="0 0 175 32" fill="none" xmlns="http://www.w3.org/2000/svg">
<g clip-path="url(#clip0_6681_1218)">
<path d="M41.8926 27.1813V4.94781H48.7758L53.8621 17.4351H54.4408L59.4662 4.94781H66.4713V27.1813H61.5373V8.2067L62.2378 8.26761L56.3596 22.6737H51.6083L45.6997 8.26761L46.4611 8.2067V27.1813H41.8926Z" fill="white"/>
<path d="M78.8286 27.76C77.4074 27.76 76.1484 27.5163 75.052 27.029C73.9759 26.5417 73.0723 25.892 72.3413 25.0798C71.6307 24.2473 71.0825 23.3234 70.6967 22.3082C70.3312 21.2726 70.1484 20.2168 70.1484 19.1407V18.5315C70.1484 17.4147 70.3312 16.3488 70.6967 15.3336C71.0825 14.298 71.6307 13.3742 72.3413 12.562C73.052 11.7498 73.9353 11.1102 74.9911 10.6432C76.0673 10.1559 77.2855 9.91223 78.6459 9.91223C80.4327 9.91223 81.9352 10.3183 83.1534 11.1305C84.3923 11.9224 85.3364 12.968 85.9859 14.2676C86.6354 15.5468 86.9606 16.9478 86.9606 18.4706V20.1153H72.189V17.3437H84.0062L82.4226 18.6229C82.4226 17.6279 82.2805 16.7752 81.9962 16.0645C81.7119 15.3539 81.2855 14.8158 80.717 14.4503C80.1687 14.0645 79.4784 13.8716 78.6459 13.8716C77.7931 13.8716 77.0723 14.0645 76.4835 14.4503C75.8947 14.8361 75.4479 15.4046 75.1434 16.1559C74.8388 16.8869 74.6865 17.7904 74.6865 18.8665C74.6865 19.8615 74.8287 20.7345 75.1129 21.4858C75.3972 22.2168 75.8439 22.7854 76.453 23.1914C77.0621 23.5975 77.854 23.8006 78.8286 23.8006C79.7221 23.8006 80.4531 23.6279 81.0215 23.2828C81.5901 22.9376 81.9759 22.5112 82.1789 22.0036H86.656C86.4123 23.1204 85.9349 24.1153 85.2245 24.9884C84.5141 25.8615 83.6202 26.5417 82.5444 27.029C81.4683 27.5163 80.2297 27.76 78.8286 27.76Z" fill="white"/>
<path d="M97.0731 27.7295C95.8952 27.7295 94.8193 27.5164 93.8447 27.09C92.8906 26.6636 92.0576 26.0748 91.3472 25.3235C90.6368 24.5519 90.0886 23.6483 89.7025 22.6128C89.337 21.5773 89.1543 20.4605 89.1543 19.2625V18.562C89.1543 17.3641 89.3271 16.2473 89.6721 15.2118C90.0375 14.1762 90.5553 13.2727 91.2254 12.5011C91.916 11.7092 92.7383 11.1001 93.6924 10.6737C94.6464 10.227 95.7124 10.0037 96.8903 10.0037C98.2304 10.0037 99.3878 10.2981 100.362 10.8869C101.337 11.4555 102.098 12.3082 102.647 13.4453C103.195 14.5621 103.499 15.9427 103.56 17.5874L102.281 16.3996V4.94781H107.185V27.1813H103.317V20.2676H103.987C103.926 21.8514 103.591 23.2016 102.982 24.3184C102.393 25.4352 101.591 26.288 100.576 26.8768C99.5606 27.4453 98.3926 27.7295 97.0731 27.7295ZM98.2914 23.6483C99.0429 23.6483 99.7228 23.4859 100.332 23.161C100.962 22.8159 101.459 22.3184 101.824 21.6686C102.21 21.0189 102.403 20.2372 102.403 19.3235V18.1966C102.403 17.3032 102.21 16.5519 101.824 15.9427C101.438 15.3336 100.931 14.8666 100.302 14.5417C99.6718 14.2168 98.9919 14.0544 98.2609 14.0544C97.4485 14.0544 96.7175 14.2676 96.068 14.694C95.4383 15.1001 94.9411 15.6686 94.5756 16.3996C94.2101 17.1102 94.0274 17.9428 94.0274 18.8971C94.0274 19.8717 94.2101 20.7143 94.5756 21.425C94.9411 22.1356 95.449 22.6838 96.0985 23.0697C96.748 23.4555 97.4789 23.6483 98.2914 23.6483Z" fill="white"/>
<path d="M112.395 27.1813V10.491H117.268V27.1813H112.395ZM110.172 14.0849V10.491H117.268V14.0849H110.172ZM114.284 8.84631C113.37 8.84631 112.69 8.6128 112.243 8.1458C111.817 7.65849 111.603 7.04935 111.603 6.31839C111.603 5.56711 111.817 4.95798 112.243 4.49097C112.69 4.00366 113.37 3.76001 114.284 3.76001C115.197 3.76001 115.867 4.00366 116.294 4.49097C116.741 4.95798 116.964 5.56711 116.964 6.31839C116.964 7.04935 116.741 7.65849 116.294 8.1458C115.867 8.6128 115.197 8.84631 114.284 8.84631Z" fill="white"/>
<path d="M128.689 27.3641C127.471 27.3641 126.416 27.1915 125.522 26.8464C124.649 26.5012 123.968 25.9123 123.481 25.0799C123.014 24.2271 122.781 23.0798 122.781 21.6382V5.9834H125.583V22.0037C125.583 22.8768 125.816 23.557 126.283 24.0443C126.77 24.5113 127.451 24.7448 128.324 24.7448H131.187V27.3641H128.689ZM119.979 13.1103V10.9174H131.187V13.1103H119.979Z" fill="white"/>
<path d="M136.115 27.1813V10.9174H139.039V27.1813H136.115ZM133.617 13.2321V10.9174H139.039V13.2321H133.617ZM136.937 8.29807C136.287 8.29807 135.799 8.12549 135.475 7.78031C135.17 7.43513 135.018 6.99858 135.018 6.47066C135.018 5.94274 135.17 5.50619 135.475 5.16102C135.799 4.81584 136.287 4.64325 136.937 4.64325C137.586 4.64325 138.064 4.81584 138.368 5.16102C138.693 5.50619 138.856 5.94274 138.856 6.47066C138.856 6.99858 138.693 7.43513 138.368 7.78031C138.064 8.12549 137.586 8.29807 136.937 8.29807Z" fill="white"/>
<path d="M151.666 27.7296C150.265 27.7296 149.046 27.4859 148.011 26.9986C146.996 26.5113 146.153 25.8616 145.483 25.0493C144.813 24.2169 144.306 23.3032 143.96 22.3082C143.636 21.3133 143.473 20.3184 143.473 19.3235V18.7752C143.473 17.7397 143.636 16.7245 143.96 15.7295C144.306 14.7346 144.813 13.8412 145.483 13.0493C146.173 12.2371 147.026 11.5874 148.041 11.1001C149.057 10.6128 150.245 10.3691 151.605 10.3691C152.965 10.3691 154.184 10.6229 155.259 11.1306C156.356 11.6382 157.229 12.359 157.879 13.293C158.549 14.2067 158.925 15.293 159.006 16.5519H156.204C156.062 15.5367 155.594 14.694 154.803 14.024C154.011 13.3336 152.945 12.9884 151.605 12.9884C150.447 12.9884 149.483 13.2524 148.711 13.7803C147.94 14.3082 147.361 15.029 146.975 15.9427C146.59 16.8565 146.397 17.892 146.397 19.0493C146.397 20.1661 146.59 21.1915 146.975 22.1255C147.361 23.0392 147.94 23.7702 148.711 24.3184C149.503 24.8463 150.488 25.1103 151.666 25.1103C152.579 25.1103 153.371 24.9479 154.041 24.623C154.711 24.2981 155.25 23.8615 155.655 23.3133C156.062 22.7651 156.306 22.1458 156.386 21.4554H159.188C159.127 22.7346 158.752 23.8412 158.061 24.7752C157.391 25.7093 156.498 26.4402 155.381 26.9681C154.285 27.4758 153.047 27.7296 151.666 27.7296Z" fill="white"/>
<path d="M168.492 27.6686C166.36 27.6686 164.705 27.2118 163.527 26.2981C162.37 25.3844 161.772 24.1356 161.73 22.5519H164.472C164.513 23.1814 164.827 23.7803 165.416 24.3488C166.025 24.8971 167.051 25.1712 168.492 25.1712C169.792 25.1712 170.787 24.9174 171.477 24.4098C172.167 23.8819 172.512 23.2423 172.512 22.491C172.512 21.8209 172.259 21.3032 171.751 20.9377C171.244 20.5519 170.421 20.2981 169.284 20.1762L167.517 19.9935C165.975 19.8311 164.715 19.3742 163.741 18.623C162.766 17.8514 162.279 16.7752 162.279 15.3945C162.279 14.359 162.543 13.4757 163.071 12.7448C163.599 11.9935 164.33 11.425 165.263 11.0392C166.198 10.6331 167.274 10.4301 168.492 10.4301C170.319 10.4301 171.802 10.8361 172.939 11.6483C174.076 12.4605 174.665 13.6686 174.705 15.2727H171.964C171.944 14.623 171.64 14.0748 171.05 13.628C170.482 13.161 169.629 12.9275 168.492 12.9275C167.355 12.9275 166.492 13.161 165.903 13.628C165.314 14.095 165.02 14.6839 165.02 15.3945C165.02 16.0037 165.223 16.491 165.629 16.8565C166.055 17.2219 166.746 17.4555 167.7 17.557L169.467 17.7397C171.213 17.9224 172.614 18.4098 173.67 19.2016C174.726 19.9732 175.253 21.0696 175.253 22.491C175.253 23.5062 174.959 24.4098 174.37 25.2016C173.802 25.9732 173.01 26.5823 171.994 27.029C170.979 27.4554 169.812 27.6686 168.492 27.6686Z" fill="white"/>
<path d="M17.3021 31C24.6555 24.6323 30.0792 20.6194 32.8328 16.5331H23.7906L22.4688 12.5674L18.3355 24.9676L15.5239 16.5331H11.3906L10.0688 12.5674L8.74692 16.5331H1.77539C4.50539 20.5694 9.87716 24.5701 17.3021 31Z" fill="white"/>
<path d="M25.5684 0C21.3895 0 18.7074 2.91948 17.3017 5.54807C15.8959 2.91948 13.2138 0 9.03497 0C3.7329 0 -0.333984 4.33926 -0.333984 10.0935C-0.333984 11.6642 0.000237644 13.0894 0.615668 14.4669H7.25674L10.0683 6.03245L12.8798 14.4669H17.0132L18.335 18.4326L22.4683 6.03245L25.2799 14.4669H33.9868C34.6009 13.0891 34.9373 11.6623 34.9373 10.0935C34.9373 4.33926 30.8704 0 25.5684 0Z" fill="white"/>
</g>
<defs>
<clipPath id="clip0_6681_1218">
<rect width="175" height="32" fill="white"/>
</clipPath>
</defs>
</svg>
