<svg width="741" height="590" viewBox="0 0 741 590" fill="none" xmlns="http://www.w3.org/2000/svg">
<g opacity="0.03">
<path d="M296.574 342.799C294.536 356.3 289.095 368.73 284.403 381.391C284.35 381.534 284.278 381.659 284.216 381.793C279.408 391.667 276.647 401.201 281.499 412.487C285.029 420.708 283.751 430.394 284.278 439.445C285.172 454.904 285.654 470.38 286.414 485.848C286.566 488.859 285.86 491.272 283.778 493.532C281.883 495.596 280.204 497.938 278.801 500.368C276.397 504.532 276.299 508.857 278.818 513.074C281.338 517.283 283.858 521.5 286.467 525.656C287.987 528.086 288.603 530.499 287.191 533.17C286.914 533.689 286.825 534.314 286.53 534.823C280.74 545.135 282.152 555.125 287.665 565.061C290.167 569.583 290.185 576.445 294.349 578.724C298.245 580.859 304.214 579.233 309.272 579.215C324.31 579.171 339.34 579.635 354.37 580.153C358.82 580.305 359.982 581.896 359.723 586.015C358.213 609.489 357.006 632.98 354.79 656.409C354.272 661.878 353.655 667.346 352.949 672.806C352.878 656.668 353.548 640.549 354.808 624.465C355.845 611.124 356.685 597.756 358.704 584.505C359.231 581.056 356.872 582.325 355.326 582.53C339.474 584.576 324.293 589.169 309.352 594.674C308.539 594.969 307.806 595.639 306.09 595.022C308.44 593.789 310.388 592.851 312.265 591.77C314.186 590.671 316.554 590.483 318.654 588.437C306.189 590.295 294.42 592.958 282.572 595.281C276.325 596.505 273.019 599.552 270.857 604.994C268.944 609.793 266.728 614.484 264.352 619.121C264.664 611.017 268.337 603.958 272.304 595.817C265.317 600.5 259.991 605.316 255.058 610.624C253.075 612.759 254.772 614.162 256.077 615.538C260.777 620.515 265.549 625.421 270.267 630.38C271.589 631.774 272.814 633.257 274.145 634.767C273.064 635.339 272.581 634.571 272.09 634.178C269.4 632.042 268.81 633.141 268.569 636.054C267.077 653.702 265.468 671.332 263.842 688.961C263.592 691.696 263.324 694.466 261.412 697.799C260.464 692.214 260.768 687.514 261.01 682.867C261.903 665.926 262.904 648.984 264.021 632.051C264.235 628.852 263.592 627.431 260.044 627.556C257.06 627.664 255.067 627.53 255.273 631.667C255.657 639.512 255.38 647.384 255.38 655.248C254.692 655.248 254.004 655.257 253.316 655.257C253.316 648.126 253.075 640.987 253.405 633.874C253.611 629.406 252.431 627.02 247.633 627.851C241.226 628.968 238.366 625.662 236.392 620.024C233.881 612.857 230.592 605.959 227.268 599.043C226.214 622.973 227.098 646.839 225.418 671.332C223.899 669.75 224.275 668.526 224.266 667.471C223.98 643.051 223.739 618.63 224.284 594.209C224.328 592.261 224.257 590.34 223.488 588.508C215.196 568.778 206.913 549.049 198.611 529.319C198.45 528.944 198.093 528.658 197.584 528.032C197.584 532.277 197.548 536.191 197.593 540.104C198.004 581.655 198.021 623.196 197.718 664.746C197.682 669.723 198.254 674.834 194.84 678.811C193.688 626.886 193.545 574.622 193.652 522.349C193.661 517.926 192.83 513.87 191.06 509.84C186.879 500.314 182.938 490.691 178.827 481.139C177.478 478.002 177.112 474.973 178.256 471.631C179.793 467.137 180.624 462.374 182.411 458.005C184.332 453.304 183.635 449.409 181.365 444.985C163.404 409.94 145.765 374.716 126.83 340.181C125.946 338.563 125.356 336.705 122.863 335.194C122.863 341.878 122.845 347.901 122.863 353.923C122.89 362.117 122.961 370.302 122.952 378.496C122.952 380.444 123.095 381.57 125.624 382.052C133.595 383.571 139.081 389.71 139.814 397.225C140.547 404.731 136.24 411.906 129.064 415.141C121.88 418.375 113.516 416.838 108.324 410.736C103.687 405.276 101.337 398.53 98.3074 390.774C101.069 393.338 101.578 395.768 103.249 398.208C104.491 390.925 107.395 385.35 114.133 382.571C115.187 382.133 114.901 381.061 114.901 380.221C114.874 370.097 114.776 359.964 114.83 349.84C114.839 348.079 113.99 347.222 112.801 346.221C109.772 343.683 108.226 340.279 108.458 336.374C109.379 320.674 107.994 304.939 109.397 289.221C110.326 278.847 110.969 268.446 112.462 258.134C113.927 248.01 115.741 237.931 118.797 227.334C116.554 228.173 114.847 228.71 113.221 229.424C92.3919 238.548 71.4912 247.519 51.1892 257.786C41.6368 262.611 34.2648 269.706 29.8417 279.553C20.9148 299.417 14.3471 320.058 10.2634 341.44C8.36904 351.359 8.72647 351.743 15.2138 364.539C9.66472 360.661 6.50147 354.888 6.49253 347.758C6.46572 332.827 10.1383 318.583 15.1781 304.689C19.2349 293.51 23.7475 282.502 30.0025 272.306C31.8879 269.232 34.1666 266.507 36.9634 264.228C39.117 262.477 41.5832 261.164 41.887 257.768C42.0658 255.865 44.4695 255.507 46.06 254.81C69.6057 244.481 93.1693 234.187 116.751 223.92C118.252 223.268 119.843 222.91 120.575 221.168C122.452 216.682 126.169 213.671 129.109 210.016C133.523 204.521 139.108 201.796 145.247 199.526C147.427 198.722 148.151 197.641 147.82 195.273C146.56 186.141 145.399 177 144.425 167.832C144.157 165.276 143.156 164.508 140.761 164.794C136.919 165.249 134.479 163.15 132.138 160.335C123.31 149.702 118.806 137.933 121.889 123.985C122.3 122.118 121.442 120.473 120.942 118.785C115.902 101.87 113.239 84.8474 118.52 67.441C125.535 44.289 149.062 25.5244 173.135 23.5049C183.224 22.6561 193.035 23.0939 202.489 27.0077C203.285 27.3383 204.017 27.8029 204.714 28.5088C199.022 28.3569 193.482 27.0613 187.826 26.8647C166.577 26.1141 148.231 32.5834 133.782 48.5155C122.639 60.8019 118.967 75.6796 119.691 91.8886C120.12 101.468 122.282 110.725 125.07 119.848C125.552 121.447 125.669 123.663 128.126 123.663C134.685 123.672 137.955 127.702 140.1 133.215C140.35 133.859 140.904 134.386 142.146 136.155C139.769 125.728 142.557 117.257 145.551 108.839C146.426 106.364 146.525 103.898 146.132 101.36C144.809 92.7286 149.223 85.464 157.534 82.6135C162.439 80.9247 167.354 79.2538 172.26 77.556C172.367 77.5203 172.421 77.3326 172.671 76.9663C169.248 74.652 164.879 73.4993 162.261 68.7456C172.161 74.9826 182.268 77.69 193.196 77.2522C203.428 76.8412 213.096 73.9371 222.72 70.7918C224.194 70.3093 224.998 69.2013 225.803 67.8341C227.474 64.9926 232.96 63.6702 236.258 64.9837C235.82 66.5742 233.943 65.9845 232.799 67.4499C238.617 70.068 239.653 75.4651 240.69 80.9336C242.28 89.3688 245.131 97.5627 245.408 106.32C247.624 100.69 248.088 94.8195 248.455 88.922C249.089 78.6283 248.893 68.3703 246.212 58.3446C244.192 50.7851 239.832 46.7373 233.005 45.951C233.666 48.2474 236.213 49.4984 235.9 53.1888C229.475 46.6927 222.756 42.0283 213.561 43.9941C218.431 40.9918 223.417 41.6351 229.35 43.6724C222.398 30.7159 209.557 28.9914 199.04 23.6658C212.131 25.015 224.158 28.4195 231.62 40.5629C232.487 41.9658 233.461 42.8057 235.007 43.1184C242.629 44.6643 246.882 49.8469 248.634 56.906C253.227 75.3847 252.726 93.7651 246.471 111.842C245.703 114.067 245.533 115.881 246.364 118.186C249.518 126.934 247.749 135.869 246.686 144.698C244.881 159.593 240.645 173.783 233.148 186.856C230.467 191.538 231.557 196.658 230.691 201.474C228.206 215.297 235.48 227.646 235.409 241.023C235.337 254.542 236.686 268.035 237.231 281.778C239.01 276.55 240.377 271.136 242.656 266.132C246.239 258.286 246.444 250.593 243.996 242.417C241.959 235.608 240.761 228.54 238.947 221.659C237.607 216.584 235.998 211.562 232.951 207.032C239.537 210.258 244.586 215.235 249.706 220.06C255.228 225.26 260.518 230.729 265.754 236.215C267.685 238.235 269.382 238.691 271.992 237.449C290.113 228.826 308.298 220.319 326.464 211.804C328.206 210.99 329.18 209.793 329.636 207.845C330.288 205.111 331.307 202.457 332.227 199.785C335.248 191.055 340.913 185.81 350.403 184.166C361.662 182.218 361.564 181.753 361.421 170.602C361.349 164.758 360.902 159.093 357.953 153.785C356.613 151.364 356.059 148.486 355.273 145.788C354.29 142.41 353.959 138.773 350.322 136.79C349.527 136.361 349.062 135.155 348.651 134.216C345.47 127.014 342.155 119.848 339.894 112.297C338.724 108.384 337.258 104.121 341.824 101.056C342.924 100.315 342.244 99.5642 341.869 98.7779C339.171 93.1843 338.188 87.1706 337.902 81.0587C337.5 72.4538 337.366 63.8757 336.15 55.2886C334.989 47.0858 338.036 39.4906 342.423 32.503C343.603 30.6266 345.765 28.759 343.352 26.2303C343.067 25.9354 343.12 24.7202 343.335 24.6219C347.517 22.7543 345.327 19.2427 345.488 16.3833C345.631 13.8367 346.364 13.7384 348.446 15.0877C354.424 18.9746 358.883 18.7602 364.28 14.1494C375.646 4.42755 389.22 0.504846 403.66 0.0312628C418.261 -0.451256 431.459 4.67774 442.95 13.6133C449.697 18.8584 455.693 24.9167 456.131 34.3527C456.157 34.9067 456.497 35.4786 456.774 35.9968C467.327 54.958 466.299 74.7949 461.09 94.891C460.572 96.8836 460.232 98.0899 462.162 99.7608C464.888 102.12 464.62 105.73 463.905 108.973C462.082 117.257 458.802 125.093 456.059 133.09C455.737 134.038 455.103 135.432 454.37 135.61C448.821 136.951 449.885 141.704 449.179 145.439C448.401 149.541 447.99 153.839 445.658 157.315C440.538 164.955 441.664 173.524 441.378 181.914C441.297 184.211 442.459 185.497 444.604 186.033C445.613 186.284 446.605 186.623 447.633 186.766C456.166 187.955 461.412 192.914 463.19 201.143C464.396 206.737 467.613 209.427 472.787 211.446C495.055 220.158 517.171 229.281 539.322 238.28C543.201 239.852 547.007 241.496 548.24 246.179C548.741 248.073 549.965 248.707 551.958 247.537C555.443 245.491 559.231 243.641 560.911 239.781C563.726 233.338 568.927 230.631 575.342 229.21C583.349 227.441 583.849 226.333 583.644 218.309C583.492 212.581 582.107 207.881 577.925 203.547C571.974 197.364 568.489 189.536 566.326 181.226C565.853 179.412 565.629 177.983 563.118 177.92C560.867 177.866 559.58 175.927 558.776 173.899C556.372 167.832 553.852 161.8 551.681 155.644C550.322 151.81 549.706 147.771 552.351 144.108C553.414 142.634 552.431 141.606 551.895 140.444C549.902 136.093 548.419 131.616 548.026 126.8C547.794 124.048 547.347 121.403 545.443 119.044C544.425 117.775 544.058 115.693 544.023 113.968C543.889 106.579 543.281 99.0817 544.21 91.8082C545.006 85.6159 547.668 79.6648 549.527 73.6065C549.697 73.0525 550.001 72.4985 550.358 72.0339C558.606 61.195 568.793 53.019 582.08 49.2214C584.055 48.6585 586.199 48.6853 588.273 48.4976C594.912 47.89 601.363 47.3539 607.493 43.7618C614.106 39.8838 621.799 39.0349 629.708 39.58C611.693 43.7261 595.403 50.3205 587.245 69.7285C587.584 64.8586 587.978 63.0179 589.792 59.8547C591.391 57.0579 593.232 54.413 595.153 51.3928C589.22 51.0621 583.733 51.9914 577.63 52.9654C580.016 55.2618 582.08 57.2366 580.883 60.784C577.952 57.9514 575.485 53.3407 570.267 57.7012C572.304 59.1309 575.325 58.711 576.638 61.2844C565.451 60.0692 556.854 65.0373 552.824 75.2149C558.615 71.5871 564.459 69.4068 572.376 70.9884C554.218 74.5894 546.417 80.8979 547.642 98.6707C550.653 93.4702 554.093 89.476 558.525 86.4647C559.321 85.9197 560.259 85.5891 562.269 84.6062C554.495 93.9527 545.345 101.325 548.079 115.318C552.78 107.061 556.988 99.8144 564.405 95.0071C561.367 99.4838 558.266 103.925 555.3 108.455C552.154 113.271 551.279 118.615 551.931 124.271C552.574 129.847 553.083 135.458 556.792 140.954C558.23 135.44 555.157 130.249 557.882 125.138C558.561 130.008 557.239 134.699 559.642 139.542C560.187 136.066 560.849 133.171 561.063 130.24C562.082 116.283 569.793 105.578 577.853 94.9714C579.596 92.6749 581.919 91.6206 584.43 90.6823C586.119 90.0479 587.629 89.065 586.637 87.0992C585.485 84.8117 584.001 86.9026 582.974 87.4119C573.305 92.1388 567.157 100.208 562.439 109.563C561.778 110.877 561.117 112.19 560.25 113.897C561.099 101.843 573.207 87.2779 584.341 84.5168C585.288 84.2845 586.36 83.7126 587.129 84.9546C590.712 90.7538 596.431 90.5304 602.069 89.9675C607.386 89.4313 612.631 87.9659 618.029 88.7791C623.587 89.619 628.68 91.2006 631.584 96.7764C632.701 98.912 635.221 99.7698 637.267 100.94C643.969 104.8 650.581 108.848 657.498 112.297C668.131 117.605 673.6 126.952 677.764 137.299C678.944 140.239 680.4 142.437 683.179 143.804C688.567 127.282 683.018 113.441 672.447 100.717C676.361 102.951 678.827 106.32 681.258 109.733C683.724 113.2 685.047 117.257 686.932 121.662C690.962 86.7686 659.794 41.4475 623.024 43.9405C628.993 40.8309 634.265 40.8756 639.528 41.9389C649.813 44.012 658.23 49.6682 665.379 57.0043C682.848 74.9111 691.766 96.2849 690.408 121.564C690.069 127.818 687.79 133.734 686.253 139.658C681.776 156.93 678.944 174.319 677.693 192.092C677.121 200.196 674.967 208.122 669.302 215.119C668.069 211.759 667.979 208.506 665.299 206.264C667.604 205.272 668.024 207.908 669.883 208.024C673.948 198.838 674.797 188.964 675.378 179.037C675.432 178.134 675.36 177.107 674.091 177.205C672.555 177.321 670.705 176.866 670.044 179.046C668.971 182.566 667.899 186.087 667.533 189.751C668.909 190.072 668.65 187.651 669.963 188.384C670.866 188.893 670.169 189.983 670.222 190.814C670.499 195.228 666.675 197.194 664.629 200.196C662.216 203.735 660 206.737 664.369 210.749C666.791 212.974 667.917 216.593 668.149 220.078C668.292 222.258 669.365 223.322 671.295 223.768C678.667 225.475 682.545 230.649 684.564 237.449C685.449 240.415 687.147 242.122 689.836 243.552C711.514 255.034 732.504 267.794 754.558 278.57C757.355 279.937 758.74 282.26 759.946 284.825C766.031 297.817 769.597 311.658 773.216 325.446C784.886 369.927 793.232 415.069 799.112 460.658C802.025 483.256 802.882 506.033 804.866 528.711C805.635 537.522 803.088 543.616 797.369 549.183C793.714 552.748 791.865 557.055 790.301 561.8C781.294 589.169 772.51 616.61 762.681 643.694C761.769 646.196 761.045 648.778 757.471 646.795C755.746 645.839 755.487 647.536 754.969 648.43C752.789 652.147 750.742 655.936 748.544 659.653C747.651 661.163 747.668 662.718 747.686 664.371C747.802 676.72 748.07 689.069 749.813 701.328C749.938 702.186 749.831 703.071 749.42 704C746.882 699.434 746.873 694.278 746.096 689.346C745.488 685.539 745.524 681.625 745.149 677.774C744.112 667.257 745.711 657.294 751.386 648.224C753.164 645.383 752.717 643.926 749.643 642.184C723.488 627.369 695.939 616.199 666.55 609.685C665.254 609.399 663.985 608.935 662.725 608.506C662.502 608.434 662.377 608.077 661.876 607.416C663.994 607.416 665.826 607.264 667.613 607.443C678.658 608.515 689.604 607.639 700.55 606.102C705.938 605.343 705.036 600.196 707.913 596.595C697.932 597.596 688.97 599.99 679.748 599.901C687.433 597.068 695.457 595.674 703.499 594.593C707.431 594.066 709.7 592.583 711.237 588.731C715.08 579.072 719.387 569.592 723.658 560.111C724.82 557.52 725.079 555.259 724.087 552.48C722.568 548.209 722.782 543.705 724.15 539.372C724.489 538.29 724.695 537.79 723.828 536.771C719.61 531.875 719.503 528.908 723.837 524.574C725.454 522.957 725.481 522.171 724.444 520.348C721.674 515.505 722.059 513.861 726.044 510.492C726.482 511.091 728.626 511.216 726.634 512.494C724.105 514.12 725.159 516.103 726.178 517.917C727.313 519.946 728.948 520.607 731.432 519.91C735.284 518.829 739.305 518.373 743.192 517.39C751.01 515.424 757.56 517.721 763.244 523.055C764.861 524.574 766.308 526.29 767.774 527.979C771.679 532.482 778.345 535.083 783.009 533.921C783.322 533.841 783.966 534.055 784.064 534.305C785.208 537.03 788.38 536.87 791.212 538.8C781.043 539.917 773.806 535.905 767.157 530.382C763.726 527.532 760.67 524.271 756.863 521.849C753.405 519.642 749.768 518.954 745.792 519.696C739.921 520.795 734.265 522.519 729.02 525.459C726.714 526.755 723.917 527.657 724.212 531.115C724.471 534.269 727.018 534.949 729.404 535.878C731.03 536.512 733.13 537.048 732.942 539.3C732.781 541.311 731.003 542.329 729.207 542.624C725.767 543.187 725.767 545.492 726.357 547.968C726.893 550.228 727.992 552.283 729.949 554.392C731.673 548.888 734.292 544.858 739.635 543.062C744.443 541.445 745.149 538.38 741.967 534.511C740.556 532.795 738.59 532.867 736.669 532.697C733.336 532.402 730.011 532.08 726.687 531.767C726.732 531.356 726.777 530.954 726.821 530.543C728.412 530.266 730.002 529.766 731.593 529.766C734.863 529.757 738.134 529.945 741.396 530.168C744.934 530.409 749.885 535.011 750.287 538.943C750.716 543.116 747.383 545.26 744.246 546.136C734.926 548.718 729.913 556.054 726.294 563.632C718.743 579.448 711.72 595.523 703.562 611.044C701.569 614.841 701.917 616.315 706.099 617.942C723.292 624.635 739.912 632.605 755.818 641.978C758.713 643.685 759.455 643.095 760.447 640.102C767.971 617.254 775.843 594.522 783.268 571.647C786.914 560.424 790.444 549.299 799.71 541.159C800.479 540.489 800.979 539.515 801.631 538.701C802.418 537.719 802.668 536.673 802.543 535.386C800.211 511.841 798.334 488.251 795.537 464.769C790.301 420.752 782.08 377.236 771.572 334.176C767.845 318.887 763.806 303.679 758.391 288.873C756.783 284.476 754.54 281.17 749.84 279.401C745.989 277.953 741.896 278.186 738.062 275.871C723.953 267.329 709.459 259.412 695.082 251.308C692.803 250.021 690.658 248.395 687.692 247.796C689.014 255.338 690.355 262.602 691.561 269.885C696.359 298.809 699.88 327.876 701.766 357.149C702.659 371.106 701.006 384.778 697.012 398.136C696.091 401.201 697.512 402.962 699.344 404.749C701.229 406.598 702.927 404.99 704.607 404.221C711.514 401.058 713.981 395.295 713.882 388.102C713.802 381.892 713.489 375.672 714.74 369.534C715.321 375.44 715.991 381.338 716.036 387.235C716.063 390.514 716.581 392.284 720.298 392.641C723.399 392.936 725.222 395.34 725.579 398.458C725.91 401.335 725.052 404.472 722.219 405.053C716.679 406.196 717.895 409.753 718.341 413.3C718.565 415.069 718.752 416.847 718.922 418.626C720.566 435.612 722.845 452.518 725.615 469.415C735.543 429.938 740.073 389.692 743.075 349.232C743.335 351.359 743.361 353.441 743.326 355.514C742.736 390.872 739.171 425.935 731.316 460.408C727.527 477.037 724.319 493.505 726.107 510.617C724.4 509.866 724.453 508.321 724.4 506.828C723.301 476.894 718.055 447.362 715.696 417.553C715.473 414.739 715.303 411.906 715.241 409.082C715.187 406.857 714.41 406.366 712.578 407.671C712.453 407.76 712.345 407.885 712.211 407.93C705.679 410.101 705.983 414.31 706.921 420.386C709.093 434.495 698.039 447.094 684.073 447.925C670.178 448.747 657.65 436.961 657.498 422.915C657.346 408.832 668.533 398.011 683.215 398.69C687.084 398.869 687.87 397.413 688.594 394.348C692.553 377.603 692.267 360.688 690.801 343.728C690.176 336.463 689.282 329.226 688.532 321.979C688.38 320.478 688.496 318.905 686.208 319.03C679.989 319.352 673.761 319.611 667.506 319.897C667.202 321.943 668.587 322.837 669.364 323.954C673.511 329.949 677.621 335.981 682 341.807C684.555 345.202 684.734 347.758 682.16 351.582C664.173 378.362 646.069 405.097 632.647 434.602C630.378 439.597 628.18 444.646 626.196 449.766C623.899 455.708 622.818 461.677 622.943 468.307C624.123 534.26 625.213 600.223 625.249 666.194C625.249 673.932 625.249 681.661 625.249 689.426C622.389 689.417 622.756 687.702 622.702 686.317C622.345 677.685 621.799 669.062 621.71 660.43C621.281 618.889 620.915 577.339 620.736 535.797C620.718 531.66 619.726 530.82 615.75 531.562C610.773 532.482 606.305 534.841 600.577 536.45C605.331 531.339 610.746 529.596 616.313 528.988C620.155 528.56 620.754 527.049 620.656 523.681C620.432 515.996 620.548 515.889 613.534 518.722C608.718 520.669 604.08 523.055 599.29 525.075C596.476 526.263 595.493 527.952 595.528 531.151C596.109 580.135 596.788 629.129 596.073 678.123C596.029 681.241 596.136 684.458 593.902 687.183C591.016 608.944 593.455 530.677 589.523 452.438C588.594 458.147 587.862 463.902 586.691 469.576C582.545 489.672 575.843 508.776 564.503 526.084C562.77 528.729 561.778 531.991 561.724 535.243C561.68 537.844 560.554 538.505 558.195 538.532C551.207 538.585 544.264 538.156 536.561 536.262C538.867 541.74 540.547 546.6 542.879 551.113C549.956 564.775 553.423 579.081 551.725 594.522C551.404 597.462 551.698 600.473 551.636 603.448C551.493 609.694 548.919 611.991 542.62 611.472C541.44 611.374 540.261 611.124 539.126 610.811C536.526 610.105 535.364 610.543 535.766 613.706C538 631.586 539.322 649.547 540.386 667.525C540.895 676.139 541.297 684.762 541.771 693.769C539.573 692.223 538.974 690.338 538.768 688.193C535.954 659.018 533.702 629.79 530.324 600.669C529.699 595.263 526.696 590.313 527.804 584.523C528.269 582.083 525.606 582.754 524.132 582.798C509.397 583.272 494.671 583.763 479.918 583.066C469.82 582.593 459.776 581.833 449.331 579.841C456.703 579.841 463.547 579.564 470.356 579.894C488.219 580.752 506.081 580.35 523.953 580.207C527.161 580.18 527.17 578.572 526.929 576.24C525.821 565.437 524.766 554.625 523.712 543.813C523.453 541.177 523.283 538.532 523.417 535.842C526.035 544.054 527.25 552.525 528.537 560.987C529.565 567.751 530.431 574.533 531.316 581.315C531.513 582.861 531.986 584.21 533.157 585.256C538.795 590.277 544.067 595.639 548.928 601.652C548.124 589.223 550.984 576.838 544.907 564.659C536.427 547.673 529.422 529.962 521.773 512.565C521.067 510.957 520.289 509.384 519.119 507.829C517.644 515.916 520.102 524.172 517.85 532.205C516.268 526.656 517.644 520.723 515.741 514.772C512.81 521.197 510.889 527.586 507.35 533.251C508.217 526.46 510.737 520.133 512.828 513.718C514.678 508.026 515.768 502.218 516.795 496.365C517.055 494.89 516.938 493.523 516.25 492.067C511.103 481.183 509.647 469.96 513.382 458.282C514.365 455.217 515.527 451.991 512.042 449.266C516.429 449.989 516.983 452.902 516.643 456.137C516.331 459.086 515.589 461.99 515.196 464.93C515.062 465.921 514.347 467.494 516.304 467.682C517.671 467.816 519.369 467.691 519.414 465.966C519.574 460.212 520.852 454.368 518.556 448.747C517.993 447.371 517.055 446.236 515.848 445.28C512.345 442.519 511.988 442.796 510.487 447.014C509.271 450.427 508.101 453.966 505.626 457.459C508.003 435.871 506.886 414.774 507.994 393.946C506.412 393.177 506.055 394.544 505.241 394.643C496.735 395.679 496.618 401.55 496.922 408.189C497.208 414.274 496.601 420.386 496.529 426.489C496.502 428.946 496.029 430.286 493.071 430.224C471.929 429.768 450.787 429.42 429.645 429.134C426.777 429.098 425.785 428.079 425.847 425.158C426.026 417.419 425.865 409.672 425.919 401.925C425.928 400.013 425.472 398.815 423.703 397.582C417.573 393.311 417.787 386.413 424.123 382.258C425.481 381.364 425.847 380.471 426.035 379.122C429.52 354.495 441.074 333.649 456.309 314.518C458.99 311.149 461.572 307.709 463.583 303.84C464.986 301.141 465.084 299.184 462.663 296.852C457.194 291.598 452.02 286.022 446.766 280.545C445.872 279.615 444.362 278.775 444.845 277.292C445.292 275.925 446.918 276.515 447.999 276.354C452.404 275.675 456.819 275.085 461.251 274.576C463.333 274.334 464.423 273.709 464.209 271.261C462.538 252.451 461.867 233.526 457.078 215.119C454.772 206.246 450.885 198.213 443.629 191.154C449.009 214.046 442.128 235.268 438.625 256.642C432.067 296.673 423.694 336.41 418.869 376.709C413.525 421.262 411.952 466.029 412.819 510.894C413.909 567.17 417.108 623.392 416.724 679.695C416.706 682.501 416.724 685.307 416.724 688.524C414.445 685.825 414.526 683.064 414.445 680.294C413.471 646.661 412.399 613.018 411.55 579.385C411.452 575.596 410.389 574.864 406.913 575.703C402.659 576.74 398.477 578.348 393.053 578.259C397.414 574.417 402.159 574.033 406.609 572.782C408.172 572.335 411.121 573.729 411.193 570.691C411.273 567.501 408.351 568.921 406.752 568.519C403.436 567.697 399.978 567.42 396.717 566.464C392.642 565.267 392.008 566.893 392.008 570.566C391.954 605.405 391.784 640.254 391.534 675.094C391.498 680.044 392.356 685.2 389.604 690.016C388.067 688.676 388.693 687.085 388.675 685.727C387.692 612.161 388.094 538.603 389.693 465.055C390.149 443.976 387.433 423.174 385.243 402.327C382.303 374.377 378.399 346.534 374.047 318.762C370.392 295.413 366.469 272.101 362.904 248.743C361.045 236.546 359.562 224.278 358.15 212.018C357.06 202.582 358.856 193.387 361.581 184.112C359.678 183.898 358.481 184.854 357.641 185.855C352.896 191.511 347.794 196.792 346.096 204.539C342.084 222.821 339.18 241.362 333.89 259.359C333.478 260.77 333.067 262.182 332.281 263.522C336.186 242.131 339.894 220.703 344.97 199.49C339.671 205.978 336.811 213.653 334.685 221.561C329.627 240.388 328.376 259.725 328.546 279.079C328.805 308.701 329.046 338.349 331.209 367.916C332.076 379.783 333.648 391.587 335.498 403.346C335.909 405.982 337.151 406.572 339.537 406.974C349.509 408.654 356.479 416.454 357.006 426.158C357.525 435.648 351.672 444.217 342.745 447.023C333.568 449.909 323.444 445.531 318.565 436.568C313.963 428.115 315.804 417.768 323.515 411.629C326.267 409.44 326.786 407.465 326.267 404.123C320.155 364.673 315.214 325.115 316.849 285.048C317.519 268.5 320.218 252.228 323.453 236.028C323.765 234.464 324.051 232.9 324.016 231.247C320.039 240.451 317.546 250.057 315.866 259.913C309.933 294.618 310.648 329.592 311.434 364.583C311.622 372.911 311.908 381.221 313.176 389.54C311.514 388.057 311.345 385.93 310.719 384.063C306.394 371.097 303.803 357.623 299.058 344.782C298.575 343.469 298.665 341.807 297.083 341.065C297.271 339.555 296.994 338.125 296.529 336.687C294.197 329.333 291.927 321.952 289.622 314.589C282.902 293.171 275.146 272.11 267.372 251.066C266.621 249.047 265.183 246.929 267.309 244.338C279.06 277.837 290.81 311.337 302.981 346.042C302.981 339.778 302.981 334.909 302.981 330.039C305.84 341.208 303.624 353.119 308.878 365.164C308.878 362.35 308.878 360.768 308.878 359.186C308.923 330.316 307.922 301.391 311.532 272.646C313.668 255.668 316.501 238.807 324.757 223.429C325.74 221.597 326.955 219.613 326.303 216.942C324.024 217.942 321.978 218.791 319.968 219.72C304.473 226.931 288.996 234.169 273.493 241.353C271.223 242.399 268.873 243.123 266.38 243.703C258.382 245.562 251.279 248.421 249.071 257.991C247.284 265.765 244.55 273.396 241.503 280.795C239.037 286.8 239.769 291.223 243.951 296.352C252.181 306.422 260.304 316.6 268.399 326.795C256.881 316.367 247.257 304.34 238.581 291.428C237.58 297.826 241.128 302.678 243.415 307.87C245.729 313.133 248.991 317.895 251.913 322.837C244.094 316.412 240.011 307.682 236.794 298.21C235.266 299.667 235.4 301.463 234.926 302.955C217.323 357.962 201.015 413.389 181.276 467.691C179.31 473.097 179.373 477.698 181.83 482.953C201.801 525.638 219.574 569.279 237.75 612.741C240.6 619.55 240.404 619.309 245.56 614.359C259.044 601.393 271.196 586.185 292.249 585.399C286.289 571.146 280.382 557.225 274.628 543.25C265.299 520.589 256.256 497.812 246.605 475.295C245.175 471.953 245.372 470.577 247.677 468.263C250.93 465.001 249.643 461.534 244.925 460.784C238.491 459.756 232.183 460.087 226.384 463.679C220.861 467.101 216.393 471.631 212.301 476.59C210.782 478.422 209.334 480.317 207.86 482.175C213.507 465.358 228.689 456.119 245.89 458.344C250.769 458.979 249.59 454.127 250.859 451.884C252.065 449.757 248.902 450.123 247.713 449.927C238.581 448.452 229.386 448.024 220.128 448.586C214.365 448.935 208.7 449.837 203.043 451.044C206.528 448.113 210.674 446.987 214.91 446.254C226.518 444.253 238.098 445.423 249.545 447.344C253.459 447.997 254.656 446.647 255.916 443.565C265.174 420.868 274.619 398.244 283.849 375.538C288.273 364.726 292.347 353.727 296.574 342.799ZM559.142 158.235C561.224 154.026 558.204 150.97 556.694 147.602C556.283 146.672 555.568 145.645 554.308 146.074C553.227 146.44 552.914 147.575 552.78 148.602C552.458 151.122 553.003 153.508 554.022 155.93C555.148 154.536 554.04 151.605 556.461 151.676C558.445 151.739 557.873 154.303 558.57 155.679C558.954 156.439 558.981 157.386 559.16 158.253C560.607 159.075 560.268 160.21 559.499 161.184C558.445 162.524 557.641 159.96 556.336 160.96C557.73 164.812 559.097 168.707 560.572 172.568C560.876 173.363 561.492 174.069 562.082 174.703C562.815 175.481 563.869 176.097 564.816 175.4C565.665 174.775 565.04 173.765 564.709 172.952C563.226 169.387 562.109 165.723 561.528 161.881C561.322 160.38 560.411 159.129 559.142 158.235ZM591.4 150.193C590.301 146.932 583.34 148.334 585.431 142.365C577.773 143.447 570.142 143.286 562.135 143.563C564.923 149.568 567.354 155.117 570.052 160.514C572.081 164.579 575.602 166.572 580.186 166.581C584.939 166.59 589.693 166.572 594.447 166.626C598.468 166.67 601.274 164.99 602.659 161.13C604.732 155.331 606.814 149.532 608.941 143.581C601.846 141.981 595.001 141.132 588.004 142.017C591.597 142.088 594.974 142.955 598.307 144.251C599.8 144.832 600.202 145.511 599.585 146.869C599.228 147.646 598.647 148.915 597.744 147.932C593.5 143.304 592.633 147.432 591.23 150.3L591.4 150.193ZM640.547 141.365C637.33 141.249 634.524 142.777 631.539 143.59C630.467 143.885 629.127 144.903 628.707 143.027C628.403 141.669 627.876 141.731 626.911 142.151C625.829 142.616 625.204 143.295 625.535 144.564C627.259 151.06 629.35 157.538 633.818 162.587C636.946 166.116 641.914 164.678 646.149 164.838C648.669 164.937 651.207 164.785 653.727 164.642C659.115 164.329 662.984 161.908 664.941 156.671C666.55 152.373 668.203 148.084 670.097 143.902C671.393 141.052 670.312 140.641 667.747 140.668C659.571 140.766 651.395 140.703 643.218 140.73C642.227 140.73 641.101 140.409 640.386 141.499L640.547 141.365ZM396.181 114.924C394.599 116.39 394.519 118.588 393.536 120.348C391.766 123.503 389.863 126.567 386.289 127.917C373.725 132.644 360.232 127.238 354.335 115.228C354.254 115.058 353.906 115.023 353.548 114.871C353.852 117.9 354.058 120.849 354.451 123.78C355.898 134.431 356.837 145.243 362.127 154.92C368.498 166.572 377.442 176.16 387.522 184.604C394.903 190.787 409.951 190.349 417.475 184.398C423.792 179.403 429.627 173.881 434.872 167.76C441.941 159.504 445.819 150.363 445.783 142.071C441.923 145.368 441.923 145.368 438.813 145.466C441.521 142.919 445.72 141.829 446.587 137.773C448.133 130.508 449.402 123.19 450.778 115.898C446.873 124.101 440.913 128.569 431.718 128.301C423.989 128.069 415.133 131.089 411.005 119.723C410.013 125.218 412.336 129.516 411.005 133.823C409.79 133.653 409.951 132.778 409.763 132.116C408.021 125.915 408.047 119.464 407.038 113.155C406.832 111.86 406.921 110.519 405.331 109.822C400.997 107.919 396.851 110.206 396.038 115.05L396.181 114.924ZM671.67 148.862C670.151 152.338 668.471 155.742 667.148 159.289C664.78 165.652 659.785 167.939 653.593 168.261C649.143 168.493 644.666 168.323 640.207 168.323C634.801 168.323 630.771 166.009 628.296 161.157C626.464 157.565 624.695 153.937 622.514 149.55C622.166 156.287 623.953 162.05 622.747 167.912C620.432 163.033 620.128 157.797 619.798 152.543C619.637 149.996 621.469 146.547 616.116 146.521C610.719 146.494 612.104 149.916 612.024 152.749C611.925 156.037 612.006 159.325 612.006 162.613C611.604 162.613 611.202 162.622 610.8 162.622C610.63 160.058 610.46 157.493 610.228 153.874C608.628 157.386 607.449 159.879 606.358 162.408C604.089 167.662 600.005 170.048 594.411 170.075C589.801 170.092 585.181 170.146 580.57 170.012C573.859 169.815 568.944 166.822 566.344 160.451C564.968 157.091 563.565 153.749 562.171 150.399C563.529 160.031 566.139 169.27 568.667 178.546C571.625 189.366 577.291 198.418 585.082 206.21C592.043 213.171 599.63 219.524 608.137 224.447C615.991 228.996 624.31 229.103 632.129 223.804C638.911 219.202 645.229 213.993 651.207 208.39C656.131 203.779 660.536 198.731 662.752 192.208C667.533 178.117 671.384 163.82 671.554 148.781C673.636 144.787 675.459 140.623 673.484 136.164C669.901 128.06 665.29 120.938 657.105 116.309C645.05 109.483 632.71 103.058 621.701 94.5603C622.362 93.8812 623.783 95.0697 624.328 93.6579C619.378 91.6206 614.374 91.2006 609.057 92.112C603.99 92.9788 598.852 94.3816 593.643 92.6124C588.281 90.7895 582.983 92.4426 579.721 97.1785C576.013 102.558 572.51 108.089 568.971 113.584C567.595 115.72 566.737 118.105 566.237 120.599C565.218 125.683 564.486 130.839 563.208 135.851C562.421 138.925 562.716 139.587 566.13 139.238C577.63 138.076 589.3 135.53 600.684 138.47C605.286 139.658 609.513 138.273 613.856 139.202C619.038 140.319 624.078 139.506 629.234 138.21C641.306 135.172 653.62 134.708 665.969 136.227C673.6 137.165 673.957 137.817 672.117 145.386C671.857 146.512 671.813 147.7 671.67 148.862ZM585.717 453.349L585.815 453.43C588.38 442.707 586.476 432.208 584.332 421.699C583.778 418.965 582.929 416.856 579.605 417.026C578.202 417.098 577.612 416.088 577.049 414.944C572.626 405.866 567.997 396.885 563.771 387.718C562.421 384.796 561.689 384.242 559.008 386.44C544.175 398.61 529.261 410.7 514.222 422.62C510.46 425.595 510.907 428.893 511.899 433.387C524.757 421.744 538.947 412.594 549.634 399.414C547.329 404.784 543.79 409.145 539.492 412.826C531.128 419.993 522.756 427.141 514.15 434.004C511.05 436.47 511.175 437.828 514.427 439.705C522.827 444.548 526.803 451.24 523.461 461.168C522.979 462.606 521.746 465.519 524.605 465.984C528.948 466.69 528.501 469.138 527.67 472.105C527.072 474.249 526.464 476.394 525.919 478.547C524.114 485.74 520.745 492.987 521.004 500.109C521.272 507.275 527.152 513.512 529.279 520.58C531.861 529.176 537.625 533.09 545.846 534.466C549.5 535.074 553.2 535.44 556.863 536.012C559.178 536.369 559.848 535.458 560.223 533.197C560.572 531.07 559.276 528.997 560.858 526.79C575.861 505.899 583.403 482.184 586.914 456.986C587.102 455.619 587.879 453.975 585.717 453.349ZM372.17 271.252C370.008 273.477 371.178 276.104 371.545 278.472C378.005 320.665 384.082 362.913 389.014 405.321C389.398 408.6 390.399 409.279 393.384 408.645C398.861 407.474 404.393 406.545 411.077 405.294C405.697 409.592 400.407 410.539 395.09 410.727C390.515 410.887 389.086 412.755 390.069 416.99C390.426 418.536 389.282 420.958 392.177 421.038C397.977 421.199 403.785 421.208 409.593 421.288C411.112 421.306 411.702 420.511 411.631 419.063C411.559 417.482 410.424 417.652 409.388 417.652C407.154 417.643 404.92 417.652 402.177 417.652C403.597 416.213 404.777 415.963 405.93 415.945C410.943 415.882 412.256 413.282 412.631 408.466C414.472 384.429 417.939 360.589 421.907 336.812C425.624 314.518 429.225 292.215 432.987 269.929C433.496 266.891 432.916 264.559 430.833 262.254C425.561 256.392 420.102 250.629 415.428 244.302C411.148 238.512 406.171 235.796 398.924 236.448C396.377 236.68 395.037 237.297 393.652 239.379C387.415 248.797 380.963 258.072 374.592 267.401C377.818 258.688 383.438 251.317 388.067 243.391C389.711 240.576 393.134 237.636 392.794 235.161C392.463 232.757 388.353 230.872 385.896 228.763C384.546 227.602 383.197 226.431 381.803 225.323C374.637 219.622 368.122 213.233 361.841 205.835C362.046 213.269 362.511 214.261 366.746 218.898C372.188 224.849 377.532 230.881 382.92 236.877C382.473 237.306 382.035 237.735 381.589 238.154C375.896 231.837 370.213 225.52 364.521 219.202C364.146 219.497 363.762 219.801 363.386 220.096C365.102 236.886 367.953 253.515 370.508 270.188C370.66 271.127 371.429 271.18 372.17 271.252ZM444.398 59.265C444.309 59.8726 444.988 61.0699 443.808 60.8912C442.539 60.7036 441.369 59.8815 440.162 59.3186C432.353 55.6371 424.185 53.439 414.883 52.8939C416.027 54.3057 416.706 55.1457 418.055 56.8166C411.917 54.7078 406.582 54.0824 401.042 54.9402C386.664 57.1651 372.697 56.629 359.75 47.336C361.492 53.1262 361.867 58.1748 359.955 63.277C356.041 73.7495 354.335 84.8117 351.672 95.6147C351.484 96.3832 350.689 97.241 351.556 98.072C352.512 98.9745 361.599 97.2589 361.841 95.9185C362.412 92.7375 364.807 92.532 367.131 92.1567C371.384 91.4687 375.628 90.6376 379.918 90.3249C386.78 89.8245 392.803 93.5596 395.68 99.457C384.859 94.5961 373.609 96.9461 362.395 98.1971C367.854 98.6528 373.323 98.6439 378.792 98.6618C382.965 98.6707 387.299 98.5009 391.105 100.225C396.654 102.745 402.132 102.093 407.636 100.806C420.968 97.6878 434.497 98.492 447.981 98.6081C451.019 98.635 450.17 97.2321 449.965 95.6952C448.714 86.1073 446.632 76.6982 444.103 67.3784C443.638 65.6628 442.798 63.7953 444.755 61.6329C450.215 72.8202 450.876 84.8027 453.235 96.3117C453.673 96.2313 454.111 96.1419 454.549 96.0615C454.549 93.1575 454.549 90.2534 454.549 87.3494C454.737 87.3494 454.924 87.3583 455.121 87.3583C455.505 90.4947 455.898 93.6311 456.354 97.3214C465.138 75.6974 463.011 51.6966 450.912 32.2975C450.528 31.6899 449.786 30.6355 449.956 30.4478C452.762 27.3204 449.67 25.4886 448.187 23.8892C433.47 7.94815 415.41 1.5503 393.893 5.35684C386.485 6.67037 380.212 10.6735 373.564 14.1673C373.377 12.4338 375.208 12.0317 374.708 10.0748C366.809 15.5344 360.679 26.5519 348.732 18.0632C348.687 25.6584 354.361 24.7827 359.428 25.9086C355.639 27.3115 352.387 27.6957 349.179 27.8297C345.435 27.9906 346.632 31.806 347.07 31.9758C350.43 33.2893 347.481 33.8612 346.882 34.5671C341.583 40.8399 339.278 48.0151 339.957 57.1383C346.409 38.8919 352.941 31.0376 360.196 32.2707C353.092 35.2909 352.708 35.5768 348.66 42.618C346.668 46.094 344.729 49.6146 342.986 53.2156C341.69 55.8963 340.815 58.7824 341.002 61.8205C341.547 70.4344 342.003 79.0572 342.843 87.6442C343.281 92.1746 344.568 96.5887 347.892 100.762C347.266 94.6944 345.685 89.2705 347.668 83.2748C348.848 88.1357 347.204 92.7464 349.197 96.9551C348.973 91.2006 350.921 85.8482 351.975 80.3796C354.406 67.7537 360.75 55.7712 357.176 42.1623C356.157 38.2754 359.687 35.5679 363.235 33.9595C362.859 34.9692 362.207 35.7645 361.644 36.6223C358.516 41.4296 358.954 43.9584 363.815 46.8892C366.21 48.3279 368.855 49.4359 371.5 50.3741C385.404 55.2976 398.799 50.5171 413.382 48.2653C406.296 45.0664 399.496 44.3426 392.776 41.7334C401.64 41.3135 429.967 50.9192 443.844 58.8361C444.023 58.9969 444.201 59.1399 444.398 59.265ZM665.826 252.657C668.283 253.399 667.077 255.382 666.907 256.669C666.371 260.636 665.629 264.595 664.682 268.491C655.058 308.021 644.237 347.257 636.159 387.164C632.451 405.49 628.734 423.817 625.955 443.583C626.911 441.724 627.384 441.009 627.67 440.232C632.504 427.07 638.974 414.703 645.89 402.542C656.131 384.554 667.622 367.362 679.247 350.251C680.874 347.865 681.124 346.239 679.203 343.674C673.403 335.936 668.015 327.894 662.493 319.95C661.841 319.012 660.652 318.083 661.242 316.832C661.849 315.527 663.324 315.929 664.459 315.929C670.714 315.903 676.978 315.724 683.215 316.01C686.923 316.18 688.156 315.411 687.379 311.39C686.217 305.421 685.833 299.3 684.993 293.26C682.902 278.248 681.195 263.156 676.996 248.52C674.109 238.449 668.65 230.086 660.223 223.17C660.223 230.711 660.223 237.743 660.223 244.811C657.149 238.86 655.863 232.686 655.836 226.217C655.827 225.153 656.408 223.84 654.522 222.428C654.102 223.125 653.772 224.001 653.182 224.608C642.235 235.885 625.561 242.515 607.913 229.264C600.854 223.965 593.705 218.764 586.53 213.001C586.566 222.517 588.219 231.462 586.986 241.389C585.136 238.557 586.843 235.626 584.511 233.776C580.901 254.935 587.263 279.678 624.007 282.359C615.786 284.539 609.263 282.332 602.954 280.035C588.219 274.665 582.357 262.656 580.427 247.903C578.05 253.988 577.684 260.002 577.925 266.087C578.658 284.691 580.623 303.205 582.589 321.702C585.717 351.144 589.443 380.542 591.132 410.11C591.588 418.027 593.956 423.058 601.542 425.872C604.813 427.088 607.449 427.785 610.773 426.265C614.427 424.595 618.449 423.674 622.514 424.103C625.526 424.425 626.285 422.906 626.75 420.448C628.617 410.521 630.539 400.594 632.567 390.693C632.907 389.049 632.88 388.075 631.396 386.931C627.742 384.125 624.194 381.159 620.843 378.005C619.137 376.396 618.395 376.629 617.215 378.469C614.15 383.232 610.71 387.735 606.519 391.587C605.09 392.9 603.562 394.33 601.39 393.249C597.718 391.417 593.866 389.853 590.989 386.61C593.67 387.351 596.306 388.254 598.665 389.63C601.864 391.506 604.16 390.747 606.35 388.039C609.629 383.991 613.159 380.14 616.367 376.048C618.02 373.939 619.217 373.626 621.317 375.556C625.097 379.032 629.154 382.213 633.434 385.805C633.755 384.662 633.943 384.134 634.059 383.598C640.556 353.378 647.436 323.239 654.603 293.171C657.873 279.455 661.706 265.917 665.996 252.496L665.826 252.657ZM560.947 292.438C559.705 288.354 558.356 284.307 557.23 280.187C554.281 269.42 550.644 258.921 545.211 249.127C544.166 247.242 543.12 245.464 540.806 244.391C518.994 234.205 496.726 225.1 474.511 215.869C473.734 215.548 472.832 214.449 471.679 215.565C475.021 221.704 477.621 228.165 479.614 234.875C488.835 265.98 492.052 297.808 491.087 330.137C490.98 333.765 490.953 337.071 494.197 339.725C496.252 341.405 497.173 344.148 498.057 346.677C501.167 355.603 501.739 364.414 496.422 372.804C494.965 375.101 496.288 377.111 496.77 379.193C496.967 380.051 497.753 379.953 498.566 379.64C501.908 378.371 504.893 379.515 508.083 381.713C508.083 367.657 508.083 354.147 508.083 340.636C510.88 363.109 510.773 385.725 511.666 408.984C524.051 395.5 536.141 383.152 549.607 372.214C538.331 384.277 526.955 396.242 515.133 407.76C511.407 411.388 510.934 415.042 511.702 420.046C512.676 419.376 513.284 419.019 513.82 418.581C532.085 403.775 550.305 388.924 568.632 374.198C570.401 372.777 570.312 371.428 570.07 369.569C567.613 351.144 564.316 332.862 561.144 314.562C559.705 306.243 558.454 297.898 557.122 289.57C559.321 292.054 560.08 294.922 560.75 297.799C564.825 315.313 568.355 332.934 571.393 350.653C572.751 358.552 574.663 366.388 575.057 374.439C575.217 377.781 574.458 380.757 571.295 382.901C571.187 380.971 572.251 379.291 571.107 377.495C570.178 378.103 569.481 378.666 568.694 379.05C565.048 380.855 564.101 382.973 566.255 387.012C570.794 395.518 574.726 404.356 578.899 413.059C579.408 414.122 579.819 415.623 581.294 415.203C586.271 413.791 586.459 417.58 587.29 420.582C587.942 422.977 588.353 425.443 588.871 427.874C589.22 425.64 589.372 423.442 589.202 421.262C585.699 376.173 579.471 331.352 575.512 286.308C574.494 274.772 573.421 263.183 574.958 251.558C575.977 243.838 578.97 236.814 582.491 229.058C570.589 240.335 565.182 254.265 559.866 268.276C558.668 271.439 558.365 274.424 559.267 277.766C560.536 282.475 561.59 287.273 560.947 292.438ZM214.115 139.077C209.566 129.731 208.476 121.099 209.843 112.119C210.371 108.661 212.748 107.24 216.036 106.739C223.417 105.605 230.86 105.319 238.286 105.256C241.324 105.229 242.37 104.381 241.78 101.53C239.966 92.809 238.277 84.0611 236.195 75.4115C235.569 72.8202 233.461 70.7561 230.914 69.6213C228.18 68.406 228.34 71.8909 226.634 72.5253C225.392 72.99 224.31 73.8567 223.086 74.3839C217.483 76.8054 211.64 78.5032 205.706 79.915C190.792 83.4713 174.717 78.6819 160.348 86.1967C159.973 86.3933 159.473 86.3307 159.035 86.4111C152.047 87.68 147.347 94.3012 148.455 101.342C149.009 104.881 149.706 108.464 148.133 111.886C144.478 119.83 143.898 128.203 144.273 136.763C144.38 139.14 144.746 141.615 143.674 144.787C141.083 139.479 138.795 135.003 135.927 130.857C133.72 127.658 130.53 126.496 126.955 127.497C123.381 128.498 124.06 131.938 123.953 134.627C123.524 145.368 130.235 152.847 136.159 160.621C137.687 162.622 140.162 162.176 142.414 161.899C144.782 161.604 143.174 159.406 144.085 158.387C145.578 159.629 145.917 161.47 146.757 163.016C150.59 170.048 153.057 178.322 159.544 183.219C174.163 194.245 189.452 203.779 209.423 199.964C216.268 198.659 221.853 196.372 226.124 190.921C234.184 180.636 238.465 168.654 241.771 156.242C245.935 140.623 245.667 124.914 242.45 109.17C242.164 107.767 241.878 106.972 240.18 107.597C233.827 109.947 227.054 110.028 220.459 111.055C212.345 112.315 210.782 114.478 211.818 122.698C212.488 127.756 214.436 132.635 214.115 139.077ZM185.029 448.426C186.619 443.44 187.567 439.356 189.211 435.567C192.026 429.116 191.793 422.807 190.355 416.025C182.062 377.093 172.653 338.438 162.734 299.899C157.114 278.061 152.315 255.981 144.577 234.75C142.343 228.629 141.914 222.633 143.12 216.379C143.942 212.116 144.773 207.854 145.595 203.592C139.126 211.366 135.141 220.221 132.835 229.737C126.598 255.472 125.213 281.76 124.364 308.093C124.275 310.774 125.579 310.577 127.358 310.327C132.067 309.657 136.785 309.031 141.494 308.388C142.37 308.272 143.415 307.995 144.005 308.763C144.863 309.889 143.746 310.675 143.147 311.444C138.331 317.681 133.586 323.989 128.582 330.065C126.875 332.147 126.875 333.622 128.144 335.909C140.439 358.15 152.44 380.551 163.815 403.283C171.116 417.884 178.229 432.574 185.029 448.426ZM148.955 233.124C149.929 237.475 151.27 240.335 153.897 242.801C161.161 249.619 168.346 256.544 175.334 263.648C181.169 269.581 187.022 275.532 191.909 282.332C179.122 270.474 166.979 257.956 153.441 246.143C157.659 263.183 161.778 279.58 165.772 295.994C171.464 319.387 177.13 342.781 182.652 366.21C183.411 369.435 184.207 369.73 186.87 367.863C191.123 364.878 195.743 362.421 200.032 359.472C203.419 357.149 206.68 356.345 210.299 358.704C212.363 360.044 213.078 358.874 213.641 357.033C215.044 352.494 216.59 347.999 218.029 343.469C222.63 329.038 227.679 314.723 231.647 300.114C234.756 288.649 232.469 276.702 232.746 264.979C232.817 261.941 232.755 258.894 232.755 254.81C223.533 264.595 215.294 273.334 207.055 282.064C206.778 281.805 206.501 281.545 206.224 281.286C213.999 272.279 221.639 263.156 229.6 254.337C232.379 251.254 232.353 248.323 231.307 244.49C230.53 245.223 230.11 245.625 229.69 246.027C220.128 255.23 211.568 265.354 202.865 275.326C200.532 278.007 199.237 279.088 196.279 275.577C191.016 269.331 185.136 263.585 179.256 257.911C170.079 249.065 160.044 241.237 148.955 233.124ZM228.305 194.075C225.213 196.497 222.881 199.097 219.977 200.447C213.382 203.502 210.531 208.971 208.432 215.414C206.68 220.784 204.902 226.208 201.855 231.086C201.721 229.835 201.891 228.683 202.132 227.539C203.508 221.007 205.009 214.493 205.304 207.774C205.42 205.182 204.723 204.316 201.873 204.128C179.784 202.654 161.769 193.638 149.214 174.891C149.116 174.739 148.732 174.784 148.517 174.739C148.866 180.368 149.196 185.998 149.581 191.627C150.26 201.832 148.088 211.741 146.48 221.704C145.944 224.992 146.176 227.405 149.518 229.55C157.9 234.929 165.844 240.96 173.287 247.617C182.053 255.463 190.283 263.826 197.753 272.923C198.513 273.843 199.121 276.014 200.943 273.602C209.665 262.084 219.485 251.522 229.547 241.184C230.994 239.691 230.959 238.289 230.628 236.367C229.35 228.906 228.296 221.4 227.215 213.912C226.249 207.372 228.323 201.215 228.305 194.075ZM405.045 544.84C401.989 547.065 399.049 547.95 396.225 548.361C392.428 548.924 392.008 550.818 392.151 554.088C392.535 562.667 392.374 562.818 400.899 564.23C404.223 564.775 408.539 568.18 410.514 565.58C412.301 563.229 410.889 558.458 410.889 554.303C407.493 555.357 404.723 556.367 401.873 557.055C399.219 557.698 396.556 559.343 393.482 557.85C393.92 557.341 394.072 556.992 394.313 556.921C398.584 555.679 402.829 554.312 407.154 553.329C409.772 552.73 410.683 551.667 410.576 548.861C409.066 507.936 408.878 467.003 411.032 426.087C411.139 424.014 410.835 423.102 408.458 423.263C403.562 423.585 398.647 423.737 393.741 423.701C391.311 423.683 390.73 424.523 390.882 426.828C391.32 433.36 391.775 439.901 391.82 446.451C391.999 472.65 392.034 498.849 392.115 525.057C392.133 530.713 392.338 536.378 392.043 542.025C391.838 546.127 392.982 547.351 397.021 545.93C399.353 545.09 401.801 544.152 405.045 544.84ZM593.017 430.403C593.929 461.883 594.822 492.835 595.734 524.36C603.383 519.651 610.505 515.701 618.877 514.915C621.183 514.701 620.557 512.797 620.566 511.448C620.611 505.649 620.709 499.841 620.486 494.042C620.084 483.113 620.37 472.176 621.219 461.32C622.041 450.677 623.033 439.99 625.133 429.482C625.624 427.025 624.623 426.471 622.345 426.444C618.386 426.4 614.651 427.168 611.112 428.839C607.869 430.376 604.857 430.215 601.828 428.285C598.87 426.4 595.832 424.657 592.669 422.763C591.677 426.167 593.268 427.606 595.859 428.776C602.498 431.779 609.629 433.709 615.741 437.891C607.976 436.532 600.729 433.628 593.017 430.403ZM279.131 542.642C283.286 535.199 285.905 528.22 279.033 521.393C278.622 520.982 278.372 520.41 278.059 519.901C270.812 508.204 271.205 501.717 280.195 491.343C282.607 488.555 283.617 485.714 283.51 482.059C282.92 463.321 282.143 444.592 280.749 425.89C280.57 423.522 280.311 421.145 279.927 418.795C279.515 416.311 278.988 413.827 278.354 411.388C277.791 409.234 277.013 407.135 276.12 404.365C267.041 422.405 261.689 441.179 251.323 457.611C250.421 459.041 250.671 460.346 251.645 461.713C253.539 464.385 253.226 467.101 251.136 469.478C249.858 470.925 249.759 472.194 250.483 473.91C259.991 496.66 269.463 519.419 279.131 542.642ZM364.325 165.446C364.914 174.578 366.46 182.575 364.083 190.197C361.751 197.668 364.396 202.85 369.284 208.069C377.639 216.995 387.272 224.492 396.172 232.802C398.584 235.054 407.234 235.242 409.665 233.025C418.672 224.823 428.019 216.933 435.328 207.059C440.386 200.232 440.708 194.764 436.642 186.811C426.777 200.572 410.478 204.164 395.93 195.755C391.802 193.37 387.987 190.564 384.43 187.365C377.353 180.994 371.169 173.81 364.325 165.446ZM480.507 314.875C480.749 302.499 479.176 290.24 477.514 278.007C477.362 276.881 477.764 275.076 475.62 275.148C473.555 275.219 473.278 276.497 473.511 278.204C473.654 279.231 473.537 280.294 473.68 281.322C475.825 297.049 471.464 310.318 460.545 322.193C446.194 337.813 437.205 356.488 433.336 377.477C432.969 379.488 432.022 381.65 433.532 383.482C435.239 385.546 435.954 387.932 436.204 390.452C436.383 392.328 437.303 393.418 438.777 394.321C442.218 396.439 445.819 398.369 449.84 398.86C464.369 400.647 478.264 398.369 491.418 391.837C492.267 391.417 493.822 391.265 493.268 389.889C492.383 387.682 493.545 385.805 493.777 383.786C494.018 381.731 494.965 379.041 493.357 377.88C491.927 376.843 490.158 379.273 488.451 379.979C487.629 380.319 486.879 380.81 486.074 381.212C475.834 386.35 464.146 384.706 456.336 377.049C448.339 369.203 446.123 357.051 450.867 347.007C455.559 337.089 466.058 331.191 477.192 332.567C479.971 332.907 480.561 332.022 480.534 329.619C480.463 324.695 480.507 319.79 480.507 314.875ZM494.608 400.54C494.402 400.46 494.233 400.317 494.134 400.361C472.894 410.039 451.806 413.068 431.039 399.066C429.323 397.913 428.305 398.476 428.358 400.719C428.439 404.436 428.26 408.162 428.439 411.879C428.662 416.553 426.214 422.843 429.422 425.488C432.719 428.196 438.84 426.185 443.728 425.988C453.405 425.613 462.779 423.272 472.278 421.548C467.586 424.639 461.939 425.041 456.89 427.293C468.399 427.686 479.855 427.686 491.311 427.686C492.973 427.686 494.653 427.901 494.626 425.336C494.572 417.071 494.608 408.788 494.608 400.54ZM142.271 203.905C135.605 205.522 133.059 209.847 131.075 214.511C128.037 221.642 126.187 229.156 124.704 236.743C119.137 265.211 117.984 294.055 117.689 322.944C117.457 345.872 117.68 368.81 117.671 391.739C117.671 392.721 118.44 394.598 116.733 394.464C112.14 394.106 113.391 397.457 113.614 399.495C113.999 403.024 116.179 405.437 119.851 406.134C123.336 406.786 126.375 406.116 128.466 402.971C130.762 399.504 130.664 396.028 128.492 392.507C127.813 391.408 126.223 390.899 125.964 388.924C130.842 391.354 133.452 394.544 132.79 399.763C132.227 404.23 128.868 408.162 124.516 409.306C120.325 410.405 115.777 408.788 113.016 405.195C109.468 400.585 109.665 396.09 113.838 390.568C114.696 389.424 115.759 388.182 114.606 387.101C113.623 386.19 112.471 387.494 111.604 388.218C107.449 391.703 105.956 396.349 107.011 401.443C108.146 406.911 111.836 410.575 117.162 412.353C123.792 414.578 130.53 412.049 134.175 406.125C137.625 400.513 137.151 393.803 132.773 389.737C130.503 387.628 127.492 384.644 124.713 386.118C121.871 387.628 123.042 391.658 123.596 394.714C123.676 395.152 123.765 395.599 123.926 396.01C124.587 397.69 124.775 399.486 122.863 400.209C120.79 400.996 118.458 401.255 116.599 399.459C116.25 399.119 115.991 398.288 116.161 397.886C116.563 396.957 117.206 397.457 117.93 397.761C121.076 399.092 121.576 397.94 121.165 394.794C120.611 390.532 120.665 386.181 120.674 381.865C120.745 334.39 119.664 286.853 127.447 239.754C129.547 227.101 132.183 214.556 142.271 203.905ZM352.762 186.748C342.298 188.482 339.242 190.921 335.426 200.143C333.604 204.557 332.433 209.159 331.423 213.805C326.375 237.046 321.549 260.315 320.164 284.164C318.842 306.976 320.003 329.699 322.38 352.36C324.427 371.875 326.92 391.354 330.378 410.682C330.61 411.995 330.315 414.56 332.853 414.006C335.007 413.541 333.872 411.468 333.72 410.235C332.692 402.274 331.307 394.357 330.369 386.386C325.964 348.928 324.775 311.292 325.124 273.62C325.311 252.773 327.384 232.052 333.907 212.054C336.919 202.832 341.11 194.406 350.242 189.554C351.207 189.045 352.413 188.482 352.762 186.748ZM668.989 226.815C673.046 231.301 676.388 235.072 678.363 239.808C681.303 246.858 682.759 254.301 683.983 261.771C688.272 287.917 691.186 314.232 693.714 340.592C696.306 367.577 695.171 394.089 683.224 419.153C682.625 420.404 681.705 422.048 683.858 422.879C685.931 423.674 686.888 422.271 687.513 420.636C695.055 401.058 700.13 380.989 698.942 359.785C697.012 325.142 692.624 290.776 686.664 256.606C685.44 249.61 684.323 242.488 681.052 236.046C678.729 231.444 675.602 227.628 668.989 226.815ZM194.143 415.82C195.716 414.104 195.939 412.308 196.467 410.664C201.185 395.983 205.903 381.302 210.54 366.603C211.059 364.95 212.882 362.895 210.54 361.501C208.333 360.178 206.028 358.9 203.142 360.839C197.727 364.485 192.106 367.827 186.45 371.097C184.403 372.277 184.475 373.644 184.922 375.538C187.996 388.808 191.007 402.095 194.143 415.82ZM441.628 204.53C434.256 216.191 424.078 224.206 414.597 232.883C412.837 234.491 412.444 235.268 414.24 237.306C419.646 243.418 424.677 249.86 429.94 256.106C431.271 257.688 432.192 259.778 434.515 260.806C435.578 253.836 436.615 247.242 437.589 240.639C438.563 233.999 439.483 227.351 440.422 220.712C439.841 220.328 439.26 219.935 438.679 219.551C432.88 225.949 427.08 232.355 421.281 238.753C420.977 238.458 420.682 238.154 420.379 237.86C426.348 231.328 432.183 224.68 438.331 218.318C442.048 214.466 442.53 210.168 441.628 204.53ZM351.493 102.299C353.879 104.684 354.844 107.463 355.988 110.144C358.597 116.265 361.081 121.581 368.641 124.253C378.416 127.702 387.138 125.504 390.739 116.068C394.733 105.623 393.241 103.344 381.857 102.281C371.956 101.351 362.064 100.708 351.493 102.299ZM434.31 102.12C428.108 102.272 421.826 101.87 415.705 103.272C413.748 103.719 411.443 103.969 411.917 107.061C412.712 112.208 413.945 117.212 416.393 121.849C417.18 123.342 418.225 124.342 420.102 124.602C438.474 127.166 443.701 123.762 448.544 105.935C448.625 105.649 448.803 105.399 448.884 105.113C449.429 103.219 449.232 102.004 446.748 102.075C442.611 102.209 438.465 102.12 434.31 102.12ZM467.372 215.512C466.711 217.308 467.104 218.273 467.416 219.265C474.994 243.382 481.079 267.794 482.625 293.171C483.626 309.657 484.859 326.107 482.071 342.548C481.875 343.692 479.658 345.747 482.848 346.248C485.324 346.632 487.129 346.105 487.263 342.986C487.441 338.831 488.121 334.694 488.219 330.539C489.005 297.942 485.154 265.917 475.825 234.625C473.904 228.147 471.67 221.704 467.372 215.512ZM447.32 190.028C456.872 201.376 459.848 207.041 461.599 218.764C465.209 242.899 467.291 267.168 468.158 291.571C468.462 300.158 466.13 307.173 460.759 313.713C454.442 321.407 448.517 329.431 443.478 338.054C435.989 350.867 430.771 364.512 428.439 379.193C428.305 380.051 427.375 381.49 429.011 381.74C430.646 381.99 430.19 380.382 430.306 379.497C430.968 374.332 432.156 369.284 433.47 364.253C438.295 345.792 448.678 330.468 461.161 316.528C469.07 307.7 471.715 297.871 471.161 286.228C470.285 267.937 468.882 249.708 466.773 231.542C465.54 220.963 464.432 210.249 460.089 200.295C457.73 194.862 454.236 190.734 447.32 190.028ZM497.03 362.216C497.047 354.915 491.507 348.857 484.823 348.875C478.416 348.884 472.84 355.273 472.885 362.537C472.93 370.588 477.746 375.601 485.476 375.646C491.668 375.681 497.012 369.471 497.03 362.216ZM694.349 410.289C692.723 411.71 692.749 413.783 692.088 415.534C691.105 418.161 690.417 420.922 689.264 423.469C687.924 426.435 685.493 426.971 682.562 425.729C679.766 424.541 678.801 422.477 679.712 419.626C680.159 418.224 680.99 416.946 681.481 415.552C682.241 413.407 684.85 410.619 683.385 409.306C681.526 407.626 678.318 409.252 675.87 410.333C674.806 410.807 673.788 411.495 672.912 412.272C667.434 417.124 666.657 424.55 670.919 430.805C675.11 436.961 682.75 438.82 689.425 435.326C696.02 431.868 699.54 423.549 697.083 417.196C696.198 414.908 695.278 412.639 694.349 410.289ZM700.988 418.179C701.042 423.692 699.996 428.705 696.878 433.137C692.419 439.463 683.787 442.055 676.647 439.222C668.659 436.05 663.914 427.516 665.442 419.063C666.8 411.531 672.992 406.393 681.267 405.928C682.16 405.875 683.054 405.839 683.939 405.884C685.914 406 686.056 404.463 686.173 403.203C686.325 401.612 684.93 401.836 683.956 401.827C678.497 401.809 673.305 402.72 668.882 406.25C660.965 412.549 658.731 423.79 663.646 432.797C668.846 442.341 680.4 446.773 690.399 443.064C700.023 439.499 705.867 428.982 703.892 418.67C703.553 416.883 703.642 413.926 701.542 414.095C699.523 414.274 701.506 416.91 700.988 418.179ZM114.463 344.148C115.938 342.334 115.482 340.466 115.401 338.76C114.731 325.062 115.08 311.345 115.947 297.701C117.707 269.858 117.564 241.684 127.947 214.967C123.56 218.309 122.541 223.42 121.442 228.227C114.052 260.565 110.978 293.367 111.648 326.518C111.702 329.324 111.756 331.951 111.041 334.748C110.112 338.34 111.3 341.664 114.463 344.148ZM353.521 425.569C353.298 419.939 349.688 414.846 343.21 411.879C341.253 410.977 338.045 409.047 336.946 411.37C335.507 414.408 339.457 414.158 341.181 415.016C347.668 418.259 350.689 424.738 348.571 431.323C346.489 437.783 340.466 441.34 333.934 439.955C323.873 437.81 320.343 425.828 327.206 417.187C328.01 416.177 330.199 415.391 328.233 413.72C326.473 412.219 325.544 414.176 324.632 415.105C318.797 421.011 317.85 428.955 322.041 435.925C326.026 442.564 333.916 445.79 341.208 443.779C348.803 441.67 353.548 435.281 353.521 425.569ZM335.927 416.633C330.574 416.624 326.589 420.752 326.562 426.328C326.535 432.288 331.039 436.943 336.794 436.935C342.048 436.926 346.435 432.208 346.328 426.685C346.212 421.244 341.458 416.642 335.927 416.633ZM482.009 378.675C478.55 377.567 475.87 376.432 472.796 376.423C469.784 376.414 467.014 375.315 464.512 373.537C458.043 368.935 454.996 360.223 457.23 352.592C459.58 344.577 466.746 339.501 475.816 339.314C477.183 339.287 479.498 340.592 479.444 337.679C479.39 335.257 477.148 335.695 475.727 335.614C470.83 335.337 466.326 336.794 462.198 339.349C452.333 345.47 449.053 358.087 454.513 368.738C459.616 378.711 471.312 383.169 482.009 378.675ZM249.286 250.396C250.519 247.027 252.69 245.66 255.112 244.499C258.222 243.006 263.574 242.783 263.896 239.942C264.164 237.574 259.848 234.607 257.408 232.043C252.11 226.476 246.614 221.097 239.725 215.324C244.505 227.173 246.784 238.315 249.286 250.396ZM472.876 373.626C473.1 372.59 472.17 372.134 471.768 371.437C467.095 363.413 468.399 355.139 475.351 348.982C476.013 348.392 476.683 347.794 477.407 347.275C478.819 346.266 479.194 344.818 478.649 343.353C478.121 341.95 476.602 342.459 475.503 342.441C467.667 342.316 460.697 348.374 459.821 356.014C458.829 364.646 464.289 372.027 472.876 373.626ZM498.37 394.696C496.994 393.302 496.225 392.078 494.161 393.499C488.085 397.69 481.124 400.004 473.966 401.3C460.679 403.703 447.579 403.936 436.061 395.152C434.837 394.223 434.131 394.687 433.47 395.518C432.29 396.993 433.684 397.6 434.613 398.253C440.868 402.667 447.99 404.641 455.487 405.169C470.723 406.25 484.975 402.971 498.37 394.696ZM297.253 589.75C308.995 586.444 321.603 586.426 333.657 583.049C332.058 582.45 330.494 582.244 328.93 582.253C319.878 582.316 310.817 582.593 301.774 582.459C297.673 582.396 294.519 582.441 296.717 587.918C296.887 588.383 296.342 589.044 297.253 589.75ZM533.344 588.919C533.782 593.181 534.033 596.219 534.426 599.249C535.587 608.256 535.614 608.256 544.416 609.605C544.559 609.632 544.711 609.676 544.854 609.676C545.98 609.703 547.329 610.329 548.088 609.06C548.696 608.041 547.883 607.076 547.436 606.156C544.291 599.615 538.947 594.951 533.344 588.919ZM630.083 232.194C640.859 231.739 648.339 227.298 654.96 221.043C655.559 220.48 655.907 219.506 656.077 218.657C656.336 217.388 656.783 215.807 655.478 214.967C654.209 214.145 653.387 215.628 652.458 216.245C649.607 218.13 646.802 220.087 643.978 222.017C639.617 224.983 634.899 227.494 630.083 232.194ZM464.977 294.484C464.977 288.908 464.986 284.494 464.977 280.089C464.977 278.597 464.709 277.498 462.707 277.81C458.731 278.436 454.737 278.883 450.859 279.392C455.505 284.369 459.893 289.051 464.977 294.484ZM138.947 312.337C134.292 312.963 130.092 313.526 125.892 314.071C124.981 314.187 123.971 314.294 123.908 315.42C123.622 320.594 123.417 325.767 123.131 332.103C128.886 324.91 133.764 318.816 138.947 312.337ZM556.595 266.668C561.331 254.542 565.12 242.363 574.914 232.918C564.861 235.188 552.708 257.616 556.595 266.668ZM344.157 116.265C344.478 116.175 344.8 116.095 345.122 116.006C344.863 114.272 344.603 112.539 344.344 110.796C344.21 109.921 343.96 108.848 345.131 108.607C346.239 108.375 346.623 109.447 346.891 110.251C347.945 113.432 348.919 116.649 349.849 119.607C348.678 121.027 345.801 118.088 346.409 120.938C347.552 126.29 349.473 131.527 353.173 135.878C352.476 128.918 351.27 122.118 350.171 115.3C349.652 112.083 349.348 108.777 347.517 106.016C346.534 104.532 345.488 102.236 343.049 103.424C341.047 104.398 340.69 106.391 341.369 108.437C342.236 111.082 343.218 113.665 344.157 116.265ZM436.49 180.86C436.624 179.198 436.686 177.607 434.247 178.867C428.921 181.61 424.704 185.73 420.665 190.037C420.075 190.662 419.735 191.52 420.218 192.476C420.718 193.468 421.594 193.432 422.488 193.441C427.42 193.477 436.079 185.703 436.49 180.86ZM519.101 490.128C520.566 484.65 521.755 479.861 523.149 475.134C524.748 469.71 524.811 469.657 518.985 470.425C517.457 470.63 514.812 469.826 514.883 472.543C515.035 478.404 515.947 484.168 519.101 490.128ZM433.729 389.969C433.621 386.234 430.994 383.634 427.438 383.982C423.962 384.331 422.13 386.315 422.175 389.916C422.219 393.41 424.65 396.046 427.885 396.054C431.03 396.054 433.818 393.159 433.729 389.969ZM507.064 387.601C506.93 383.929 504.437 381.347 501.372 381.507C497.7 381.695 496.207 383.982 496.27 387.441C496.324 390.595 499.004 393.195 502.016 392.838C505.268 392.453 506.948 390.434 507.064 387.601ZM452.27 115.755C450.117 121.832 450.59 127.175 450.465 132.447C450.447 133.144 450.412 134.073 451.323 134.279C452.512 134.547 453.352 133.85 453.727 132.804C455.961 126.585 457.855 120.268 458.704 113.691C458.758 113.271 458.105 112.762 457.837 112.387C454.343 113.915 456.202 118.061 453.745 120.411C453.298 118.99 452.949 117.9 452.27 115.755ZM258.508 624.34C258.606 623.973 258.695 623.616 258.793 623.25C257.632 622.159 256.604 620.873 255.291 620.024C253.218 618.675 252.798 614.555 250.099 615.342C247.883 615.985 246.31 618.871 244.461 620.765C244.255 620.98 244.067 621.203 243.88 621.436C242.361 623.384 242.879 624.34 245.309 624.34C249.706 624.349 254.111 624.34 258.508 624.34ZM719.029 403.426C720.566 403.337 722.729 402.425 722.845 399.486C722.97 396.376 720.986 394.92 718.073 394.946C715.553 394.964 713.659 396.376 713.713 398.958C713.748 401.416 714.821 403.587 719.029 403.426ZM679.256 157.806C680.856 154.16 681.606 151.23 681.517 148.066C681.472 146.547 680.892 145.484 679.328 145.18C677.925 144.912 676.745 145.109 675.95 146.574C674.333 149.559 673.216 152.65 673.028 156.537C675.003 154.956 674.36 151.355 677.005 151.846C679.149 152.257 678.452 155.081 679.256 157.806ZM685.199 610.087C685.234 610.311 685.279 610.525 685.315 610.749C687.013 611.267 688.71 611.776 690.399 612.312C692.231 612.893 694.054 613.501 695.886 614.073C698.727 614.975 702.293 611.919 701.909 608.979C701.766 607.88 701.033 607.97 700.318 608.059C695.269 608.72 690.238 609.408 685.199 610.087ZM670.884 139.283C657.23 136.325 643.63 136.298 630.047 139.488C643.674 137.71 657.301 137.076 670.884 139.283ZM472.206 251.701C472.59 257.866 472.983 264.023 473.359 270.188C473.43 271.35 473.761 272.27 475.155 272.136C476.826 271.967 476.254 270.805 476.147 269.804C475.521 263.657 474.333 257.616 472.206 251.701ZM676.656 161.765C674.091 165.08 670.338 166.938 670.651 171.477C670.705 172.282 670.24 173.363 671.446 173.693C672.42 173.962 673.251 173.417 673.689 172.639C675.468 169.476 677.63 166.393 676.656 161.765ZM453.923 108.598C458.919 102.531 459.437 108.366 461.572 111.011C461.572 107.973 461.858 105.694 461.465 103.549C461.224 102.245 460.447 99.8323 458.213 101.584C456.318 103.076 454.022 104.488 453.923 108.598ZM700.452 411.45C704.339 409.216 707.922 407.17 711.497 405.115C712.319 404.641 713.096 403.909 712.524 403.015C711.818 401.907 711.041 402.908 710.335 403.328C708.056 404.686 705.796 406.071 703.472 407.358C701.989 408.171 699.898 408.341 700.452 411.45ZM624.346 145.815C618.717 143.545 613.587 143.706 609.87 146.521C615.008 144.34 619.181 146.27 624.346 145.815ZM408.432 107.588C404.759 104.756 401.229 107.338 397.601 107.588C401.211 107.588 404.822 107.588 408.432 107.588ZM595.198 139.435C595.198 139.372 595.198 139.318 595.198 139.256C590.212 139.256 585.234 139.256 580.248 139.256C580.248 139.318 580.257 139.372 580.257 139.435C585.234 139.435 590.221 139.435 595.198 139.435Z" fill="#041C33"/>
<path d="M74.0557 399.334C73.6804 391.685 73.4928 384.018 72.8852 376.387C71.0355 353.262 69.427 330.092 63.9762 307.432C60.7057 293.859 55.2639 281.251 47.6059 269.581C46.5604 267.981 45.6937 266.257 45.1129 264.273C47.7936 265.935 49.6701 268.366 51.3857 270.921C60.25 284.083 65.3345 298.72 68.3726 314.187C72.492 335.15 73.0371 356.452 74.5204 377.674C76.2003 401.728 77.8981 425.783 79.5691 449.837C79.8283 453.537 79.998 457.236 80.5074 460.935C82.9379 434.71 84.1442 408.448 83.2328 382.079C85.002 385.975 84.9574 390.175 85.0914 394.214C86.2262 428.49 85.7973 462.687 79.2653 496.526C78.4164 500.931 78.9257 504.675 83.903 506.373C84.3408 506.525 84.6982 507.159 84.9306 507.65C86.8875 511.77 88.7997 515.907 91.0247 520.687C88.1564 519.24 87.6202 516.622 85.6454 515.255C83.1166 520.446 81.4188 525.495 83.8761 531.079C85.2165 534.126 83.7421 536.932 82.6162 539.658C81.9103 541.364 81.4188 542.883 82.1694 544.76C86.6998 556.108 89.2197 568.055 92.3026 579.832C93.0264 582.611 94.1433 583.281 96.8151 583.245C112.748 583.075 128.68 583.299 144.568 584.755C145.14 584.809 145.694 584.961 146.257 585.059C146.248 585.488 146.239 585.926 146.23 586.355C131.271 586.355 116.322 586.355 101.363 586.355C100.023 586.355 98.6648 586.221 97.3512 586.381C96.27 586.507 94.2505 585.47 94.5722 587.901C94.7956 589.598 95.0548 591.493 97.7444 591.117C102.016 590.519 106.305 590.125 110.594 589.643C122.997 588.267 135.435 587.302 148.66 586.605C146.328 589.098 143.817 588.785 141.673 589.116C127.974 591.216 114.15 591.993 100.336 592.77C96.976 592.958 95.8054 593.369 96.7526 597.345C102.454 621.185 107.788 645.115 113.266 669.008C113.623 670.563 114.258 672.082 112.971 674.218C109.995 666.185 108.244 658.295 106.162 650.512C97.4317 617.817 91.0873 584.505 81.0971 552.132C79.3904 546.6 77.3441 541.48 80.4448 535.583C82.1962 532.25 77.0314 527.389 72.3669 527.586C59.5798 528.122 46.8464 529.373 33.8895 531.321C34.5865 533.805 36.7132 535.342 37.857 537.451C38.9472 539.461 40.0373 538.022 41.0918 537.361C44.1835 535.431 46.9 532.795 50.8675 532.348C41.5654 539.112 33.3534 546.833 27.7149 557.001C28.537 551.676 31.1909 547.262 34.7921 543.509C37.026 541.185 36.9456 539.47 35.1048 537.066C33.4249 534.868 31.5662 532.679 30.8425 529.703C43.8797 525.718 57.2655 525.218 70.5976 524.86C75.9144 524.717 78.6577 522.153 80.981 517.962C82.5626 515.112 81.7137 513.575 79.0866 512.359C75.0566 510.492 71.0355 508.589 66.9697 506.685C67.4522 504.997 68.9802 504.434 70.267 504.023C75.7267 502.271 76.7275 498.491 76.7901 493.139C77.1207 464.519 75.4229 435.987 74.163 407.429C74.0289 404.347 72.5277 402.068 70.8925 399.798C62.9754 388.79 54.4328 378.291 45.0592 368.479C44.0495 367.416 43.0844 366.308 42.4232 364.932C54.8528 374.511 64.3068 386.797 74.0557 399.334ZM84.1263 513.941C83.0987 509.688 80.2661 507.177 77.0314 504.979C75.6284 504.032 74.4579 504.621 73.3677 505.399C72.5635 505.971 72.8226 506.65 73.6626 507.061C77.4245 508.937 80.6593 511.609 84.1263 513.941Z" fill="#041C33"/>
<path d="M3.76713 509.044C11.291 524.405 14.5705 539.675 17.3763 555.134C24.8734 596.47 32.2543 637.832 43.7367 678.31C43.8887 678.846 43.8529 679.427 43.5044 680.115C39.4565 672.547 37.9642 664.04 34.5508 655.105C32.4688 663.728 30.628 671.367 28.7872 679.007C28.4834 678.936 28.1796 678.864 27.8668 678.793C29.2966 670.063 30.5744 661.306 32.2275 652.621C32.9156 648.993 32.6832 645.651 31.736 642.13C24.1228 613.724 18.7434 584.827 13.0961 555.992C10.4153 542.302 8.12777 528.533 4.80367 514.969C4.41944 513.423 4.24072 511.814 3.76713 509.044Z" fill="#041C33"/>
<path d="M331.665 293.537C339.501 294.171 347.347 294.752 355.183 295.458C358.57 295.762 358.132 297.522 356.56 299.631C351.413 306.547 346.391 313.553 341.11 320.37C339.367 322.613 339.457 324.284 340.699 326.733C353.119 351.243 365.933 375.565 376.308 401.049C380.105 410.378 383.179 419.957 385.19 429.893C381.866 421.691 378.64 413.452 375.2 405.303C363.869 378.469 350.349 352.681 337.08 326.786C335.748 324.186 335.516 322.381 337.357 319.995C341.619 314.464 345.64 308.745 349.697 303.053C350.412 302.044 352.172 301.23 351.386 299.774C350.698 298.514 348.973 298.988 347.677 298.791C346.498 298.612 345.309 298.362 344.139 298.398C339.43 298.523 336.347 294.154 331.665 293.537Z" fill="#041C33"/>
<path d="M10.1294 505.702C5.79554 499.742 2.48038 493.702 2.32847 485.964C1.837 460.667 0.737906 435.38 0.139211 410.092C-0.316513 390.523 0.166018 370.981 4.34795 351.198C5.98319 355.425 6.68912 359.338 6.21552 363.27C2.37315 395.465 3.48118 427.767 3.90116 460.051C3.94584 463.178 3.95478 466.306 4.00839 469.424C4.20498 481.809 2.75739 494.462 10.1294 505.702Z" fill="#041C33"/>
<path d="M680.025 629.406C694.662 638.404 708.244 648.868 721.871 659.34C713.033 656.963 704.741 653.148 696.002 650.208C707.609 662.682 719.387 674.906 728.573 689.372C714.731 674.406 700.881 659.447 687.039 644.48C687.164 644.248 687.29 644.025 687.415 643.792C693.839 646.464 700.264 649.136 706.689 651.808C698.066 643.9 688.407 637.439 680.025 629.406Z" fill="#041C33"/>
<path d="M660.822 616.905C662.788 638.717 663.011 660.118 662.555 681.59C662.1 677.042 661.483 672.493 661.206 667.927C660.205 651.593 659.732 635.25 659.464 618.889C659.41 615.878 660.062 615.476 663.047 616.146C682.33 620.435 701.247 625.903 719.691 632.98C720.647 633.347 721.585 633.74 722.407 634.526C701.891 629.397 681.624 623.366 660.822 616.905Z" fill="#041C33"/>
<path d="M48.7229 518.042C40.4752 516.416 31.9505 515.782 23.9083 512.842C38.5272 513.503 53.0031 515.406 67.6846 516.354C57.0957 515.925 47.8383 520.884 37.9285 522.868C30.5386 524.342 22.9343 524.807 15.4283 522.591C26.4729 521.009 37.6783 520.857 48.7229 518.042Z" fill="#041C33"/>
<path d="M683.965 530.579C694.376 508.875 701.158 486.339 705.921 463.116C705 484.659 698.432 504.648 689.023 523.886C690.435 524.262 690.828 523.234 691.498 522.778C692.195 522.296 692.803 521.688 693.866 521.626C690.569 524.61 687.263 527.595 683.965 530.579Z" fill="#041C33"/>
<path d="M286.36 611.83C308.074 600.115 330.95 591.43 355.594 587.811C332.245 594.96 309.138 602.805 286.36 611.83Z" fill="#041C33"/>
<path d="M452.208 671.984C448.946 643.587 446.659 615.181 444.755 586.212C448.464 599.231 453.209 653.604 452.208 671.984Z" fill="#041C33"/>
<path d="M591.48 76.9931C605.688 62.723 641.726 67.2891 655.148 85.2048C645.729 78.6998 635.846 73.3653 624.364 71.5781C612.81 69.7642 602.025 72.1679 591.48 76.9931Z" fill="#041C33"/>
<path d="M83.7957 332.389C77.5407 309.138 71.2767 285.897 64.9055 262.227C70.6066 270.591 83.8672 319.146 83.7957 332.389Z" fill="#041C33"/>
<path d="M150.635 670.626C148.955 646.866 149.018 623.098 149.402 599.32C151.752 623.053 151.734 646.839 150.635 670.626Z" fill="#041C33"/>
<path d="M501.086 481.639C491.802 502.021 483.117 522.466 479.766 544.733C479.39 521.134 489.631 501.11 501.086 481.639Z" fill="#041C33"/>
<path d="M55.666 498.098C54.1826 496.713 52.4402 495.507 51.2696 493.899C47.4272 488.582 42.3517 486.634 35.9358 487.295C33.6304 487.537 31.2356 487.197 27.7775 485.83C33.6751 485.83 38.2949 485.83 42.8789 485.83C38.1698 475.116 27.7149 473.061 18.5469 469.085C27.7507 470.085 36.2843 471.881 42.3964 480.004C46.8464 485.91 51.9844 491.325 55.666 498.098Z" fill="#041C33"/>
<path d="M343.504 684.476C322.291 686.754 300.934 687.496 279.533 687.398C284.314 686.334 289.148 685.968 294.027 685.798C296.297 685.718 298.924 686.236 300.389 683.618C301.176 685.048 302.418 685.173 303.928 685.101C310.013 684.824 316.107 684.583 322.193 684.503C329.297 684.395 336.401 684.476 343.504 684.476Z" fill="#041C33"/>
<path d="M604.5 78.2977C624.033 75.0005 641.056 80.3618 655.568 93.8723C650.385 91.0934 645.256 88.2072 640.002 85.5801C634.524 82.8459 628.716 80.9605 622.657 80.0401C616.626 79.1197 610.523 78.8249 604.5 78.2977Z" fill="#041C33"/>
<path d="M50.653 465.618C52.8959 472.328 56.3987 478.395 57.328 485.365C52.5117 477.913 49.9471 469.612 47.7936 460.113C57.5782 468.647 65.3881 477.699 72.5188 487.385C64.423 480.924 57.7212 473.07 50.653 465.618Z" fill="#041C33"/>
<path d="M517.895 679.258C499.308 678.838 480.829 680.562 461.796 683.1C471.858 678.167 504.134 675.933 517.895 679.258Z" fill="#041C33"/>
<path d="M306.198 677.908C307.887 674.727 310.907 672.869 314.204 669.991C310.183 669.652 306.993 668.419 304.402 671.242C302.212 673.628 300.291 676.246 297.959 678.56C298.593 676.067 300.282 674.254 301.926 672.422C303.633 670.51 303.186 669.598 300.684 669.58C297.423 669.562 294.161 669.571 290.855 669.053C303.392 667.159 316.867 672.136 328.537 663.585C320.951 668.347 313.275 672.556 306.198 677.908Z" fill="#041C33"/>
<path d="M449.339 585.881C456.381 585.309 484.698 591.671 493.259 595.746C487.665 596.112 455.809 588.964 449.339 585.881Z" fill="#041C33"/>
<path d="M295.743 446.96C304.732 459.872 312.998 473.168 319.065 487.706C310.12 474.785 302.409 461.159 295.743 446.96Z" fill="#041C33"/>
<path d="M88.4781 471.31C91.2035 486.795 95.5194 501.86 100.541 517.229C94.7688 510.572 88.2993 485.875 88.4781 471.31Z" fill="#041C33"/>
<path d="M185.449 507.096C185.404 511.109 182.026 514.316 177.934 514.236C173.931 514.156 170.696 510.805 170.696 506.739C170.696 502.718 174.1 499.18 177.952 499.189C181.848 499.189 185.494 503.031 185.449 507.096ZM172.814 506.766C173.01 510.34 175.146 511.984 178.282 511.931C181.329 511.886 183.295 509.866 183.206 506.819C183.117 503.719 181.41 501.53 177.934 501.565C174.511 501.619 172.948 503.576 172.814 506.766Z" fill="#041C33"/>
<path d="M188.97 615.485C189.05 619.345 185.601 622.713 181.508 622.767C177.728 622.812 174.038 619.148 174.056 615.368C174.074 611.508 177.585 608.104 181.58 608.095C185.449 608.086 188.889 611.517 188.97 615.485ZM186.619 615.824C186.584 612.259 184.948 610.213 181.508 610.284C178.47 610.347 176.433 611.928 176.397 615.234C176.361 618.684 178.256 620.489 181.589 620.551C184.77 620.614 186.548 618.925 186.619 615.824Z" fill="#041C33"/>
<path d="M641.842 93.917C650.894 95.9632 666.094 107.696 671.965 117.221C661.912 109.465 653.021 100.181 641.842 93.917Z" fill="#041C33"/>
<path d="M32.2364 315.992C41.0828 326.679 51.8236 335.257 62.3231 344.085C49.3663 337.875 39.5369 328.261 32.2364 315.992Z" fill="#041C33"/>
<path d="M592.714 66.5028C599.424 56.6469 610.871 53.0369 622.353 57.6923C610.925 58.0676 600.791 58.9522 592.714 66.5028Z" fill="#041C33"/>
<path d="M101.605 458.416C104.723 470.443 105.626 482.783 106.501 495.114C103.776 483.033 102.516 470.747 101.605 458.416Z" fill="#041C33"/>
<path d="M292.258 405.598C298.459 418.277 305.009 429.902 311.961 441.617C306.939 437.39 293.974 413.872 292.258 405.598Z" fill="#041C33"/>
<path d="M198.844 71.0956C189.702 72.6683 181.705 69.4336 173.957 65.216C182.25 67.1193 190.48 69.2817 198.844 71.0956Z" fill="#041C33"/>
<path d="M507.475 570.101C497.887 573.943 487.861 572.96 477.871 572.478C487.736 571.682 497.61 570.896 507.475 570.101Z" fill="#041C33"/>
<path d="M45.229 401.183C54.0933 400.326 61.9031 402.917 68.8373 408.314C61.0632 405.633 53.3963 402.604 45.229 401.183Z" fill="#041C33"/>
<path d="M502.087 650.449C503.928 650.36 505.778 650.271 508.092 650.154C503.892 645.133 498.835 641.639 494.662 637.234C500.854 640.87 506.376 645.267 510.978 651.236C507.735 651.799 504.947 650.691 502.087 650.449Z" fill="#041C33"/>
<path d="M229.314 60.2747C221.102 60.4713 214.204 57.2813 208.047 52.1701C215.133 54.8776 222.219 57.5761 229.314 60.2747Z" fill="#041C33"/>
<path d="M233.773 54.69C240.69 58.3893 242.781 64.3493 241.405 72.1232C238.733 69.4247 240.082 65.7522 238.608 63.0447C237.08 60.2211 235.391 57.4779 233.773 54.69Z" fill="#041C33"/>
<path d="M509.629 499.474C506.144 505.747 502.659 512.029 499.165 518.302C500.952 511.126 504.241 504.755 509.629 499.474Z" fill="#041C33"/>
<path d="M202.677 61.4184C209.727 63.5183 215.795 65.3769 221.96 68.5669C216.483 68.7188 208.986 65.9577 202.677 61.4184Z" fill="#041C33"/>
<path d="M152.145 72.007C146.132 72.9274 140.091 73.0436 134.113 71.7122C140.136 70.8901 146.132 70.5506 152.145 72.007Z" fill="#041C33"/>
<path d="M64.557 334.024C59.0437 334.462 54.1469 332.433 49.268 330.334C54.683 330.307 59.6692 331.996 64.557 334.024Z" fill="#041C33"/>
<path d="M12.6403 514.298C8.05629 510.108 4.86622 505.041 3.52586 498.903C6.18872 504.246 9.8345 508.982 12.6403 514.298Z" fill="#041C33"/>
<path d="M146.257 61.0253C149.715 64.1527 153.164 67.2891 156.622 70.4165C150.993 69.7196 148.321 65.636 146.257 61.0253Z" fill="#041C33"/>
<path d="M682.661 129.918C680.472 125.683 678.273 121.447 676.084 117.212C680.632 120.223 682.152 124.771 682.661 129.918Z" fill="#041C33"/>
<path d="M124.167 640.379C121.987 638.065 119.807 635.759 117.626 633.445C117.725 633.329 117.832 633.204 117.93 633.088C120.263 635.223 122.595 637.368 124.918 639.503C124.668 639.798 124.418 640.093 124.167 640.379Z" fill="#041C33"/>
<path d="M613.865 537.772C610.835 539.55 607.511 539.381 603.034 539.041C607.198 537.379 610.505 537.638 613.865 537.772Z" fill="#041C33"/>
<path d="M443.853 58.8361C442.638 55.2708 439.456 53.4033 436.999 50.9102C443.978 52.3667 453.977 64.7603 455.157 74.1248C451.591 68.549 449.089 63.0804 444.398 59.2739C444.201 59.1399 444.023 58.9969 443.853 58.8361Z" fill="#041C33"/>
<path d="M591.248 150.309C592.294 149.853 593.303 148.951 594.501 149.782C594.742 149.952 594.849 150.649 594.715 150.97C594.152 152.293 592.91 152.266 591.722 152.275C591.579 152.275 591.427 152.284 591.284 152.266C589.774 152.141 587.334 152.534 587.611 150.488C587.826 148.871 590.033 149.791 591.4 150.184C591.4 150.193 591.248 150.309 591.248 150.309Z" fill="#041C33"/>
<path d="M234.354 539.506C228.716 535.699 224.713 530.266 220.575 525.075C209.173 510.778 199.147 495.543 190.256 479.557C189.845 478.824 189.524 478.047 189.935 476.85C194.09 482.863 198.272 488.859 202.4 494.899C212.202 509.232 221.889 523.645 233.076 536.959C233.711 537.71 234.747 538.335 234.274 539.604L234.354 539.506Z" fill="#041C33"/>
<path d="M240.985 440.285C218.181 438.212 204.223 412.228 212.229 386.431C210.246 410.557 214.74 431.189 240.985 440.285Z" fill="#041C33"/>
<path d="M241.226 454.073C227.08 455.127 216.161 460.828 206.448 470.496C210.943 459.3 229.645 450.302 241.226 454.073Z" fill="#041C33"/>
<path d="M234.265 539.604C244.425 532.295 256.274 532.902 268.39 541.838C264.539 540.658 260.679 539.515 256.837 538.308C250.34 536.271 243.96 536.307 237.723 539.264C236.624 539.783 235.543 540.283 234.354 539.497C234.354 539.506 234.265 539.604 234.265 539.604Z" fill="#041C33"/>
<path d="M274.869 546.743C266.183 552.149 257.775 556.653 248.446 560.888C252.136 556.313 268.274 547.708 274.869 546.743Z" fill="#041C33"/>
<path d="M221.228 436.604C213.963 432.896 207.806 427.865 203.16 421.038C209.995 425.265 215.384 431.198 221.228 436.604Z" fill="#041C33"/>
<path d="M235.114 319.87C241.851 323.971 248.589 328.064 255.326 332.165C247.204 330.289 240.359 326.33 235.114 319.87Z" fill="#041C33"/>
<path d="M784.448 516.327C780.025 511.153 776.048 506.498 772.072 501.842C781.544 507.936 787.772 516.649 792.437 526.719C789.077 523.958 785.753 521.152 782.339 518.454C777.156 514.352 771.232 512.225 764.602 512.19C757.31 512.154 750.019 512.163 742.727 512.199C738.894 512.216 735.373 511.43 731.807 507.901C742.593 511.135 752.699 508.794 762.761 509.134C771.795 509.447 773.296 509.938 784.448 516.327Z" fill="#041C33"/>
<path d="M747.999 286.889C742.021 305.52 734.515 323.534 726.133 341.208C731.486 322.327 739.171 304.385 747.999 286.889Z" fill="#041C33"/>
<path d="M718.466 388.432C725.043 372.009 734.006 356.818 742.781 341.53C736.07 357.882 729.082 374.091 718.466 388.432Z" fill="#041C33"/>
<path d="M707.547 341.297C709.951 325.964 717.081 312.936 727.152 301.365C719.557 314.151 712.917 327.421 707.547 341.297Z" fill="#041C33"/>
<path d="M750.528 579.93C741.556 581.512 732.71 582.146 723.747 581.279C730.36 578.902 737.383 580.305 745.023 579.322C740.109 577.017 735.346 576.24 731.504 573.461C738.349 574.149 744.335 577.339 750.528 579.93Z" fill="#041C33"/>
<path d="M779.873 555.348C769.114 555.768 758.49 553.302 747.695 553.141C758.651 549.871 769.204 553.043 779.873 555.348Z" fill="#041C33"/>
<path d="M790.453 498.375C780.597 497.741 770.928 499.037 761.349 501.199C770.642 496.133 780.32 494.953 790.453 498.375Z" fill="#041C33"/>
<path d="M759.026 532C763.851 538.791 768.9 545.492 774.511 552.176C769.534 550.729 763.521 543.017 759.026 532Z" fill="#041C33"/>
<path d="M763.065 561.55C755.657 563.364 748.097 563.069 740.547 562.872C747.963 561.308 755.469 561.005 763.065 561.55Z" fill="#041C33"/>
<path d="M759.464 485.392C756.685 489.806 754.978 494.899 751.082 498.84C752.288 493.925 755.478 488.609 759.464 485.392Z" fill="#041C33"/>
<path d="M665.96 252.496C657.167 263.898 646.257 272.932 634.229 280.652C629.708 283.556 625.258 287.121 618.422 286.165C640.323 274.692 659.571 261.28 670.571 238.789C670.374 243.9 668.694 248.475 665.835 252.657C665.826 252.657 665.96 252.496 665.96 252.496Z" fill="#041C33"/>
<path d="M591.293 293.519C596.091 296.745 600.952 299.881 605.679 303.214C608.003 304.858 610.397 305.591 613.203 305.171C624.525 303.5 635.4 301.284 642.11 290.284C644.773 285.915 648.249 281.921 652.253 278.481C652.467 278.793 652.78 279.07 652.726 279.195C646.355 295.708 629.252 307.414 611.577 307.396C609.763 307.396 607.976 307.199 606.412 306.27C600.666 302.875 595.609 298.595 590.471 294.413C590.739 294.118 591.016 293.823 591.293 293.519Z" fill="#041C33"/>
<path d="M653.986 376.575C656.256 365.656 660.312 355.344 664.128 344.952C662.323 355.996 659.231 366.639 653.986 376.575Z" fill="#041C33"/>
<path d="M629.073 262.415C633.764 256.919 635.802 250.083 638.813 243.301C639.76 251.102 635.328 259.966 629.073 262.415Z" fill="#041C33"/>
<path d="M612.283 265.033C605.59 263.004 602.668 257.598 603.294 248.404C605.554 254.328 607.627 260.359 612.283 265.033Z" fill="#041C33"/>
<path d="M657.998 375.941C660.143 370.526 662.296 365.102 664.441 359.687C663.717 365.647 661.519 371.044 657.998 375.941Z" fill="#041C33"/>
<path d="M518.627 310.622C523.435 288.783 528.975 267.329 538.491 247.188C538.849 247.304 539.206 247.43 539.573 247.546C532.585 268.571 525.606 289.596 518.627 310.622Z" fill="#041C33"/>
<path d="M516.09 325.24C523.229 315.76 546.4 298.666 555.407 295.574C541.914 305.752 529.002 315.501 516.09 325.24Z" fill="#041C33"/>
<path d="M155.469 116.899C157.453 113.093 160.473 111.851 163.699 111.243C171.75 109.742 179.918 109.116 188.076 108.509C189.881 108.375 191.695 108.384 193.143 109.679C193.893 110.349 195.001 111.109 194.563 112.226C194.304 112.896 193.277 113.638 192.544 113.7C180.186 114.835 167.828 115.854 155.469 116.899Z" fill="#041C33"/>
<path d="M191.338 123.485C190.14 123.074 188.827 122.859 187.772 122.216C185.654 120.92 184.278 119.714 184.18 123.824C184.117 126.165 181.133 126.773 178.935 127.041C175.754 127.425 173.672 125.853 172.885 122.538C169.892 124.459 167.488 126.961 163.806 126.085C172.108 118.499 185.887 116.89 191.338 123.485Z" fill="#041C33"/>
<path d="M222.148 165.902C211.8 169.601 201.256 167.278 190.149 169.717C203.991 162.158 209.665 157.663 222.148 165.902ZM216.706 165.098C210.29 161.639 205.268 162.077 200.577 166.232C205.903 165.857 210.916 165.509 216.706 165.098Z" fill="#041C33"/>
<path d="M138.626 156.278C131.933 151.792 131.379 148.969 135.355 142.249C137.562 138.523 134.345 136.888 132.12 135.217C129.886 133.537 127.777 133.796 126.929 137.219C125.633 133.028 126.955 131.294 130.735 131.822C135.042 132.42 139.734 138.693 137.607 141.883C134.024 147.235 135.471 151.587 138.626 156.278Z" fill="#041C33"/>
<path d="M218.779 117.766C216.483 117.659 216.84 119.964 215.455 120.607C216.554 116.193 224.578 113.155 227.804 115.827C229.288 117.051 228.385 121.823 226.392 122.689C224.105 123.681 221.576 123.404 219.467 122.511C217.43 121.644 219.154 119.428 218.779 117.766Z" fill="#041C33"/>
<path d="M194.045 172.058C202.471 175.463 210.8 177.661 219.137 171.451C217.349 175.579 214.454 177.554 208.932 177.875C203.24 178.215 197.977 176.91 194.045 172.058Z" fill="#041C33"/>
<path d="M214.83 147.271C215.464 145.922 215.929 144.93 216.375 143.965C217.707 144.376 217.662 145.314 217.635 146.19C217.591 147.736 217.251 149.192 215.428 149.487C214.427 149.657 213.355 149.657 212.363 149.487C211.112 149.264 209.039 150.702 208.771 148.46C208.575 146.798 210.237 145.636 211.648 144.859C214.043 143.536 213.436 146.422 214.83 147.271Z" fill="#041C33"/>
<path d="M157.909 150.434C162.555 154.813 166.183 159.406 169.945 164.15C165.674 162.524 159.91 156.037 157.909 150.434Z" fill="#041C33"/>
<path d="M171.259 150.256C175.977 148.326 180.704 146.386 185.619 144.376C182.715 148.227 177.728 150.506 171.259 150.256Z" fill="#041C33"/>
<path d="M186.789 128.149C183.635 131.965 179.837 133.644 175.003 131.643C179.292 131.634 182.58 128.48 186.789 128.149Z" fill="#041C33"/>
<path d="M231.021 170.262C232.656 164.955 233.907 160.916 235.158 156.868C236.32 160.719 235.382 164.168 231.021 170.262Z" fill="#041C33"/>
<path d="M198.87 149.523C199.835 146.458 201.453 145.752 203.517 146.315C204.428 146.565 205.644 147.807 204.956 148.602C203.437 150.363 201.212 148.826 198.87 149.523Z" fill="#041C33"/>
<path d="M196.663 150.265C192.83 147.629 192.919 146.226 196.994 142.857C197.289 145.529 194.831 147.763 196.663 150.265Z" fill="#041C33"/>
<path d="M229.868 126.559C227.366 129.856 224.453 129.248 221.451 127.729C224.239 127.202 227.125 127.568 229.868 126.559Z" fill="#041C33"/>
<path d="M370.741 20.9762C397.503 16.5799 421.844 24.5504 445.354 36.4704C437.026 35.1033 429.431 31.3146 421.415 28.8573C413.176 26.3286 404.839 24.2019 396.359 22.8258C387.879 21.4408 379.355 20.0379 370.741 20.9762Z" fill="#041C33"/>
<path d="M425.392 96.7585C421.522 96.7585 417.644 96.5887 413.793 96.821C411.282 96.964 411.354 96.0615 412.22 94.328C413.436 91.8886 415.053 90.3338 418.118 90.593C425.231 91.2006 432.353 91.6742 439.474 92.0137C441.387 92.1031 441.101 93.1932 441.279 94.3459C441.547 96.0437 440.493 96.4994 439.215 96.5172C434.604 96.5798 429.994 96.544 425.383 96.544C425.392 96.6155 425.392 96.687 425.392 96.7585Z" fill="#041C33"/>
<path d="M405.635 15.8472C420.298 15.311 433.461 19.895 445.685 27.7225C432.612 22.8258 419.387 18.4385 405.635 15.8472Z" fill="#041C33"/>
<path d="M386.932 11.6028C396.949 8.5379 407.118 7.86773 417.457 9.88717C407.324 10.9773 397.092 10.6378 386.932 11.6028Z" fill="#041C33"/>
<path d="M411.38 86.8311C411.693 90.5126 409.906 93.7562 409.718 97.2321C409.7 97.6253 408.986 98.2597 408.548 98.3044C407.475 98.4116 407.136 97.4376 406.778 96.6334C405.304 93.3362 407.198 89.1901 411.38 86.8311Z" fill="#041C33"/>
<path d="M450.93 52.8493C445.175 48.6763 439.421 44.5035 433.666 40.3306C440.922 42.3321 446.525 46.782 451.609 52.0004C451.386 52.2863 451.153 52.5722 450.93 52.8493Z" fill="#041C33"/>
<path d="M345.211 67.6197C344.934 60.5159 346.909 53.8858 351.1 47.8811C349.134 54.4666 347.177 61.0431 345.211 67.6197Z" fill="#041C33"/>
<path d="M367.828 42.6538C373.109 44.6554 378.568 45.9421 383.939 47.5505C377.612 49.3286 372.662 46.1208 367.828 42.6538Z" fill="#041C33"/>
<path d="M351.252 70.0859C351.171 63.0894 353.271 56.6826 356.729 50.6332C354.906 57.1204 353.084 63.6076 351.252 70.0859Z" fill="#041C33"/>
<path d="M585.717 453.349C585.681 456.646 583.519 459.068 582.116 461.758C573.26 478.735 562.761 494.837 554.486 512.342C554.969 510.68 555.362 508.991 555.943 507.365C559.187 498.232 563.44 489.547 568.391 481.237C570.053 478.44 569.633 476.939 567.309 474.928C564.173 472.212 561.358 469.111 558.543 466.047C557.06 464.429 555.425 463.464 553.235 463.107C544.684 461.722 536.517 459.05 528.546 455.699C526.437 454.815 525.365 453.617 526.232 451.294C526.562 450.409 526.973 449.766 528.18 450.052C538.867 452.643 548.321 448.855 557.31 443.869C565.558 439.294 565.397 438.999 574.431 442.216C573.26 432.646 568.757 424.389 566.478 415.48C571.482 423.719 575.682 432.27 576.71 442.019C577.005 444.851 575.664 446.326 573.1 444.449C567.774 440.553 563.717 441.84 558.767 445.763C552.762 450.526 545.292 452.527 537.464 452.527C534.712 452.527 531.959 452.527 528.662 452.527C530.655 455.029 533.13 455.279 535.257 455.958C538.929 457.129 542.673 458.478 546.462 458.764C555.648 459.461 561.599 464.805 566.8 471.596C568.042 473.213 569.427 474.723 570.794 476.34C576.406 468.736 579.953 460.31 585.833 453.412C585.824 453.43 585.717 453.349 585.717 453.349Z" fill="#041C33"/>
<path d="M559.928 408.082C550.832 422.119 538.304 431.126 521.746 434.191C536.704 428.714 549.232 419.716 559.928 408.082Z" fill="#041C33"/>
<path d="M523.73 441.769C533.389 440.956 543.058 440.142 552.717 439.329C543.647 446.228 533.443 441.527 523.846 442.948C523.801 442.546 523.765 442.153 523.73 441.769Z" fill="#041C33"/>
<path d="M174.297 402.336C166.639 390.836 161.447 378.21 157.337 365.102C163.422 377.317 169.588 389.487 174.297 402.336Z" fill="#041C33"/>
<path d="M635.435 196.98C624.48 196.461 613.489 197.248 602.48 197.453C612.426 191.011 615.812 187.561 635.435 196.98ZM627.25 194.817C627.215 194.424 627.17 194.04 627.134 193.647C621.496 192.306 615.902 191.815 610.487 194.817C616.072 194.817 621.657 194.817 627.25 194.817Z" fill="#041C33"/>
<path d="M605.956 199.419C614.624 205.415 622.809 204.369 631.245 199.088C629.261 203.896 625.276 206.058 618.806 206.398C612.81 206.71 608.7 204.655 605.956 199.419Z" fill="#041C33"/>
<path d="M636.99 179.877C649.161 186.489 649.929 183.621 660.554 176.222C655.872 187.597 645.712 189.223 636.99 179.877Z" fill="#041C33"/>
<path d="M573.243 175.177C579.837 179.162 585.091 183.549 593.205 183.433C586.959 186.453 580.32 183.549 573.243 175.177Z" fill="#041C33"/>
<path d="M625.007 177.545C620.781 181.056 612.694 181.593 609.459 178.921C608.601 178.215 607.726 177.429 608.307 176.356C609.245 174.632 609.951 176.312 610.63 176.767C615.071 179.698 619.78 177.938 625.007 177.545Z" fill="#041C33"/>
<path d="M608.78 179.868C602.883 178.778 601.962 175.597 605.536 170.235C605.67 173.783 605.465 176.973 608.78 179.868Z" fill="#041C33"/>
<path d="M215.223 241.434C214.57 248.1 212.667 251.531 207.547 254.81C210.576 249.958 213.382 245.955 215.223 241.434Z" fill="#041C33"/>
<path d="M405.84 161.925C398.432 162.015 391.007 162.042 383.715 160.397C382.598 160.147 381.079 160.228 381.204 158.557C381.294 157.315 382.697 157.225 383.599 156.957C387.424 155.822 391.284 154.813 395.126 153.758C395.698 153.606 396.386 153.151 396.815 153.329C403.973 156.412 412.238 153.508 419.217 157.52C420.2 158.083 421.942 158.074 421.925 159.343C421.907 161.068 420.137 161.8 418.726 161.863C414.445 162.042 410.138 161.925 405.84 161.925ZM418.145 158.682C408.11 156.707 398.102 154.822 388.04 158.36C398.057 159.799 408.092 160.094 418.145 158.682Z" fill="#041C33"/>
<path d="M396.056 115.041C398.057 114.781 396.592 112.128 398.817 111.609C400.103 116.792 398.575 121.76 397.664 126.693C397.155 129.427 396.243 132.206 394.921 134.636C392.767 138.586 394.536 139.006 397.95 138.979C401.354 138.961 404.759 139.345 408.155 139.658C409.066 139.747 410.585 139.426 410.558 140.936C410.523 142.616 408.986 142.419 407.851 142.41C404.732 142.392 401.605 142.455 398.504 142.196C393.509 141.776 392.035 140.266 392.705 135.351C393.464 129.793 394.814 124.316 395.966 118.811C396.234 117.507 396.77 116.256 396.199 114.924C396.181 114.924 396.056 115.041 396.056 115.041Z" fill="#041C33"/>
<path d="M414.499 165.5C408.056 169.905 394.367 169.413 390.194 164.892C398.111 167.028 405.751 166.983 414.499 165.5Z" fill="#041C33"/>
<path d="M381.41 164.794C374.771 161.791 373.725 158.137 377.487 153.696C378.979 151.927 380.57 150.247 382.375 148.245C383.188 150.568 381.785 151.319 381.043 152.239C375.995 158.476 375.968 158.458 381.41 164.794Z" fill="#041C33"/>
<path d="M411.157 144.242C417.233 141.374 414.356 136.799 414.427 132.581C417.198 134.565 418.359 136.915 417.591 139.89C416.876 142.687 415.241 144.644 411.157 144.242Z" fill="#041C33"/>
<path d="M390.641 132.778C389.881 137.397 389.908 140.855 393.652 143.018C391.016 143.759 390.042 143.563 389.032 141.669C387.531 138.863 387.745 136.164 390.641 132.778Z" fill="#041C33"/>
<path d="M426.339 139.31C430.208 141.82 432.719 145.404 434.39 149.621C431.093 146.69 428.492 143.188 426.339 139.31Z" fill="#041C33"/>
<path d="M370.151 139.461C374.78 137.826 378.64 135.878 382.339 133.582C378.988 138.193 375.78 139.756 370.151 139.461Z" fill="#041C33"/>
<path d="M405.134 176.195C402.418 175.936 399.701 175.677 396.207 175.338C399.889 172.612 402.605 173.193 405.134 176.195Z" fill="#041C33"/>
<path d="M662.975 133.314C649.876 128.283 637.812 129.507 625.517 133.153C626.294 130.401 628.197 128.792 630.11 127.247C630.878 126.63 632.031 125.888 632.219 127.854C632.281 128.453 632.737 129.23 633.085 128.408C634.89 124.128 638.67 126.299 641.494 125.862C645.569 125.236 649.759 125.165 653.87 126.21C657.453 127.121 660.393 128.855 662.975 133.314Z" fill="#041C33"/>
<path d="M572.215 134.493C577.585 127.488 585.02 127.3 592.034 125.978C594.849 125.451 596.61 126.585 598.075 128.676C598.567 129.373 599.433 130.026 598.951 131.008C598.45 132.027 597.387 131.616 596.565 131.634C588.576 131.795 580.561 131.5 572.215 134.493Z" fill="#041C33"/>
<path d="M418.994 208.247C417.644 213.072 415.035 216.888 410.29 219.015C413.194 215.423 416.089 211.839 418.994 208.247Z" fill="#041C33"/>
<path d="M640.395 141.508C646.105 140.328 650.144 143.742 654.335 146.735C651.868 148.576 650.626 145.323 648.357 145.171C648.044 146.047 647.758 147.012 647.356 147.932C646.882 149.031 646.748 149.076 645.801 147.816C644.988 146.744 644.639 147.852 644.085 148.004C642.102 148.567 640.502 147.718 639.6 146.154C638.643 144.51 638.661 142.651 640.547 141.374C640.547 141.365 640.395 141.508 640.395 141.508Z" fill="#041C33"/>
<path d="M582.598 155.885C587.987 155.822 592.383 156.904 596.779 155.125C593.92 159.557 589.809 159.924 582.598 155.885Z" fill="#041C33"/>
<path d="M364.602 109.903C365.603 106.722 368.122 108.5 369.668 107.865C372.983 106.498 376.433 105.801 379.81 104.809C383.313 103.782 386.566 104.586 388.961 107.839C387.129 107.142 385.297 106.436 383.483 105.748C383.295 106.132 383.143 106.346 383.063 106.588C382.491 108.339 385.931 108.437 384.761 110.081C383.295 112.137 381.249 110.466 379.435 110.269C376.71 109.974 374.172 108.008 371.17 110.564C369.82 111.726 366.88 111.172 364.602 109.903Z" fill="#041C33"/>
<path d="M385.985 117.435C384.028 123.011 381.017 124.325 371.822 123.601C376.513 120.107 382.348 121.188 385.985 117.435Z" fill="#041C33"/>
<path d="M418.404 109.831C419.467 112.405 422.041 110.537 423.408 111.842C420.906 114.022 419.137 114.049 417.314 111.94C414.999 109.268 417.26 107.919 419.012 106.65C423.953 103.076 427.474 103.21 432.898 107.249C434.122 108.16 435.972 107.365 437.169 109.697C430.789 110.573 424.641 108.107 418.404 109.831Z" fill="#041C33"/>
</g>
</svg>
