<svg width="116" height="143" viewBox="0 0 116 143" fill="none" xmlns="http://www.w3.org/2000/svg">
<g opacity="0.12">
<path d="M45.5801 122.587C44.2944 128.624 41.1335 132.974 34.8395 134.484C34.2986 134.613 34.0339 134.975 33.7189 135.354C29.3871 140.568 23.7026 142.589 17.1323 141.958C12.7939 141.541 9.36073 139.082 6.7321 135.74C0.479715 127.792 -1.10764 118.89 2.14941 109.284C3.70926 104.682 6.55111 100.86 11.1256 98.8831C16.946 96.3677 22.4833 97.4069 27.4964 101.126C28.6303 101.967 29.5612 102.911 31.126 102.4C31.4326 102.3 31.8142 102.432 32.1608 102.456C32.2753 102.625 32.3747 102.798 32.2985 103.014C31.6441 103.452 30.8689 103.391 30.162 103.399C28.5237 103.416 27.0929 104.019 25.6708 104.716C25.4506 104.703 25.242 104.674 25.2029 104.397C25.3298 103.858 25.8009 103.668 26.2044 103.409C26.5513 103.186 26.9475 103.021 27.1366 102.614C27.5235 102.514 27.5851 102.398 27.423 102.067C27.9129 102.236 27.9129 102.236 28.2319 102.494C27.0631 101.699 25.9717 100.788 24.6835 100.173C23.2144 99.4057 21.6468 98.9636 20.0043 98.7673C13.6783 98.1568 8.62342 101.91 5.80214 107.548C3.11699 112.915 3.12629 118.422 4.40946 124.108C5.41074 128.545 7.32156 132.494 10.5341 135.675C14.2191 139.324 18.6448 141.324 23.9827 140.518C26.6141 140.12 28.8856 138.86 30.9123 137.165C31.5319 136.647 32.0936 136.058 32.5724 135.573C32.7544 135.375 32.5258 135.337 32.6461 135.41C32.672 135.426 32.6632 135.458 32.6187 135.505C29.9905 138.316 26.8918 140.26 22.9822 140.637C20.5521 140.871 18.2262 140.386 15.9848 139.456C15.7493 139.358 15.5443 139.241 15.4302 139.002C15.3463 138.759 15.4115 138.567 15.6242 138.424C16.1083 138.245 16.5074 138.517 16.9329 138.665C21.1548 140.125 25.2141 139.991 29.0291 137.412C30.0566 136.717 30.8356 135.766 31.8948 134.848C30.4718 134.586 29.1906 134.403 28.0935 133.79C26.1272 132.692 24.0822 132.008 21.8562 131.536C18.4891 130.821 16.2751 128.448 14.8204 125.377C14.6553 125.028 14.5042 124.672 14.3469 124.32C13.9062 123.269 13.957 122.113 13.6556 121.031C13.3893 119.022 13.6635 117.051 14.0919 115.089C14.6192 113.117 15.4681 111.34 16.992 109.911C17.8903 109.069 18.8791 108.437 20.0712 108.157C20.8938 107.964 21.4845 107.525 22.0689 106.903C22.7853 106.139 23.3146 105.076 24.52 104.884C24.7894 105.346 24.4127 105.592 24.1733 105.87C23.8543 106.242 23.4354 106.523 23.184 106.956C20.5744 110.306 19.4057 114.115 19.545 118.339C19.4897 120.97 20.0659 123.432 21.4582 125.688C21.6963 126.074 22.087 126.493 21.5984 126.982C21.0677 127.099 20.6664 126.896 20.3501 126.482C19.714 125.013 18.9516 123.597 18.5769 122.017C18.4635 121.539 18.3084 121.081 18.3519 120.583C18.3383 120.296 18.3124 120.009 18.2535 119.727C18.0908 118.632 18.3371 117.522 18.1384 116.427C18.0644 115.871 18.5605 115.298 17.947 114.726C17.6915 114.487 18.002 114.005 18.3851 113.793C19.0599 113.232 19.0442 112.344 19.4094 111.636C19.7482 110.98 19.9714 110.273 20.2921 109.592C18.8226 109.582 16.7754 111.48 16.018 113.242C15.6889 113.886 15.3157 114.511 15.1892 115.239C14.6783 116.966 14.4976 118.717 14.7826 120.503C14.9495 121.754 15.4454 122.934 15.5787 124.191C15.8615 124.614 16.3142 124.963 16.1817 125.566C16.2489 125.84 16.4162 126.064 16.5478 126.306C17.4272 128.098 19.1905 128.871 20.7118 129.921C20.8091 129.937 20.9034 129.963 20.9957 129.996C21.9634 130.46 22.9822 130.724 24.0557 130.772C24.3874 130.729 24.6759 130.456 25.0395 130.583C25.1321 130.617 25.219 130.663 25.3023 130.715C27.0797 131.952 28.8214 133.261 31.0675 133.548C32.5723 134.182 34.067 133.828 35.5562 133.477C35.8915 133.398 36.1986 133.213 36.5358 133.125C37.4906 132.853 38.3724 132.484 38.7711 131.461C39.7971 130.607 40.8732 129.817 41.7373 128.779C42.9554 127.317 43.73 125.642 44.2461 123.829C44.3701 123.394 44.4336 122.927 44.7983 122.597C45.0574 122.44 45.318 122.313 45.5801 122.587Z" fill="#3C2E2C"/>
<path d="M88.3661 5.10979C88.621 4.8826 88.9897 4.90166 89.236 4.58945C91.5609 1.64367 94.7818 0.51214 98.3644 0.224196C105.814 -0.37523 112.931 4.34591 114.651 11.166C115.715 15.3837 115.379 19.5309 113.101 23.3794C112.95 23.6355 112.902 23.8668 112.898 24.1603C112.776 34.7042 103.619 41.6777 93.2535 39.1424C89.6635 38.2646 86.5165 36.5384 83.7958 34.0864C83.0132 33.3813 82.7092 33.6512 82.196 34.261C78.6189 38.5115 75.0395 42.7593 72.0301 47.4467C71.9366 47.5925 71.796 47.7077 71.6774 47.8372C71.544 48.0883 71.3854 48.0166 71.3832 47.8025C71.3806 47.5614 71.3056 47.3319 71.319 47.0913C71.3829 46.8247 71.5011 46.5827 71.634 46.3456C74.8997 42.1418 77.9514 37.7747 81.3744 33.6948C82.5535 32.5007 83.7867 31.3615 85.0356 30.2386C85.7866 29.7272 86.1895 29.0693 86.0176 28.1186C85.9584 27.7916 85.892 27.3441 86.3615 27.2557C86.8167 27.1701 86.7831 27.6812 86.9796 27.9402C86.9725 27.7522 87.173 27.6937 87.1394 27.4719C86.982 26.4369 86.9994 26.4342 87.9778 26.6039C88.0637 26.6187 88.0751 26.6207 88.102 26.4681C88.1569 26.1561 88.1835 25.8325 88.5763 25.7439C88.6998 25.6621 88.8344 26.3076 88.9803 25.7055C89.3797 24.0608 88.8842 22.6548 87.481 21.6597C86.4003 20.8933 85.6639 20.6302 84.3058 20.5095C85.5006 20.592 86.531 21.0687 87.3717 21.9051C87.6486 22.1806 87.9573 22.5319 87.8017 23.0176C87.429 23.1666 87.1994 22.9096 86.9451 22.7216C86.6097 22.4685 86.2534 22.2468 85.881 22.0531C84.0261 21.0879 82.4349 21.6601 80.9623 22.9142C80.5087 23.3003 80.1205 23.7585 79.6366 24.1094C79.3275 24.3411 78.9976 24.2224 78.6706 24.1659C78.5325 24.1149 78.4289 24.0233 78.3558 23.8963C78.3194 23.808 78.3017 23.7156 78.3004 23.6206C78.3087 23.5267 78.3363 23.4377 78.3806 23.3542C78.4633 23.2408 78.5717 23.1605 78.7012 23.1094C79.0467 23.0424 79.132 22.7111 79.325 22.4881C79.4752 22.3622 79.6531 22.2901 79.8312 22.2172C80.4634 21.7926 81.1248 21.4093 81.6663 20.8628C81.7761 20.7557 81.8911 20.6546 82.013 20.5623C82.4865 20.2085 83.0815 20.0299 83.4659 19.5484C84.0867 18.986 84.4569 18.1932 85.4479 17.9778C86.0278 17.8517 86.5443 17.2553 87.0498 16.8207C87.3552 16.558 87.3474 16.197 87.2316 15.8454C86.2498 12.864 86.3699 9.90951 87.5843 6.86954C83.6558 8.44568 81.2204 11.1313 80.2042 15.0895C80.0952 15.5144 80.151 16.0294 79.6434 16.2728C79.472 16.3048 79.3158 16.2798 79.1825 16.1588C78.8302 15.4874 79.135 14.8493 79.3268 14.229C80.6579 9.92793 83.5165 7.12914 87.7687 5.72055C88.3001 5.84226 87.9603 5.10993 88.3661 5.10979Z" fill="#3A312F"/>
<path d="M78.6486 24.1181C78.8705 23.7815 79.1235 24.1654 79.3563 24.0858C79.8251 24.6796 79.469 25.1353 79.0871 25.5678C71.8578 33.7618 65.9751 42.8859 60.5408 52.3228C54.8452 62.2136 50.1436 72.6073 45.0334 82.7946C44.4657 83.9265 43.9013 85.0614 43.2364 86.1416C42.9383 86.6253 42.596 87.0833 42.128 87.4024C41.497 87.8329 41.1923 88.5018 40.7393 89.0571C39.8415 90.1575 39.3144 91.4222 38.6062 92.5974C38.0419 93.5345 37.2507 94.3346 36.9566 95.4482C36.8839 95.7238 36.6124 95.8839 36.4804 95.932C37.9411 95.5331 39.3063 96.1254 40.6371 96.8886C41.1991 97.2025 41.6603 97.6369 42.0964 98.1009C42.2566 98.2524 42.4028 98.4174 42.5433 98.5859C42.8977 99.0166 43.1605 99.5028 43.3923 100.11C44.2697 98.7285 44.6252 97.1489 45.6901 95.9693C46.2794 95.3164 46.7666 94.6197 46.8893 93.6984C46.9536 93.2142 47.2939 92.8091 47.6609 92.4762C48.0713 92.1041 48.2825 91.6439 48.3669 91.1109C48.8791 89.829 49.4867 88.5908 50.0751 87.3435C50.7003 86.0679 51.3482 84.8034 51.9416 83.5124C52.4991 82.5115 52.8645 81.4247 53.3374 80.3858C53.8726 79.358 54.3017 78.2818 54.7852 77.2298C57.2246 72.0375 59.5154 66.7733 62.2679 61.7327C62.9257 60.528 63.4989 59.2789 64.2034 58.0988C66.1124 54.7975 68.1381 51.5691 70.2536 48.3973C70.5493 47.9542 70.7255 47.3568 71.3926 47.2782C72.0201 47.1922 71.223 47.8347 71.6774 47.8372C69.7894 50.9486 67.8509 54.0302 66.0249 57.1773C61.3008 65.3198 57.1792 73.7642 53.463 82.4095C52.0093 85.7914 50.7039 89.2639 48.9128 92.4614C48.1365 93.8474 47.662 95.422 46.5462 96.6906C45.5994 97.7671 45.1152 99.2482 44.4152 100.544C43.8085 101.668 43.0107 102.479 41.5804 102.187C41.3343 101.867 41.3139 101.477 41.2268 101.102C41.0025 100.136 40.5382 99.3503 39.5354 99.0053C39.4425 98.9643 39.3652 98.9038 39.2985 98.8276C39.2146 98.6852 39.2166 98.5409 39.2897 98.3947C39.9072 97.4755 39.9072 97.4755 40.9924 98.1597C41.7009 98.7946 42.2367 99.5402 42.4997 100.457C42.1429 99.3058 41.4769 98.3919 40.4105 97.7845C39.9509 97.3481 39.2974 97.4122 38.7686 97.1552C37.8738 96.6644 36.8895 96.6666 35.9088 96.6413C35.6511 96.5591 35.4155 96.4535 35.3942 96.1331C36.2165 94.8147 36.4224 93.1342 37.7773 92.1247C38.0411 91.928 38.0574 91.5717 38.1253 91.2628C38.1855 90.9892 38.1914 90.6716 38.3396 90.4546C39.0743 89.3788 39.6934 88.153 40.6479 87.3161C41.8272 86.2827 42.6506 85.0925 43.321 83.727C48.0168 74.1627 52.5619 64.5218 57.7964 55.231C62.9333 46.114 68.4191 37.2112 74.9683 29.0321C76.5329 27.0779 77.4195 25.3652 76.7085 22.8518C76.2755 21.3209 76.4166 19.6458 76.6604 18.0349C77.0502 17.9282 77.3508 17.8364 77.2432 17.2649C77.1057 16.5347 77.6996 16.0526 78.4978 16.1296C78.7105 16.3544 78.7169 16.6318 78.6752 16.9106C78.4023 18.7198 78.6264 20.5055 78.9038 22.2895C78.9513 22.5934 79.0732 22.904 78.7903 23.1645C78.6695 23.2721 78.5488 23.3797 78.428 23.4874C78.1212 23.4394 78.1595 23.0071 77.8399 22.9558C77.6562 23.5658 78.184 23.3745 78.4302 23.4938C78.4264 23.5893 78.4224 23.6845 78.4186 23.78C78.4256 23.9621 78.3319 24.1015 78.2249 24.2354C78.3697 24.2095 78.4896 24.0927 78.6486 24.1181Z" fill="#413735"/>
<path d="M32.2859 102.958C32.1595 102.812 32.0764 102.655 32.1608 102.456C32.3995 102.423 32.6385 102.389 32.8772 102.356C33.0662 102.315 33.2537 102.258 33.4502 102.307C34.2077 102.445 34.9551 102.625 35.683 102.881C36.3208 103.275 36.8036 103.089 37.2774 102.547C37.5121 102.278 37.7662 101.687 38.3033 102.224C38.2662 102.548 38.0734 102.802 37.8966 103.054C37.6145 103.457 37.6921 103.734 38.1034 103.99C38.5138 104.245 38.8359 104.297 39.169 103.853C39.5384 103.36 39.68 102.699 40.2605 102.363C40.5745 102.213 40.6828 102.458 40.8171 102.654C40.495 103.229 40.2473 103.867 39.8324 104.366C39.2981 105.008 39.5723 105.319 40.0605 105.803C44.5941 110.298 46.6477 115.678 45.7164 122.089C45.6917 122.258 45.6264 122.422 45.5801 122.587C45.362 122.574 45.1436 122.561 44.9254 122.548C44.618 122.209 44.7468 121.814 44.8136 121.444C45.2899 118.809 44.8021 116.261 44.0595 113.759C43.6015 112.216 42.7757 110.812 41.914 109.467C41.4906 108.807 40.8888 108.175 40.2157 107.735C39.8461 107.493 40.0181 107.298 39.9991 107.062C39.7856 106.35 39.0593 106.152 38.5982 105.69C38.3136 105.405 38.0922 105.977 37.7723 105.955C37.116 105.785 36.46 105.615 35.9405 105.139C35.7597 104.914 35.8209 104.593 35.6446 104.369C35.5222 104.214 35.3349 103.918 35.1691 104.085C34.5522 104.705 34.2851 104.275 33.9003 103.809C33.5008 103.325 32.6971 103.493 32.2859 102.958Z" fill="#413735"/>
<path d="M78.5079 16.1328C78.3654 16.2803 77.9085 15.9821 78.017 16.5264C78.0708 16.7957 77.9563 17.1899 77.571 16.7215C77.484 16.6159 77.3806 16.6494 77.3324 16.7522C77.2702 16.8844 77.2727 17.0452 77.4207 17.1142C77.9717 17.3703 77.561 17.7781 77.4694 17.9936C77.3193 18.346 76.9449 18.1523 76.6604 18.0349C77.0127 12.0761 82.2198 6.16249 88.0588 5.09367C88.157 5.07561 88.2635 5.10356 88.3661 5.10979C88.1899 5.31856 88.5057 5.68755 88.1293 5.83069C83.4414 7.05002 80.5949 10.1273 79.1907 14.6704C79.0317 15.1843 79.0981 15.8155 78.5079 16.1328Z" fill="#5F5755"/>
<path d="M33.4026 102.547C33.2275 102.483 33.0525 102.419 32.8772 102.356C33.5681 101.23 34.2361 100.089 34.963 98.9862C35.2006 98.6259 35.2698 98.3611 35.1018 97.947C34.8456 97.3151 34.7811 96.6556 35.3936 96.1341C35.6066 96.2603 35.8198 96.3869 36.0328 96.5131C36.0262 96.7577 35.841 97.0985 36.3913 96.9318C37.0661 96.7275 37.767 96.6398 38.4405 96.9853C38.718 97.5004 39.6093 97.6201 39.3886 98.457C39.396 98.5766 39.4029 98.6963 39.4104 98.8159C39.3633 98.8987 39.2931 98.9527 39.2035 98.9839C38.8492 99.0464 38.4685 99.2552 38.1983 98.8144C37.3665 98.0918 36.7043 98.1058 36.0657 98.9266C35.3739 99.8154 34.7898 100.781 34.1814 101.729C33.9725 102.055 33.8111 102.414 33.4026 102.547Z" fill="#3C2E2C"/>
<path d="M40.8171 102.654C40.5474 102.706 40.5601 102.428 40.4265 102.321C40.1806 101.629 40.6628 100.919 40.2871 100.186C39.9611 99.5512 39.8654 100.087 39.6683 100.2C39.5842 100.249 39.4929 100.277 39.3961 100.287C38.9395 99.7924 39.3722 99.3665 39.5051 98.9176C40.3081 98.8731 41.253 99.7695 41.4765 100.849C41.5666 101.283 41.5492 101.741 41.5804 102.187C41.1507 102.054 40.9583 102.312 40.8171 102.654Z" fill="#3C2E2C"/>
<path d="M24.486 104.915C23.5846 105.535 22.8 106.317 22.1738 107.175C21.6555 107.885 21.1151 108.183 20.2845 108.393C17.6407 109.062 16.0295 110.939 14.9839 113.359C14.7092 113.995 14.5063 114.662 14.2702 115.314C13.9765 115.381 13.7358 115.275 13.5206 115.086C13.3223 114.865 13.2943 114.621 13.4327 114.36C13.5758 114.05 13.7797 113.764 13.8665 113.206C13.5694 113.668 13.4979 114.018 13.3674 114.339C12.9843 115.029 13.0672 115.895 12.5354 116.529C12.0373 116.976 11.6149 116.659 11.226 116.365C10.8138 116.054 10.4787 115.939 10.0373 116.357C9.64681 116.727 9.42539 116.567 9.44753 116.029C9.46706 115.555 9.37851 115.021 8.88272 114.904C8.37071 114.782 7.74991 114.659 7.35056 115.259C7.13535 115.582 6.75218 115.601 6.43704 115.742C5.88331 115.665 5.55704 114.749 4.82723 115.309C4.43831 114.979 4.55667 114.532 4.55112 114.113C5.17678 110.254 6.56667 106.68 9.21357 103.789C13.3101 99.3152 19.9141 97.4065 25.4574 101.229C26.1167 101.708 26.8947 102.042 27.3521 102.768C27.3076 103.488 26.5396 103.344 26.1806 103.719C25.9212 103.991 25.5065 104.162 25.2133 104.451C25.109 104.821 24.8198 104.903 24.486 104.915Z" fill="#FEFEFE"/>
<path d="M36.0252 104.928C36.604 105.232 37.1826 105.537 37.7614 105.842C38.2605 105.774 38.7205 105.8 39.0567 106.262C39.3813 106.708 39.9163 106.863 40.3585 107.146C40.271 107.249 40.1834 107.353 40.0959 107.456C40.5144 107.32 40.5683 107.875 40.9982 107.892C41.4667 107.911 40.6597 108.435 41.0173 108.468C42.2365 108.578 42.3963 109.694 42.7987 110.416C44.8271 114.055 45.7726 117.941 44.9502 122.131C44.9234 122.267 44.9332 122.409 44.9254 122.548C44.3159 124.674 43.7226 126.795 42.2754 128.568C41.2847 129.782 40.1487 130.806 38.8544 131.67C38.2503 132.497 37.3257 132.79 36.4299 133.131C34.65 133.609 32.8581 133.857 31.0305 133.417C28.843 133.031 27.1689 131.705 25.4816 130.401C24.1985 129.309 23.2627 127.937 22.3646 126.536C21.003 124.327 20.2069 121.91 19.7494 119.367C19.7247 119.229 19.6337 119.059 19.7049 118.959C20.1401 118.348 19.4293 118.57 19.2967 118.378C19.1271 114.129 20.254 110.286 22.9092 106.922C23.4489 106.19 24.2466 105.704 24.7768 104.963C25.0781 104.542 25.5037 104.961 25.8403 104.79C27.6052 103.415 29.6355 103.643 31.6538 103.822C32.0142 103.854 32.3621 103.953 32.3078 104.446C31.9819 104.933 31.4562 104.868 30.9772 104.935C27.2201 105.195 22.9577 108.733 22.1046 113.356C21.2171 118.163 21.6163 122.79 24.4953 126.862C26.6348 129.887 29.332 132.346 33.4084 132.149C36.3687 132.006 38.8752 130.744 40.7944 128.42C46.219 121.852 44.1031 112.25 38.2804 107.218C37.4343 106.486 36.429 105.962 35.3904 105.513C34.9961 105.343 34.4649 105.326 34.2898 104.798C34.936 103.959 35.4693 104.588 36.0252 104.928Z" fill="#F9F9F9"/>
<path d="M15.5813 138.993C20.499 141.317 25.2142 141.026 29.7214 137.888C31.0544 136.96 32.1785 135.813 33.2302 134.541C33.3978 134.914 33.1911 135.077 33.0351 135.26C27.277 142.034 18.404 142.743 11.6021 136.99C7.32193 133.37 5.10004 128.644 3.93814 123.255C2.71186 117.566 3.02133 112.11 5.81608 106.902C8.75268 101.43 13.6965 98.004 19.7195 98.4519C19.8575 98.4621 19.9924 98.5066 20.1289 98.5351C20.3464 98.6645 20.2584 98.789 20.1226 98.9132C18.7811 99.1649 17.4006 99.0642 16.0648 99.4158C11.7751 100.544 8.85111 103.301 6.79394 107.111C5.59771 109.326 4.89018 111.706 4.42286 114.165C3.92405 116.949 4.2777 119.697 4.76042 122.44C5.33279 126.485 6.8792 130.126 9.23586 133.444C10.7242 135.541 12.5334 137.257 14.8482 138.407C15.1406 138.552 15.3164 138.824 15.5813 138.993Z" fill="#EEEBEC"/>
<path d="M36.0252 104.928C35.4298 105.105 34.9083 104.211 34.2839 104.811C33.9398 105.111 33.5895 104.869 33.2412 104.828C32.9128 104.69 32.5365 104.674 32.2433 104.444C32.186 104.308 32.2897 104.089 31.9954 104.085C29.9423 104.052 27.8356 103.613 25.9689 104.93C25.9211 104.717 25.5932 104.799 25.5748 104.555C27.3699 103.1 29.569 103.251 31.6699 103.012C31.8747 102.988 32.0802 102.976 32.2859 102.958C32.9845 103.081 33.6196 103.421 34.2826 103.603C35.0699 103.818 34.3639 104.066 34.4087 104.277C34.8521 104.294 34.8179 103.376 35.377 103.732C35.7714 103.984 36.0794 104.383 36.0252 104.928Z" fill="#867978"/>
<path d="M27.3531 102.768C26.6679 102.333 25.983 101.898 25.2976 101.463C25.3499 101.106 24.597 101.021 24.9906 100.549C25.6347 100.916 26.2441 101.343 26.8928 101.705C26.3338 101.354 25.7424 101.055 25.2245 100.639C25.0935 100.468 24.843 100.517 24.7057 100.357C24.6321 100.206 24.6379 100.061 24.7419 99.9253C26.1898 100.507 27.342 101.488 28.5006 102.639C27.9638 102.752 27.9254 102.249 27.6313 102.172C27.928 102.552 27.3949 102.546 27.3531 102.768Z" fill="#837774"/>
<path d="M24.7419 99.9253C24.7375 100.025 24.7331 100.125 24.7288 100.225C23.1906 99.7796 21.592 99.5296 20.132 98.8277C20.131 98.7304 20.1297 98.6327 20.1289 98.5351C21.7693 98.6595 23.2899 99.1802 24.7419 99.9253Z" fill="#C9C1BD"/>
<path d="M25.5748 104.555C25.503 104.894 26.3137 104.304 25.9689 104.93C25.717 105.157 25.7154 105.16 25.2897 104.981C25.0673 104.887 24.9761 105.084 24.8598 105.185C24.2034 105.757 23.5582 106.341 22.9092 106.922C23.1588 106.037 24.2539 105.814 24.486 104.915C24.6816 104.686 24.9056 104.503 25.214 104.451C25.3341 104.486 25.4545 104.52 25.5748 104.555Z" fill="#4E454A"/>
<path d="M40.4744 97.1014C39.191 96.2803 37.8039 95.9063 36.0687 96.1741C36.7933 95.5677 36.9195 94.8443 37.0852 94.1338C37.1655 93.7894 37.2617 93.3773 37.5807 93.2349C38.6007 92.7795 38.8067 91.8904 38.9744 90.9358C39.0669 90.4105 39.2726 89.9441 39.8606 89.7307C40.1051 89.642 40.4451 89.395 40.4692 89.189C40.6053 88.0276 41.5292 87.5473 42.2841 86.8969C42.9336 86.3373 43.287 85.5566 43.6722 84.8059C48.3949 75.6047 52.6678 66.1789 57.5613 57.0638C63.048 46.844 69.2704 37.0998 76.5208 28.0293C77.3081 27.0441 78.0224 25.9704 79.0599 25.2215C79.5355 24.8781 79.2215 24.45 79.3563 24.0858C80.0129 23.4555 80.6678 22.8343 81.3884 22.2654C83.1389 20.8829 84.8363 21.029 86.5796 22.1993C86.7211 22.2945 86.8768 22.3689 87.0259 22.4527C86.7802 23.3096 85.8012 23.4286 85.3594 24.0965C85.3023 24.1828 85.0984 24.1077 84.976 24.0267C84.8767 23.9609 84.811 23.8588 84.7101 23.796C84.7935 23.8936 84.895 23.9732 84.9828 24.0666C85.2376 24.3373 85.1409 24.5652 84.8995 24.7783C84.8135 24.8295 84.7197 24.8553 84.6202 24.8611C84.2457 24.7708 84.0451 24.4129 83.5696 24.2285C84.3523 24.6209 84.6329 25.0726 84.0987 25.7439C83.8421 26.1349 83.5933 26.5309 83.2387 26.8439C82.0704 28.0461 80.9477 29.2868 80.0098 30.6843C79.1067 31.6505 78.3652 32.7428 77.5722 33.7949C76.2725 35.1883 75.2036 36.7582 74.1071 38.3057C72.9503 39.769 71.8935 41.3048 70.8908 42.8785C71.8761 41.371 72.8963 39.8883 74.0124 38.4742C75.1132 37.0343 76.0617 35.4734 77.3894 34.2123C77.997 33.7245 78.725 33.3601 78.8936 32.471C78.9984 31.9179 79.6079 32.5112 79.8277 32.1277C80.3424 32.3138 80.9759 32.1081 81.3945 32.5805C81.6689 32.8903 81.9765 33.2092 81.7705 33.6914C78.7229 37.2336 76.103 41.1072 73.1999 44.7612C72.7058 45.383 72.2197 46.0116 71.7301 46.6371C71.5499 46.9452 71.3213 46.8969 71.0766 46.7277C71.1747 46.1381 71.5919 45.735 71.9277 45.3233C71.4732 45.5824 71.4329 46.5075 70.8979 46.3982C70.3673 46.2898 70.5571 45.4342 70.3048 44.9543C70.257 44.8635 70.2311 44.76 70.1879 44.6682C69.829 44.1346 69.7707 44.6829 69.6668 44.8388C68.1668 47.0888 66.8286 49.4379 65.4333 51.7531C65.1001 52.2846 64.8666 52.8746 64.4786 53.373C63.9897 53.9888 63.7515 54.7316 63.4308 55.4329C62.1116 57.1427 61.3119 59.1518 60.2858 61.025C59.1594 63.0812 58.0884 65.1819 57.2283 67.376C58.1714 65.2584 59.3336 63.2482 60.2753 61.1291C60.4742 60.6812 60.8064 60.3089 61.2013 60.0045C62.5424 59.856 62.9316 58.68 63.587 57.7897C63.6574 57.7131 63.7419 57.6583 63.8394 57.6229C64.3078 57.6119 64.5439 57.7929 64.3908 58.2931C61.0665 64.3552 58.1391 70.612 55.2417 76.8833C55.1523 77.0771 55.0951 77.2769 54.8881 77.3796C54.3762 77.8153 53.852 78.4267 53.5989 77.1666C53.5439 76.8934 53.0823 76.8219 53.0818 76.4524C53.1815 76.2053 53.4656 76.052 53.29 75.6736C53.1204 75.3089 53.4106 74.971 53.6274 74.6656C53.8914 74.3649 54.2471 74.1093 54.1261 73.6269C53.378 73.0221 53.2654 73.7914 52.9712 74.1616C52.6785 74.4745 52.49 74.9104 52.0015 74.9956C51.9034 74.9686 51.8315 74.9094 51.7855 74.8183C51.7263 74.6501 52.1885 74.3589 51.6191 74.2803C51.4175 74.2524 51.5234 73.867 51.587 73.6401C51.6743 73.4483 51.7713 73.2722 51.9812 73.1752C52.1372 73.1031 52.2673 73.3655 52.415 73.187C52.2138 73.1568 52.0678 72.9122 51.858 72.9866C51.5301 73.1026 51.4504 73.4454 51.3109 73.7178C50.5477 75.2111 49.9946 76.8053 49.1259 78.2482C49.0376 78.4235 48.9428 78.595 48.8387 78.761C48.2342 79.8385 47.9462 81.0501 47.3976 82.1513C47.2928 82.3619 47.309 82.5604 47.4767 82.7312C48.1516 83.4185 48.3413 84.2082 47.9971 85.1213C47.9057 85.3635 48.1787 85.482 48.2212 85.6833C48.1087 86.5559 47.5738 87.217 47.0662 87.8732C46.4102 88.7217 45.6492 88.3264 44.7937 87.8962C45.2478 88.1816 45.6756 88.2361 45.9471 88.5607C46.349 89.1619 45.7288 89.4537 45.5484 89.8798C45.4375 90.1033 45.3374 90.3333 45.169 90.5226C43.6571 91.1315 43.2285 92.8412 41.9476 93.7008C41.5992 93.9344 41.6707 94.4778 41.5143 94.8668C41.3066 95.2728 40.9586 95.5584 40.6385 95.8652C40.4141 96.0804 40.3056 96.2955 40.5118 96.5776C40.5858 96.7587 40.6979 96.943 40.4744 97.1014Z" fill="#FDFEFE"/>
<path d="M87.637 12.6157C87.2876 6.83475 90.6022 2.36371 96.2768 1.27069C101.989 0.170217 107.049 1.5732 111.031 5.92314C114.237 9.42436 114.749 13.7277 114.181 18.2526C114.14 18.5818 113.971 18.8955 113.861 19.2163C113.779 20.4878 112.843 21.2676 112.074 22.0803C110.824 23.4002 109.167 24.118 107.486 24.7505C103.669 25.2974 100.056 24.7323 96.7327 22.7236C94.1091 21.1378 91.8534 19.181 90.5658 16.3037C90.1522 15.0547 89.6271 13.8329 89.6016 12.4844C89.5131 10.7485 89.6453 9.03663 90.3767 7.43523C91.0279 6.00921 91.899 4.73429 93.2091 3.92061C90.4236 6.31861 89.5436 8.26717 89.6155 11.9512C89.6182 12.0935 89.5957 12.2309 89.5407 12.3627C88.9457 12.751 88.3369 13.0318 87.637 12.6157Z" fill="#FCFBFC"/>
<path d="M101.776 36.1941C101.186 36.4502 100.601 36.7236 99.9412 36.7458C99.4634 36.6245 99.451 36.2 99.3592 35.8349C99.275 35.499 99.2917 35.1254 98.9699 34.8876C99.0105 34.136 99.1366 33.3687 98.9098 32.6426C98.6914 31.9433 98.4274 31.2555 98.2032 30.5563C98.0725 30.1492 97.7089 30.2552 97.433 30.1629C96.9449 29.9852 96.4404 29.866 95.9421 29.724C95.3361 29.5512 95.0303 29.2051 95.5068 28.5872C95.8587 28.3802 96.1908 28.5512 96.5274 28.6365C97.0526 28.8261 97.6722 28.6997 98.1332 29.1068C99.9654 29.2375 101.588 28.765 102.919 27.4428C103.182 27.1813 103.391 26.9569 103.882 26.9889C106.528 27.1599 108.865 26.5551 111.186 25.2153C111.598 28.2616 108.533 34.4307 102.947 35.8633C102.763 35.6476 102.819 35.2429 102.419 35.1963C102.199 34.892 102.247 34.5736 102.467 34.3231C103.135 33.563 102.419 33.1211 102.089 32.604C101.935 32.3634 101.656 32.4049 101.418 32.5042C101.021 32.6694 100.939 33.0703 100.992 33.3875C101.117 34.1347 100.889 34.8494 100.901 35.577C101.005 36.0481 101.764 35.598 101.776 36.1941Z" fill="#FDFDFD"/>
<path d="M79.6752 16.2288C80.2907 12.8824 81.803 10.0878 84.6545 8.10611C85.6664 7.40286 86.7736 6.90551 88.0494 6.38885C87.5348 7.75038 87.1193 8.9932 86.9212 10.2976C86.6398 12.149 86.9259 13.9409 87.4956 15.6875C87.7038 16.3256 87.586 16.7241 87.0678 17.1085C86.5891 17.4638 86.1609 17.886 85.706 18.2739C85.4756 18.4704 85.2541 18.7818 84.9451 18.3554C84.9055 18.3006 84.7735 18.3127 84.6847 18.2937C85.1343 19.1991 84.0444 19.0576 83.8413 19.523C83.8049 19.6064 83.6955 19.6577 83.62 19.7238C83.1849 19.6159 83.189 19.6154 83.115 19.006C83.0752 18.6793 83.2336 18.1675 82.5679 18.3771C82.2639 18.266 82.332 17.9069 82.0647 17.6627C81.881 18.1363 81.9217 18.7044 81.4465 18.994C80.5658 19.281 80.6047 18.7509 80.7021 18.1594C80.7834 17.6662 81.097 17.0367 80.1274 17.1276C79.9746 17.1498 79.8302 17.1323 79.6984 17.0468C79.4659 16.781 79.4244 16.5093 79.6752 16.2288Z" fill="#FEFEFE"/>
<path d="M84.7061 24.7401C84.7353 24.6966 84.7746 24.6672 84.8249 24.6523C85.4852 24.5677 86.0235 24.3058 86.2842 23.6432C86.5619 22.9368 87.0269 22.8197 87.6728 23.1709C87.854 23.2693 88.0609 23.3226 88.2247 23.4596C88.7034 24.1652 89.0352 24.8923 88.5433 25.7357C88.2076 26.3057 88.3528 26.9934 88.078 27.8058C87.8537 27.2181 88.2871 26.2297 87.2177 26.7835C87.5562 27.3588 87.2044 27.9991 87.0388 28.6686C86.9661 28.6262 86.8884 28.609 86.8689 28.5653C86.6941 28.1757 86.7587 27.3591 86.4103 27.4439C85.8225 27.5872 86.39 28.19 86.3888 28.59C86.3855 29.5459 85.8358 30.048 85.134 30.4945C84.9538 30.115 84.7341 30.3268 84.6111 30.5059C84.3512 30.8847 84.0224 31.2017 83.727 31.5456C83.0759 32.3045 82.6354 32.2737 82.0858 31.435C81.8766 31.1159 81.6332 30.8102 81.4898 30.4477C81.3999 29.9804 81.7779 29.5725 81.5923 29.051C81.4755 28.7229 81.8899 28.3075 82.2191 28.3939C83.4411 28.7154 83.2789 27.9477 83.224 27.231C83.2108 27.058 83.1799 26.8864 83.219 26.7136C83.534 26.4052 84.0699 26.2859 84.078 25.7129C84.2795 25.3833 85.0381 25.4144 84.7061 24.7401Z" fill="#DAD5D4"/>
<path d="M86.9726 32.2418C85.8129 30.7315 85.8161 30.7349 87.2649 29.2405C88.0299 28.4512 88.7798 27.6478 89.5367 26.8506C90.0257 26.721 90.474 26.6965 90.6841 27.2918C90.8261 28.0835 91.3862 28.222 92.0659 28.1742C92.1579 28.2225 92.2193 28.2963 92.2522 28.3945C92.1656 28.8458 92.0129 29.2637 91.6534 29.5769C91.4537 29.6341 91.2575 29.4727 91.0176 29.5391C91.2998 29.9368 91.7419 30.1478 91.8821 30.6012C91.9035 30.7015 91.8775 30.7889 91.8121 30.8667C91.222 30.9728 91.0049 30.4081 90.7274 30.2924C91.4289 30.8252 91.12 31.9041 91.5626 32.6914C91.571 32.7937 91.5363 32.881 91.4672 32.9559C90.762 33.0308 90.2944 32.6345 89.8523 32.1789C89.7635 32.773 90.0241 33.205 90.5291 33.5538C90.7917 33.7352 91.1957 33.9035 90.9499 34.3735C90.7067 34.5869 90.4329 34.7008 90.1046 34.6389C88.7328 34.2687 87.8326 33.2814 86.9726 32.2418Z" fill="#C4BEBC"/>
<path d="M99.1143 34.8316C99.4108 34.6439 99.45 34.8518 99.4944 35.0718C99.6095 35.6387 99.6339 36.2304 99.9412 36.7458C99.5103 36.9659 98.8818 36.5136 98.5729 37.1496C98.2934 37.3325 98.0068 37.2535 97.7194 37.1774C96.9411 37.0279 96.1912 36.7383 95.3757 36.7724C94.936 36.7908 94.593 36.5288 94.282 36.2402C93.9319 35.9312 93.6138 35.604 93.7894 35.0761C93.8913 34.7694 94.1499 34.7854 94.3967 34.8198C94.9194 34.8929 95.5102 34.8901 95.4565 35.6972C95.5535 34.9627 95.1414 34.597 94.5506 34.3652C94.0198 34.1566 93.9302 33.5517 94.2292 33.376C94.9281 32.9657 94.6459 32.3853 94.7276 31.8628C94.733 31.7243 94.6984 31.5274 94.7704 31.4572C95.422 30.8222 94.9436 30.2481 94.7033 29.6593C94.6442 29.45 94.6981 29.2598 94.798 29.0764C94.9313 28.8549 95.0596 28.6287 95.2842 28.4812C95.4419 28.4314 95.5884 28.4093 95.6264 28.6315C95.3162 29.1094 95.4572 29.3893 96.007 29.4599C96.5555 29.5302 97.0744 29.6774 97.5498 29.9632C97.3507 31.2401 97.7126 32.5144 97.5574 33.7916C97.5152 34.1392 97.5244 34.5308 96.9769 34.3147C96.9266 34.2947 96.9198 34.1435 96.8223 34.2602C96.9056 34.3239 96.9377 34.4458 97.0237 34.4904C97.6812 34.8334 98.4521 34.5026 99.1143 34.8316Z" fill="#ADA8A5"/>
<path d="M106 26.2742C104.254 26.5755 102.504 26.4331 100.854 25.9143C100.337 25.7515 99.7622 25.7246 99.2503 25.4623C98.5533 25.1049 97.7883 24.8802 97.0526 24.5985C96.6035 24.6598 96.2571 24.3957 95.8776 24.2348C95.2922 23.9028 94.69 23.5961 94.1829 23.1425C94.0437 22.9967 94.0266 22.754 93.8079 22.6707C93.1194 21.9911 92.2579 21.5027 91.6529 20.7302C91.4443 20.2728 91.4879 19.8319 91.8972 19.5362C92.357 19.204 92.6303 19.6622 92.9422 19.8881C93.0797 19.988 93.2097 20.0982 93.3583 20.1815C96.1178 22.6732 99.2549 24.3729 103.01 24.7995C103.987 24.9103 104.971 24.8067 105.944 24.9399C106.518 25.36 106.744 25.7962 106 26.2742Z" fill="#F9F8F8"/>
<path d="M97.9279 37.0742C98.1433 37.0993 98.3576 37.1245 98.5729 37.1496C101.516 37.3116 104.139 36.3446 106.545 34.7578C109.951 32.511 111.673 29.274 111.939 25.232C111.96 24.9202 112.03 24.6116 112.119 24.0297C112.507 25.0825 112.335 25.8912 112.224 26.682C111.331 33.0322 106.003 36.848 100.344 37.582C100.138 37.6087 99.9187 37.5613 99.7606 37.7478L99.771 37.7497C98.0217 37.6526 96.2611 37.7516 94.5224 37.4651C93.6205 37.6966 92.8862 37.0614 92.0417 36.9931C91.1951 36.5429 90.0903 36.5785 89.4953 35.6526C87.8486 34.8253 86.4336 33.6908 85.1657 32.3674C84.9744 32.1679 84.5556 31.9713 84.9246 31.6081C85.2984 31.2406 85.4667 31.6935 85.6759 31.8669C86.2423 32.3373 86.7891 32.8311 87.3438 33.3159C88.1839 33.4459 88.6773 34.1574 89.3805 34.5328C92.0626 35.9644 94.8591 36.9585 97.9279 37.0742Z" fill="#EBE7E6"/>
<path d="M106 26.2742C106.352 25.8618 106.226 25.4438 106.018 25.0246C106.412 24.5161 107.091 24.799 107.549 24.4704C110.23 23.4134 112.513 21.8772 113.861 19.2163C114.108 20.6552 113.563 21.8732 112.697 22.9433C112.187 23.5722 111.701 24.3091 110.788 24.4549C110.293 24.5339 110.73 25.1717 110.307 25.2543C108.857 25.5358 107.535 26.3623 106 26.2742Z" fill="#796B68"/>
<path d="M98.1332 29.1068C97.5698 29.223 97.0598 28.9799 96.5294 28.8742C96.2486 28.5615 96.3799 28.1442 96.2531 27.7937C96.0019 27.3747 95.6819 27.249 95.2555 27.5556C95.1597 27.5683 95.0693 27.5534 94.9835 27.5085C94.7032 26.6891 93.6896 26.6061 93.326 25.7683C93.0984 25.2432 92.8352 24.7478 92.7434 24.175C93.178 23.3482 93.649 23.2493 94.3498 23.8153C95.3845 24.6505 96.4369 25.4635 97.8245 25.6153C98.4409 25.6828 98.4747 26.0807 98.3314 26.523C98.1598 27.053 98.1733 27.5553 98.3725 28.0633C98.4663 28.2962 98.5082 28.536 98.4643 28.7864C98.354 28.893 98.2435 28.9998 98.1332 29.1068Z" fill="#908584"/>
<path d="M78.5079 16.1328C79.2119 12.943 80.6415 10.1804 83.2092 8.06816C84.4977 7.00815 85.9443 6.26937 87.5313 5.79058C87.7267 5.7315 87.9408 5.66793 88.1293 5.83069C85.3135 6.75897 82.9907 8.36712 81.2511 10.7937C80.0792 12.4282 79.4405 14.254 79.2137 16.2366C79.5315 17.5223 79.154 18.814 79.2305 20.109C79.2793 20.9368 79.6541 21.7603 79.3488 22.6051C79.1822 22.8112 79.5267 23.526 78.7903 23.1645C78.314 20.8364 78.2006 18.4938 78.5079 16.1328Z" fill="#EDECEA"/>
<path d="M98.269 28.2627C97.7746 27.9052 97.8369 27.1507 97.966 26.9248C98.7782 25.5048 97.453 25.9181 96.9549 25.679C96.6529 25.534 96.3409 25.6338 96.0123 25.2696C95.4503 24.6466 94.5277 24.4267 93.8617 23.8463C93.4494 23.4872 93.0748 23.716 92.8791 24.2048C92.8272 25.0356 92.1137 25.4595 91.1941 25.2062C90.657 24.6132 90.6062 25.5738 90.2344 25.5088C90.0157 24.9981 90.4347 24.7521 90.7012 24.4734C91.0633 24.0947 91.2871 23.7112 91.0567 23.1858C91.0103 22.9398 90.9821 22.6325 91.2657 22.574C91.8188 22.4601 91.9889 22.9536 92.2207 23.3638C92.5938 22.9352 91.7534 22.6508 92.161 22.2769C92.3604 22.2604 92.0133 21.611 92.4651 21.969C92.8673 22.2874 93.2735 22.5844 93.7181 22.8345C93.7279 22.84 93.7741 22.7991 93.7884 22.7723C93.8036 22.7433 93.8016 22.7048 93.8068 22.6707C93.999 22.6702 94.1465 22.7496 94.2465 22.9146C94.7031 23.5076 95.256 23.9562 96.0169 24.0918C96.3618 24.2605 96.7064 24.4295 97.0516 24.5985C97.0129 25.1724 97.5247 25.1562 97.8375 25.2369C98.3977 25.3813 98.6476 25.6917 98.6589 26.2421C98.699 26.948 98.6246 27.6322 98.269 28.2627Z" fill="#635957"/>
<path d="M88.5433 25.7357C88.6278 24.9595 88.4745 24.2275 88.1399 23.5287C87.7717 23.4632 87.7756 23.2024 87.8205 22.9201C86.8014 21.338 85.3257 20.6682 83.4732 20.7512C84.4638 19.9321 86.7044 20.4631 88.2265 21.8776C89.6164 23.1691 89.8047 25.1535 88.6803 26.6959C88.5111 26.3913 88.8837 26.0101 88.5433 25.7357Z" fill="#F2EFF0"/>
<path d="M71.1305 46.6734C71.3305 46.6614 71.5301 46.6492 71.7301 46.6371C71.6171 46.8506 71.5059 47.0644 71.3926 47.2782C68.9706 50.6918 66.7724 54.2467 64.6988 57.8801C64.6144 58.0282 64.4943 58.1557 64.3908 58.2931C64.3437 57.9839 64.205 57.7663 63.8557 57.7595C63.6783 57.244 63.8621 56.8371 64.3243 56.6245C65.0062 56.3109 65.3072 55.7184 65.4773 55.0801C65.6373 54.4788 65.9359 53.9914 66.3161 53.528C66.567 53.207 66.8888 52.9415 67.0674 52.5641C67.3793 52.0281 67.6951 51.4947 68.045 50.9826C68.1967 50.7863 68.3566 50.5951 68.4522 50.3614C68.7263 49.7189 69.1535 49.1649 69.4928 48.5596C69.539 48.4697 69.5925 48.3848 69.6493 48.3017C70.0133 47.8819 70.2673 47.3805 70.6326 46.9609C70.7697 46.8146 70.8788 46.6188 71.1305 46.6734Z" fill="#EEECEC"/>
<path d="M97.9279 37.0742C97.4436 37.3996 96.917 37.2772 96.4046 37.2002C93.0452 36.6954 89.9301 35.6191 87.3438 33.3159C87.6869 32.7963 86.5443 32.7904 86.9726 32.2418C87.4797 32.1342 87.6341 32.6534 87.8181 32.8759C88.453 33.6446 89.3171 34.0046 90.1382 34.4568C90.8077 34.9835 91.6376 35.1788 92.4212 35.3546C93.1604 35.5201 93.7805 35.8596 94.4311 36.1787C95.3471 36.7385 96.4416 36.4751 97.4128 36.8096C97.6096 36.8779 97.7965 36.9015 97.9279 37.0742Z" fill="#595352"/>
<path d="M98.269 28.2627C98.3774 27.5848 98.1943 26.8515 98.6599 26.2422C99.89 26.4775 101.12 26.7125 102.425 26.9619C101.248 28.0064 99.944 28.586 98.4643 28.7864C98.2406 28.6715 98.3252 28.4404 98.269 28.2627Z" fill="#F9F8F8"/>
<path d="M81.591 30.4378C81.9356 30.6402 82.0804 30.9698 82.2636 31.3149C82.6761 32.0932 83.0863 32.0743 83.6214 31.3655C83.9053 30.9893 84.1956 30.6073 84.5411 30.2916C84.7529 30.098 85.1813 29.7275 85.134 30.4945C84.0134 31.5604 82.8926 32.6255 81.772 33.6914C81.5461 32.9979 81.1822 32.481 80.3453 32.5292C80.0774 32.5446 79.8961 32.3659 79.7328 32.1769C79.6973 31.7672 79.7773 31.3872 80.0203 31.0481C80.3459 30.6877 80.7064 30.8154 81.0688 30.9733C80.8311 30.3934 81.0935 30.3009 81.591 30.4378Z" fill="#D0CCCA"/>
<path d="M93.246 20.3754C93.1509 20.341 93.038 20.3288 92.9635 20.269C91.966 19.4646 91.9544 19.4677 91.6529 20.7302C90.6635 19.6918 89.7148 18.6228 89.1149 17.2962C89.3233 16.6984 89.6798 16.2842 90.3702 16.284C90.4761 16.2926 90.638 16.3126 90.6551 16.3846C91.0087 17.8875 92.185 18.8076 93.1209 19.8976C93.2396 20.0356 93.3136 20.1876 93.246 20.3754Z" fill="#BCB6B4"/>
<path d="M79.7489 16.9463C79.8457 16.9486 79.9428 16.9511 80.0393 16.9537C80.4958 17.1974 80.2405 17.633 80.3271 17.9781C80.4677 18.5366 80.4357 19.2898 81.3669 19.1798C81.4521 19.815 81.4067 20.4877 81.8852 21.0113C81.2777 21.6048 80.6109 22.1131 79.8238 22.4479C79.0994 21.1178 79.4156 19.6758 79.4086 18.2741C79.4068 17.823 79.2408 17.286 79.7489 16.9463Z" fill="#E2DFDE"/>
<path d="M91.1941 25.2062C91.8738 25.0715 92.536 24.9071 92.8791 24.2048C93.1554 24.7415 93.339 25.315 93.7177 25.8151C93.9338 26.1002 94.0472 26.5065 94.4206 26.5743C95.0092 26.681 94.8455 27.3191 95.2124 27.5581C94.1244 28.0634 93.3226 27.3618 92.5557 26.826C92.1257 26.5254 91.6846 26.1307 91.4002 25.6366C91.2523 25.5317 91.1278 25.4147 91.1941 25.2062Z" fill="#BAB2AE"/>
<path d="M90.2879 16.467C89.7337 16.512 89.5038 17.0172 89.1149 17.2962C88.4683 17.3367 88.7973 16.6504 88.4812 16.4445C88.5063 16.38 88.5153 16.3029 88.5558 16.2514C89.6009 14.9346 89.6011 14.9359 88.0396 14.115C87.9476 14.0666 87.8927 13.9721 87.8447 13.88C87.9278 13.4511 88.3139 13.4238 88.6198 13.3454C89.0475 13.2358 89.3362 12.9906 89.5502 12.6261C89.6237 12.5599 89.7101 12.5253 89.8086 12.521C89.9842 13.7317 90.3641 14.8879 90.7409 16.0449C90.6779 16.2803 90.5184 16.4116 90.2879 16.467Z" fill="#807778"/>
<path d="M91.1522 22.9582C91.7738 23.497 91.6331 23.9847 91.0893 24.4981C90.7703 24.7988 90.3817 25.0571 90.2344 25.5088C90.1329 25.5755 89.9052 25.7124 89.9254 25.5897C90.1788 24.0284 89.6016 22.7035 88.8223 21.4271C89.7425 21.199 90.2659 21.8527 90.8648 22.3408C91.0099 22.5229 91.0635 22.7489 91.1522 22.9582Z" fill="#F8F6F7"/>
<path d="M87.6115 20.5586C86.7423 20.2714 85.8731 19.9842 84.8029 19.6305C86.0136 18.9269 86.7707 17.8629 87.9118 17.2576C87.6102 18.34 87.8985 19.4747 87.6115 20.5586Z" fill="#F2EFEF"/>
<path d="M87.6115 20.5586C87.5108 19.4406 87.1045 18.2954 87.9118 17.2576C88.4028 18.0343 89.0084 18.7392 89.3709 19.5965C89.7827 19.9765 89.3481 19.9544 89.1565 20.0487C89.0005 20.1139 88.5291 19.6918 88.746 20.3416C88.8746 20.7268 88.9739 21.183 88.317 21.2294C88.0818 21.0062 87.8466 20.7824 87.6115 20.5586Z" fill="#A9A1A1"/>
<path d="M79.7489 16.9463C79.5361 18.7841 79.5151 20.6183 79.8238 22.4479C79.6655 22.5003 79.5074 22.5524 79.3488 22.6051C78.8308 20.4933 78.8391 18.3693 79.2137 16.2366C79.3674 16.2341 79.5209 16.2313 79.6752 16.2288C79.6998 16.4673 79.7243 16.7073 79.7489 16.9463Z" fill="#504B49"/>
<path d="M81.8852 21.0113C80.8767 20.7072 80.9614 20.05 81.3359 19.2996C81.2402 19.1599 81.2542 19.022 81.3427 18.8851C81.6459 18.6424 81.5895 18.2683 81.694 17.9517C81.7652 17.7359 81.5674 17.3199 81.9908 17.3522C82.283 17.3744 82.6157 17.5274 82.513 17.9791C82.4855 18.0999 82.5483 18.2412 82.5695 18.3731C82.9238 19.2288 82.5121 19.9722 82.2187 20.7331C82.1077 20.8258 81.9962 20.9186 81.8852 21.0113Z" fill="#A39E9F"/>
<path d="M91.4002 25.6366C92.0638 25.7516 92.2804 26.4256 92.7848 26.7436C93.5301 27.2133 94.3074 27.5694 95.2124 27.5581L95.206 27.5493C95.6217 27.9484 96.1682 27.5664 96.6143 27.7821C96.5858 28.1459 96.5578 28.5103 96.5294 28.8742C96.2285 28.7935 95.9272 28.7122 95.6264 28.6315C95.5283 28.6149 95.4306 28.5981 95.3326 28.5815C95.068 28.6202 94.817 28.5699 94.5723 28.4721C94.0861 28.2625 93.6518 27.9581 93.1799 27.7208C92.3669 27.2547 91.4421 26.919 91.0802 25.9263C91.187 25.8302 91.2935 25.7333 91.4002 25.6366Z" fill="#635957"/>
<path d="M87.9364 13.8422C88.6668 14.1026 89.5634 14.1113 89.6173 15.2458C89.6584 16.111 88.774 15.9698 88.4812 16.4445C88.1603 15.5283 87.856 14.607 87.6979 13.6446C87.8307 13.6463 87.9104 13.712 87.9364 13.8422Z" fill="#B3AAA8"/>
<path d="M87.8205 22.9201C87.9269 23.1228 88.0335 23.3259 88.1399 23.5287C87.8171 23.7961 87.6795 23.3621 87.4327 23.3069C86.9571 23.1999 86.8205 23.48 86.575 23.7186C86.0852 24.1945 85.9007 25.2737 84.8249 24.6523C85.156 24.3435 84.8878 24.1604 84.6725 23.9885C84.4409 23.8037 84.0435 23.8198 83.9838 23.3904C84.3198 23.3525 84.5997 23.5047 84.8116 23.699C85.2817 24.1307 85.3829 23.957 85.6745 23.455C85.9332 23.0095 86.5609 22.7785 87.0259 22.4527C87.3233 22.5533 87.4093 23.0123 87.8205 22.9201Z" fill="#7F797B"/>
<path d="M88.317 21.2294C89.016 20.6911 88.3999 20.2325 88.222 19.68C88.5783 19.5556 88.8479 19.657 89.063 19.9644C89.3407 20.348 89.3805 20.3577 89.8616 20.3245C89.9499 20.3185 90.0388 20.4162 90.1188 20.4802C90.5435 20.8438 90.6972 21.407 91.1059 21.8019C91.2573 21.948 91.4292 22.5916 90.7094 22.4852C90.1894 21.9381 89.4643 21.7555 88.8213 21.4271C88.5904 21.5217 88.4452 21.3972 88.317 21.2294Z" fill="#655756"/>
<path d="M90.7094 22.4852C91.016 22.0686 90.9969 22.1055 90.5668 21.8778C90.4045 21.7918 90.0219 21.7192 90.1382 21.4117C90.2307 21.1665 90.475 21.4908 90.7474 21.4406C90.45 21.0999 90.213 20.8285 89.9763 20.5568C89.982 20.4539 89.9057 20.3501 89.9802 20.248C90.7075 20.9243 91.4337 21.6006 92.161 22.2769C92.0349 22.6063 92.6226 22.62 92.4643 22.9634C92.6238 23.0273 92.8909 23.0026 92.6845 23.3194C92.5365 23.546 92.3052 23.6541 92.0919 23.6905C91.9016 23.7226 91.9086 23.4483 91.8565 23.2937C91.7369 22.9403 91.6735 22.471 91.1522 22.9582C91.0046 22.8006 90.8567 22.6432 90.7094 22.4852Z" fill="#90837F"/>
<path d="M84.3256 33.6324C85.1356 32.8821 86.0005 33.0072 86.3777 33.9731C86.5319 34.3677 86.0716 34.615 85.9477 34.9573C85.8853 35.1302 85.7206 35.0813 85.6224 34.9635C85.3151 34.5949 85.822 34.3742 85.815 33.9854C85.0276 34.8398 84.6237 34.4083 84.3301 33.6126L84.3256 33.6324Z" fill="#CAC2BE"/>
<path d="M82.2187 20.7331C82.3357 19.9465 82.4525 19.1597 82.5695 18.3731C82.7858 18.2071 82.6588 17.7221 83.0279 17.7557C83.4511 17.7941 83.279 18.2522 83.4106 18.5046C83.613 18.8932 83.103 19.398 83.62 19.7238C83.285 20.2441 82.7055 20.4238 82.2187 20.7331Z" fill="#8F8A8A"/>
<path d="M90.5885 37.0931C90.102 37.3611 88.4059 37.0476 88.2792 36.6197C88.1792 36.2814 88.3132 35.8201 88.6063 35.6841C88.972 35.5143 88.8957 35.8712 88.8406 36.0964C89.0117 36.0033 89.1829 35.9101 89.3541 35.8169C89.7017 35.8532 89.9562 36.1043 90.2775 36.2153C90.6796 36.354 90.8658 36.6647 90.5885 37.0931Z" fill="#978D8B"/>
<path d="M92.2131 28.3612C92.1447 28.3181 92.0765 28.2753 92.0081 28.2322C91.445 28.0682 90.9174 27.8479 90.5767 27.3316C90.4028 26.7994 89.8377 27.11 89.5367 26.8506C89.5934 26.7008 89.6498 26.5502 89.7061 26.4007C90.0657 26.2921 90.3723 26.0103 90.7832 26.0676C91.6071 26.5467 92.4038 27.0505 92.5431 28.1188C92.4842 28.2699 92.3799 28.3581 92.2131 28.3612Z" fill="#9C9291"/>
<path d="M87.9364 13.8422C87.857 13.7762 87.7771 13.7103 87.6979 13.6446C87.6594 13.3026 87.5165 12.9677 87.637 12.6157C88.2322 12.5263 88.8276 12.4371 89.4227 12.3477C89.6157 12.4079 89.7414 12.5027 89.6144 12.7257C89.5483 13.0988 89.6312 13.5359 88.9836 13.5119C88.6391 13.4997 88.2857 13.7245 87.9364 13.8422Z" fill="#B4ADAD"/>
<path d="M99.7606 37.7478C99.8094 37.9505 99.8479 38.1556 99.9093 38.3542C100.069 38.8745 99.88 38.977 99.3816 38.8781C98.8301 38.7683 98.4151 39.3964 97.8257 39.2326C97.8694 38.6019 97.6262 37.7712 98.8307 38.0736C99.0574 38.1303 99.543 38.1028 99.771 37.7497L99.7606 37.7478Z" fill="#A19995"/>
<path d="M90.5885 37.0931C90.7743 36.0896 89.5878 36.4145 89.3541 35.8169C89.4011 35.7623 89.4483 35.7073 89.4953 35.6526C90.3907 36.04 91.2851 36.4273 92.1805 36.8147C92.2175 36.9005 92.2251 36.9886 92.2 37.0791C92.0451 37.4572 91.8655 37.8201 91.5383 38.0862C91.3381 38.097 91.1169 37.9867 91.1872 37.8152C91.46 37.1495 90.9641 37.1839 90.5885 37.0931Z" fill="#51494A"/>
<path d="M101.776 36.1941C101.568 36.0118 101.378 36.0453 101.121 36.1488C100.693 36.3221 100.574 36.063 100.64 35.6726C101.17 35.1722 101.859 35.2348 102.503 35.1402C102.759 35.1547 103.028 34.954 103.271 35.1736C103.31 35.4788 102.83 35.5291 102.947 35.8633C102.565 36.0043 102.253 36.3933 101.776 36.1941Z" fill="#A59EA5"/>
<path d="M92.1805 36.8147C92.961 37.0315 93.7419 37.2483 94.5224 37.4651C94.6205 37.5724 94.7185 37.68 94.8166 37.7873C94.8229 37.8672 94.8002 37.9174 94.7493 37.9379C94.6984 37.9584 94.6657 37.9613 94.6512 37.9463L94.5976 37.8915L94.5535 37.8285C93.9598 37.7013 93.9815 38.4859 93.5074 38.5357C93.4008 38.5394 93.2945 38.5428 93.1876 38.5461C93.1462 38.4192 93.1164 38.293 93.2013 38.1705C93.0571 38.2547 93.1026 38.4556 92.9697 38.5469C92.7981 38.5007 92.6266 38.4544 92.4555 38.4082C92.3825 38.2063 92.6049 38.0384 92.523 37.8356C92.4579 37.9121 92.3774 37.9621 92.2738 37.9808C91.7165 37.7042 92.0965 37.3249 92.1608 36.98C92.168 36.9251 92.1743 36.8696 92.1805 36.8147Z" fill="#51494A"/>
<path d="M92.5377 28.0122C92.3794 27.9626 92.0798 27.8982 92.0833 27.8654C92.1895 26.8615 91.275 26.7228 90.7486 26.2612C90.3136 26.0414 90.3415 25.8388 90.7723 25.6503C90.8748 25.7424 90.9777 25.8342 91.0802 25.9263C91.7696 26.5627 92.5302 27.0972 93.3704 27.5166C93.3311 28.0827 92.8639 27.9288 92.5377 28.0122Z" fill="#DFD7D8"/>
<path d="M102.829 37.5915C102.862 37.6532 102.883 37.6822 102.893 37.7147C103.051 38.2194 102.521 38.4224 102.341 38.3957C101.775 38.3123 101.251 39.2305 100.709 38.4687C100.641 38.3724 100.691 38.0741 100.787 38.0015C101.015 37.8286 101.045 38.0822 101.099 38.2297C101.179 38.4509 101.361 38.3536 101.359 38.2488C101.336 37.255 102.485 38.2752 102.584 37.5225C102.673 37.5476 102.763 37.5727 102.829 37.5915Z" fill="#8B827E"/>
<path d="M95.8673 38.9306C96.2333 38.724 96.0125 37.9282 96.7305 38.0732C97.0229 38.1321 97.4452 37.9119 97.5865 38.2593C97.7502 38.6616 97.5136 38.9934 97.0837 39.1666C96.7391 39.0056 97.1157 38.6336 96.8348 38.4034C96.4952 38.4832 96.633 39.6848 95.8683 38.9082L95.8673 38.9306Z" fill="#C8C2BE"/>
<path d="M84.3301 33.6126C83.8817 33.4591 83.285 33.3657 83.8077 32.6914C84.0371 32.3954 84.4224 32.2746 84.7179 32.5642C85.0336 32.8733 84.5191 32.9566 84.4494 33.1803C84.403 33.3298 84.2158 33.4364 84.3256 33.6324L84.3301 33.6126Z" fill="#CAC2BE"/>
<path d="M95.2767 38.0045C95.8493 37.9213 95.8496 37.9216 95.8673 38.9306L95.8683 38.9082C95.5211 38.9728 95.1431 39.1605 94.9342 38.6753C94.8243 38.3371 94.851 38.0693 95.2767 38.0045Z" fill="#C8C2BE"/>
<path d="M89.9802 20.248C89.979 20.3509 89.9774 20.4538 89.9763 20.5568C89.8718 20.5788 89.7576 20.1903 89.6897 20.5372C89.6595 20.6901 90.0022 20.7915 89.9447 21.1418C89.5762 20.7492 89.0608 20.5717 89.063 19.9644C89.212 19.8811 89.4593 19.879 89.3709 19.5965C89.8496 19.5557 89.6714 20.1294 89.9802 20.248Z" fill="#B6A9A8"/>
<path d="M95.2767 38.0045C95.1625 38.2282 95.0485 38.4521 94.9342 38.6753C94.8049 38.9249 94.55 39.0532 94.3942 38.8246C94.1745 38.503 94.6149 38.2604 94.6512 37.9463C94.7064 37.8933 94.7615 37.8403 94.8166 37.7873C95.0069 37.7816 95.1776 37.8171 95.2767 38.0045Z" fill="#CCC6C3"/>
<path d="M78.6486 24.1181C78.5875 24.2008 78.5359 24.2934 78.4628 24.3641C78.2706 24.5504 78.1168 24.8121 77.8059 24.8C77.7405 24.7975 77.6404 24.67 77.6248 24.5872C77.5427 24.1478 77.9436 24.1369 78.1841 23.9811C78.2696 23.9258 78.3408 23.8473 78.4186 23.78C78.4953 23.8925 78.572 24.0056 78.6486 24.1181Z" fill="#A19D9C"/>
<path d="M87.5062 36.5101C87.564 35.8664 87.7475 35.5336 88.0739 35.2792C88.1076 35.2528 88.3155 35.3665 88.3112 35.3871C88.2261 35.78 88.0764 36.1381 87.5062 36.5101Z" fill="#D9D4D2"/>
<path d="M87.5321 34.8395C87.5089 35.3131 87.4335 35.7567 86.7997 35.973C86.8475 35.4028 87.1022 35.0696 87.5321 34.8395Z" fill="#DDD7D7"/>
<path d="M92.1608 36.98C92.4514 37.2203 91.9844 37.6075 92.3252 37.838C92.3417 37.9869 92.2775 38.0805 92.1325 38.1186C91.9256 38.2656 91.7305 38.1955 91.5383 38.0862C91.669 37.6745 91.722 37.2191 92.1608 36.98Z" fill="#CCC3C2"/>
<path d="M93.5074 38.5357C93.7743 38.1788 93.7376 37.3718 94.5535 37.8285C94.0654 37.8575 94.3664 39.056 93.5074 38.5357Z" fill="#CCC6C3"/>
<path d="M92.1325 38.1186C92.1969 38.0252 92.2608 37.9314 92.3252 37.838C92.4837 37.6032 92.5197 37.2185 93.0807 37.3408C92.8759 37.7269 92.8303 38.1432 92.4555 38.4082C92.3482 38.3117 92.2403 38.2151 92.1325 38.1186Z" fill="#C7C5BF"/>
<path d="M92.9697 38.5469C92.9383 38.0698 93.1174 37.7184 93.6079 37.4316C93.6815 37.9615 93.185 38.1582 93.1876 38.5461C93.1147 38.5463 93.0421 38.5467 92.9697 38.5469Z" fill="#D2D2CB"/>
<path d="M86.7621 34.3385C87.0193 34.8627 86.7078 35.1342 86.336 35.4767C86.0567 34.8749 86.7237 34.7255 86.7621 34.3385Z" fill="#EFEDEC"/>
<path d="M90.7723 25.6503C90.4775 25.8433 90.5305 26.0495 90.7486 26.2612C90.401 26.3078 90.0537 26.3541 89.7061 26.4007C90.0826 26.1801 90.208 25.6036 90.7723 25.6503Z" fill="#635957"/>
<path d="M40.4744 97.1014C40.538 96.9089 40.4123 96.7802 40.3204 96.6404C40.1872 96.2416 40.3814 95.9111 40.6989 95.7911C41.2306 95.5899 41.1972 95.1237 41.3481 94.7346C41.492 93.9801 41.4883 93.1768 42.4423 92.8407C42.7594 92.7291 43.0653 92.3446 43.2037 92.0128C43.5706 91.1342 44.2204 90.6368 45.0827 90.3495C45.3098 90.3354 45.4493 90.4638 45.5588 90.6412C45.5995 90.7304 45.6238 90.8244 45.633 90.9219C45.6006 91.4144 45.7525 91.9628 45.1926 92.294C44.915 92.4581 45.2524 92.4312 45.2755 92.4624C45.4986 92.7627 45.4998 93.0965 45.473 93.4419C44.9721 94.5396 43.947 95.2276 43.3034 96.2139C42.5566 96.7327 42.408 97.638 41.9353 98.3336C41.4479 97.923 40.961 97.5123 40.4744 97.1014Z" fill="#CDC8C9"/>
<path d="M45.3671 89.7595C45.2173 89.2544 46.2082 89.2689 45.8635 88.6751C46.7848 88.3171 47.2657 87.5087 47.812 86.7667C48.2807 86.8404 48.7771 86.8664 48.8882 86.2772C48.9762 85.8117 49.1164 85.3413 49.6173 85.5603C50.1075 85.7751 50.6522 86.1605 50.4575 86.9095C50.4057 87.1091 50.2116 87.2507 50.2451 87.4782C49.7552 88.7441 49.2231 89.9906 48.5325 91.1639C47.9538 91.8242 47.4333 91.5576 46.927 91.0727C46.8196 91.0443 46.7184 91.0566 46.6514 91.151C46.4784 91.3957 46.4052 91.8011 45.9897 91.6963C45.5694 91.5907 45.553 91.2035 45.5346 90.8472L45.5448 90.773C46.0361 90.3376 45.8182 90.0278 45.3671 89.7595Z" fill="#C1BCBC"/>
<path d="M47.0252 90.8521C47.4328 91.4098 47.9732 91.3322 48.5325 91.1639C48.6678 91.7803 48.4393 92.2651 47.9569 92.6295C47.3575 93.0825 47.0779 93.6849 47.0066 94.416C46.9833 94.652 46.9622 94.9684 46.8114 95.0999C45.1085 96.5824 44.5699 98.7654 43.451 100.596C43.418 100.65 43.3463 100.68 43.2541 100.75C43.2083 99.9767 42.8118 99.3847 42.3842 98.8073C42.5445 98.0984 43.0476 97.6437 43.5757 97.2098C43.7497 97.067 44.0369 97.0096 43.9346 96.6815C43.8641 95.5974 44.5584 94.8245 45.2127 94.172C45.7896 93.5963 46.0606 92.9948 46.1939 92.258C46.3753 91.9532 46.2513 91.3599 46.9238 91.5087C47.0484 91.5363 46.921 91.4131 46.9101 91.3716C46.8579 91.1747 46.7502 90.9747 47.0252 90.8521Z" fill="#EEEAEA"/>
<path d="M53.1988 76.4508C53.3963 76.8831 54.4515 76.8042 53.8878 77.6082C54.4033 78.1043 54.3959 76.9036 54.8881 77.3796C54.6583 78.5282 54.0169 79.5013 53.5373 80.5437C53.4027 80.6046 53.3508 80.2097 53.1641 80.4881C52.9634 80.7874 52.9086 81.1301 52.8081 81.4619C52.3933 82.8298 51.6035 83.1519 50.2739 82.5019C49.9931 82.0974 50.2411 81.762 50.4594 81.4648C50.8554 80.9258 51.0912 80.3205 51.3014 79.6985C51.3218 79.6031 51.3583 79.5146 51.4049 79.4293C51.781 78.856 51.9643 78.194 52.2548 77.5811C52.5106 77.1549 52.5272 76.5283 53.1988 76.4508Z" fill="#DFDBDA"/>
<path d="M50.2451 87.4782C50.4707 86.8254 50.2142 86.3311 49.7559 85.8809C49.6277 85.755 49.5431 85.5732 49.3482 85.7027C49.1981 85.8026 48.9979 85.8837 49.1614 86.1809C49.419 86.6497 48.9954 86.7858 48.6832 86.9483C48.3946 87.0984 48.0764 87.4487 47.8835 86.8468C47.8572 86.2875 48.1754 85.8762 48.4807 85.4593C48.8837 85.3559 49.0965 85.1093 49.2072 84.6914C49.5128 83.5378 50.9716 83.024 52.152 83.6251C51.6012 84.951 51.0027 86.2539 50.2451 87.4782Z" fill="#DBD6D5"/>
<path d="M52.152 83.6251C51.3695 83.6565 50.611 83.6947 49.8629 84.056C49.4834 84.2391 49.6156 84.4905 49.4863 84.6787C49.2673 84.9975 49.5581 85.9168 48.6335 85.5146C48.5571 85.4003 48.5133 85.2642 48.5812 85.1479C48.6777 84.9828 48.6989 84.8675 48.4891 84.7951C48.4488 84.2202 48.7785 83.8838 49.2356 83.629C49.491 83.5177 49.6719 83.3738 49.7066 83.0523C49.7431 82.7102 49.8881 82.4025 50.3141 82.3824C52.0083 82.7786 52.3635 82.551 52.6869 80.8475C52.8005 80.2489 52.9547 79.8056 53.5373 80.5437C53.1619 81.6096 52.7461 82.6575 52.152 83.6251Z" fill="#BBB5B5"/>
<path d="M44.0988 96.7992C44.4725 96.7226 44.433 97.0771 44.3018 97.1129C43.3709 97.3668 43.0858 98.3195 42.3842 98.8073C42.2346 98.6495 42.085 98.4913 41.9353 98.3336C41.8988 97.3696 42.4221 96.7042 43.112 96.1268C43.6977 96.1274 43.6977 96.1274 43.3334 96.8187C43.5751 96.5444 43.8295 96.4675 44.0988 96.7992Z" fill="#9F9998"/>
<path d="M38.3801 97.0489C37.46 97.0044 36.5265 96.8803 35.7121 97.5589C35.4493 97.0602 35.6662 96.7637 36.0328 96.5131C37.0065 96.3469 37.9449 96.4053 38.8052 96.9497C38.7136 97.1996 38.5486 97.1326 38.3801 97.0489Z" fill="#EAE8E8"/>
<path d="M38.3801 97.0489C38.5219 97.0159 38.6633 96.9828 38.8052 96.9497C39.3577 97.1096 40.0313 96.9982 40.3668 97.6443C40.6197 97.7611 40.8607 97.8884 40.8825 98.214C40.4978 98.2323 40.3447 97.8243 40.0303 97.7446C39.7086 97.8961 39.8031 98.3994 39.3886 98.457C39.084 98.2365 39.1749 97.6278 38.4929 97.7248C38.1289 97.7762 38.6125 97.2553 38.3801 97.0489Z" fill="#847A7B"/>
<path d="M40.8825 98.214C40.7106 98.0242 40.5389 97.8343 40.3668 97.6443C41.5624 98.2643 42.3361 99.2564 42.8034 100.49C42.9128 100.779 43.0646 101.275 42.5947 101.355C42.2454 101.415 42.3494 100.936 42.298 100.697C42.087 99.7146 41.655 98.8702 40.8825 98.214Z" fill="#DFD8D9"/>
<path d="M78.4302 23.4938C78.1345 23.6687 77.8385 23.8444 77.5046 24.0421C77.5433 23.3828 77.1391 22.624 78.1595 22.346C78.4473 22.6615 78.2092 23.139 78.428 23.4884L78.4302 23.4938Z" fill="#A19D9C"/>
<path d="M77.2487 21.8172C77.3055 21.3736 76.8095 20.8628 77.4294 20.5384C77.5799 20.4597 77.8532 20.4056 77.8984 20.5629C78.0604 21.1306 77.6755 21.4902 77.2487 21.8172Z" fill="#C8C3C3"/>
<path d="M77.0875 20.2311C77.1132 20.0616 77.1058 19.9129 77.1598 19.7916C77.2985 19.481 76.9567 18.9563 77.552 18.8598C77.7057 18.8348 77.7831 19.0111 77.7401 19.1543C77.6207 19.5511 78.1439 20.2874 77.0875 20.2311Z" fill="#C8C3C3"/>
<path d="M39.5051 98.9176C39.9049 99.4245 39.2135 99.7896 39.3276 100.26C38.5164 100.052 38.4922 99.7072 39.2303 98.8748C39.297 98.8765 39.3573 98.8565 39.4104 98.8159C39.4332 98.8584 39.4641 98.8921 39.5051 98.9176Z" fill="#A8A09F"/>
<path d="M77.2415 22.8362C77.2224 22.0856 77.674 21.9415 78.0423 21.6683C78.1527 22.3171 77.6892 22.4961 77.2415 22.8362Z" fill="#CDC7C7"/>
<path d="M33.4026 102.547C34.1476 101.209 34.9894 99.9334 35.896 98.7017C36.4696 97.9226 37.3588 97.7767 38.1898 98.2429C38.5012 98.4179 38.5912 98.5974 38.3862 98.8979C38.4961 99.5686 38.0011 99.9912 37.7139 100.493C37.2794 101.251 36.7058 101.918 36.2341 102.652C36.075 102.9 35.91 103.115 35.5681 103.022C34.8464 102.864 34.1246 102.705 33.4026 102.547Z" fill="#FBFBFB"/>
<path d="M39.5593 100.097C39.9093 99.5201 40.1692 99.372 40.5408 100.133C40.926 100.923 40.6608 101.603 40.4265 102.321C40.2831 102.561 40.1397 102.802 39.9966 103.042C38.9228 104.844 38.9228 104.844 37.1203 103.667C37.4866 103.16 37.8516 102.656 38.2166 102.151C38.1806 101.151 39.0673 100.753 39.5593 100.097Z" fill="#FBFBFA"/>
<path d="M39.5593 100.097C39.2883 100.897 38.6719 101.471 38.2166 102.151C37.8017 102.152 37.6207 102.497 37.4313 102.758C36.8834 103.513 36.2864 103.628 35.5681 103.022C36.5073 101.648 37.4468 100.272 38.3862 98.8979C38.677 99.2534 38.9374 98.4359 39.2303 98.8748C39.2341 99.3384 38.312 99.8695 39.3276 100.26C39.4047 100.205 39.4823 100.151 39.5593 100.097Z" fill="#736A6A"/>
<path d="M20.132 98.8277C21.7191 99.1137 23.3063 99.4008 24.7288 100.225C24.8576 100.315 24.9865 100.405 25.1154 100.495L25.0451 100.54C24.7768 100.945 25.4632 101.087 25.2976 101.463C19.9598 97.7685 13.2231 99.5651 9.18084 104.259C6.71728 107.121 5.45827 110.553 4.78204 114.222C4.58392 114.52 4.3776 114.503 4.16546 114.238C5.12215 108.935 7.17639 104.248 11.7594 101.038C14.267 99.2824 17.0953 98.6263 20.132 98.8277Z" fill="#3F3433"/>
<path d="M21.9598 102.26C22.0164 102.014 22.0213 101.74 21.8384 101.578C21.4812 101.263 21.9794 100.996 21.8434 100.71C22.13 100.678 22.2948 100.338 22.6873 100.497C23.3341 100.759 24.0185 100.922 24.6144 101.312C25.5249 101.906 25.5213 101.929 24.7758 102.915C24.6316 103.106 25.1049 103.239 24.9011 103.568C24.5038 103.714 24.2405 103.115 23.8152 103.259C23.0205 103.251 22.5451 102.653 21.9598 102.26Z" fill="#9E9897"/>
<path d="M21.9598 102.26C22.5979 102.556 23.2821 102.768 23.8152 103.259C23.9781 103.526 24.4817 103.554 24.3503 104.026C23.7459 103.702 24.1608 104.827 23.6074 104.553C23.2323 104.368 22.8718 104.153 22.4372 104.169C22.5409 104.585 23.1866 104.392 23.2448 104.881C22.1252 104.782 21.8209 104.463 21.8417 103.425C21.85 103.018 21.85 103.018 22.5706 103.009C22.4558 102.659 22.0293 102.718 21.8484 102.457C21.8308 102.431 21.8131 102.378 21.8253 102.364C21.8619 102.322 21.9137 102.293 21.9598 102.26Z" fill="#979293"/>
<path d="M33.2843 104.68C33.6175 104.724 33.9507 104.768 34.2839 104.811C40.4634 106.967 43.243 111.773 44.0905 117.856C44.6202 121.66 43.7153 125.271 41.2199 128.327C36.8277 133.708 30.1274 133.916 25.5788 128.706C21.096 123.57 20.2842 117.58 22.5151 111.301C23.8849 107.446 26.9048 105.161 31.0877 104.656C31.2363 104.989 31.1154 105.284 30.9593 105.575C30.862 105.706 30.7372 105.799 30.5793 105.843C27.968 105.37 26.3281 106.898 24.8028 108.661C21.5667 113.06 21.5662 117.887 23.0188 122.838C23.9493 126.01 25.955 128.473 28.6401 130.375C31.4472 132.363 35.3042 132.18 38.3253 130.093C41.3782 127.983 42.6641 124.937 43.1678 121.454C43.8185 116.953 42.4018 113.008 39.8082 109.402C39.1192 108.443 38.0587 107.894 37.2798 107.039C36.8059 106.566 36.1533 106.391 35.606 106.041C34.9883 105.755 34.3469 105.534 33.6913 105.353C33.4035 105.273 33.0567 105.258 33.0752 104.822C33.1042 104.715 33.172 104.665 33.2843 104.68Z" fill="#403636"/>
<path d="M33.2843 104.68C33.2132 104.742 33.1421 104.804 33.0712 104.865C33.1755 105.294 33.1322 105.694 32.5809 105.624C32.0044 105.551 31.352 106.152 30.8498 105.445C30.9292 105.182 31.0083 104.919 31.0877 104.656C31.4727 104.586 31.8583 104.515 32.2433 104.444C32.645 104.281 32.9508 104.541 33.2843 104.68Z" fill="#645A58"/>
<path d="M25.0451 100.54L25.1154 100.495C25.7949 100.897 26.5248 101.228 27.0362 101.867C26.3619 101.439 25.5478 101.223 25.0451 100.54Z" fill="#332426"/>
<path d="M53.1988 76.4508C52.9241 76.8937 52.6496 77.3369 52.3748 77.7798C51.957 78.3238 51.7875 78.9996 51.4213 79.5713L51.4259 79.5589C51.2068 80.1664 50.9588 80.759 50.5468 81.2679C50.234 81.5042 49.8736 81.5562 49.4962 81.541C48.9891 80.8392 49.163 80.3595 50.0682 79.9665C50.2035 79.8209 50.1629 80.4626 50.3332 80.0328C50.4306 79.7869 50.4837 79.5221 50.6155 79.287C50.9528 78.9742 50.9906 78.4695 51.2804 78.152C50.9922 78.2947 50.6696 78.8092 50.2993 78.1695C50.0986 77.8228 49.8569 77.9348 49.6364 78.2057C49.3854 78.514 49.1171 78.7305 48.9299 78.1475C49.7239 76.4634 50.5083 74.7746 51.3192 73.0982C51.5181 72.6872 51.8015 72.284 52.2598 72.8834C52.521 73.2249 52.682 72.5164 52.9963 72.8958C52.6906 73.1078 52.8939 74.1416 52.0291 73.3603C51.942 73.468 51.8549 73.5762 51.7678 73.684C51.4457 74.0995 51.4001 74.4883 51.8745 74.8276C51.906 74.8578 51.9346 74.8907 51.9604 74.9263C51.8205 74.9105 52.1454 74.9731 52.0139 75.0221C52.0065 75.0248 52.0213 75.087 52.0259 75.1215C52.3519 74.811 52.6139 74.4463 52.8943 74.0973C52.8283 73.6434 53.1235 73.3607 53.3868 73.0631C53.6298 73.4141 54.3202 72.7633 54.3875 73.5079C54.2119 73.9139 54.0953 74.3511 53.7629 74.6732C53.2931 75.1768 53.8716 76.0111 53.1988 76.4508Z" fill="#E4E1E3"/>
<path d="M67.251 52.7191C67.1981 53.2154 66.7372 53.3939 66.4696 53.7225C66.0644 53.7336 65.7865 53.5555 65.6446 53.1726C65.5929 52.9008 65.4889 52.6318 65.6268 52.3514C66.2609 51.0612 66.9022 49.7695 67.8019 48.6429C68.0015 48.3931 68.1518 48.2147 68.2277 47.883C68.3475 47.3584 68.5469 46.7783 69.0724 46.5197C69.4627 46.3276 69.5267 46.0964 69.5613 45.7081C69.6012 45.2598 69.5756 44.6648 70.3102 44.6809C70.9955 45.0147 70.5876 45.7674 70.9396 46.2922C71.3528 45.7476 71.758 45.2133 72.1633 44.6793C72.0898 45.508 71.5923 46.0811 71.1305 46.6734C71.0501 46.8142 70.9707 46.9544 70.89 47.0948C70.2345 47.3791 70.0218 48.0224 69.6906 48.5701L69.6981 48.5504C69.302 49.1778 68.5606 49.6216 68.6528 50.5086C68.6397 50.7558 68.4704 50.9061 68.3102 51.0621C67.6896 51.4446 67.4523 52.0702 67.251 52.7191Z" fill="#D7D3D3"/>
<path d="M70.3102 44.6809C69.867 44.8919 69.6826 45.4382 69.767 45.7155C69.9863 46.4344 69.7582 46.6182 69.1149 46.7898C68.9819 46.8253 68.5024 47.3713 68.5205 47.7144C68.5748 48.7546 67.4672 49.0646 67.2624 49.7568C66.9381 50.8535 66.1011 51.5888 65.7317 52.6016C65.6917 52.7109 65.9571 52.8647 65.8624 53.066C65.2501 53.6857 64.9723 54.534 64.4149 55.1863C64.1469 55.4999 63.9807 56.0272 63.3838 55.855C63.1867 55.7016 63.249 55.4978 63.2763 55.3003C63.3843 54.5105 63.8122 53.8724 64.2548 53.2412C64.8569 52.8629 65.1038 52.2661 65.2586 51.6125C66.5396 49.0228 68.1939 46.6558 69.6972 44.1984C69.8259 43.9877 70.0427 43.7219 70.2628 43.8399C70.6345 44.0386 70.2991 44.3935 70.3102 44.6809Z" fill="#9B9595"/>
<path d="M49.388 81.4883C49.6774 81.2105 50.0822 81.3062 50.4151 81.1694C50.5831 81.8246 50.0398 82.2262 49.8535 82.7548C49.727 83.1136 49.458 83.4147 49.4327 83.8115C48.9423 83.9979 48.6578 84.3469 48.5946 84.8709C48.5459 85.1804 48.6202 85.5653 48.1399 85.6097C47.6864 85.6622 47.3998 85.4635 47.6346 85.0305C48.1418 84.0945 48.0206 83.3937 47.0558 82.8863C46.9305 82.8205 46.7871 82.6932 46.8686 82.561C47.6244 81.3311 47.797 79.8309 48.686 78.6647C48.9604 78.669 49.2014 78.7193 49.444 78.4391C49.8898 77.9247 50.0456 78.3091 50.1278 78.7449C49.7298 79.4166 49.1832 80.0141 48.9849 80.7854C48.9134 81.0623 48.5855 81.6467 49.388 81.4883Z" fill="#E2E0E1"/>
<path d="M63.2763 55.3003C63.3414 55.4694 63.4064 55.6386 63.4715 55.8077C63.2332 56.3224 63.1714 56.8886 63.001 57.4234C62.4131 58.2688 61.9914 59.2189 61.3529 60.0326C59.8902 62.3167 58.8263 64.8084 57.6057 67.2183C57.5278 67.3721 57.4751 67.5385 57.3963 67.6918C57.2967 67.8864 57.2941 68.181 56.9046 68.0127C56.4601 67.8205 56.7981 67.5938 56.8683 67.444C57.6064 65.871 58.3418 64.2957 59.1317 62.7483C60.255 60.5484 61.4259 58.3726 62.5711 56.1835C62.7508 55.841 62.9007 55.4832 63.2763 55.3003Z" fill="#857F7F"/>
<path d="M62.93 57.3469C62.6906 56.6873 62.9518 56.2026 63.4715 55.8077C64.11 55.2992 64.5067 54.6447 64.8433 53.8971C64.9938 53.5627 65.1988 52.9322 65.8624 53.066C65.8455 53.4867 66.3332 53.4427 66.4696 53.7225C66.1698 54.194 65.8935 54.6349 65.7462 55.226C65.5893 55.8551 65.2955 56.6519 64.4268 56.8399C63.9361 56.9463 64.1309 57.5044 63.8557 57.7595C63.7958 57.7972 63.7429 57.8421 63.6961 57.8955C63.3219 57.8784 63.0242 57.7541 62.93 57.3469Z" fill="#C7C4C3"/>
<path d="M81.591 30.4378C81.4248 30.5601 80.7841 30.4112 81.298 30.9217C81.5215 31.1437 81.5487 31.3687 81.2975 31.5078C80.9327 31.7098 81.094 31.3055 80.9973 31.1893C80.7556 30.8994 80.4849 30.9021 80.2035 31.1382C79.7908 31.0467 79.8499 30.7417 79.8907 30.4448C80.7265 29.0421 81.905 27.9215 82.9721 26.7088C83.0942 26.7187 83.2231 26.6268 83.3394 26.7316C83.5411 27.3131 83.7706 27.8574 83.2441 28.445C82.8846 28.8461 82.9064 28.9369 82.3797 28.6405C82.0517 28.456 82.0835 28.8603 81.8648 28.9108C81.61 28.9695 81.8813 29.0867 81.9268 29.1907C82.1146 29.6208 81.6694 29.9994 81.591 30.4378Z" fill="#A9A4A2"/>
<path d="M79.8907 30.4448C79.995 30.6761 80.099 30.9072 80.2035 31.1382C79.8742 31.4068 80.1997 31.9702 79.7328 32.1769C79.5459 32.3921 79.8018 32.7447 79.4885 32.9356C79.1651 32.8611 79.4717 32.4784 79.138 32.3359C79.1498 33.4854 78.2599 33.8882 77.4708 34.3792C77.068 34.2038 77.3153 33.8926 77.3169 33.633C78.1285 32.533 78.8452 31.3562 79.8907 30.4448Z" fill="#A39F9E"/>
<path d="M62.93 57.3469C63.1851 57.5295 63.4408 57.7126 63.6961 57.8955C63.1171 59.4742 62.3591 60.1651 61.3529 60.0326C61.1794 59.7126 61.4164 59.3689 61.5448 59.2349C62.0604 58.6968 62.316 58.0585 62.5361 57.3796C62.5518 57.3315 62.7932 57.3561 62.93 57.3469Z" fill="#EEECEC"/>
<path d="M77.3169 33.633C77.3683 33.8816 77.4194 34.1305 77.4708 34.3792C76.4413 35.723 75.413 37.0682 74.3755 38.4058C74.3257 38.4701 74.1897 38.467 74.094 38.4956C73.9794 38.4935 73.9217 38.4351 73.9208 38.3206C74.89 36.6408 76.1495 35.1702 77.3169 33.633Z" fill="#807B7B"/>
<path d="M50.0026 78.7703C49.8544 78.4261 49.6857 78.0415 49.4384 78.6992C49.1252 79.5311 48.9266 78.8607 48.686 78.6647C48.6234 78.4247 48.7297 78.2641 48.9299 78.1475C49.7103 78.5376 49.3791 77.6168 49.8487 77.4624C50.0682 77.6018 50.3584 77.7438 50.5979 78.1006C50.7571 78.338 51.1285 77.9764 51.3061 77.8077C51.4665 77.6554 51.5571 77.4446 51.7563 77.6555C51.9152 77.8233 51.7066 77.9379 51.5797 78.0599C51.187 78.4365 51.355 79.1587 50.7551 79.415C50.7102 79.4157 50.6653 79.4164 50.6202 79.4173C50.4624 79.2735 50.4013 79.0366 50.1762 78.9565C50.1004 78.911 50.0423 78.849 50.0026 78.7703Z" fill="#B6B0B2"/>
<path d="M73.9208 38.3206C73.9785 38.379 74.0364 38.4372 74.094 38.4956C73.0412 40.0995 71.9887 41.7041 70.9352 43.3077C70.8367 43.4572 70.7056 43.6223 70.5221 43.4871C70.3615 43.3689 70.4201 43.1853 70.5334 43.0309C71.678 41.4721 72.6155 39.7644 73.9208 38.3206Z" fill="#756F6F"/>
<path d="M48.1399 85.6097C48.2915 85.3635 48.4432 85.1174 48.5946 84.8709C49.1367 85.0522 48.4874 85.3085 48.6335 85.5146C48.3834 85.9588 48.1336 86.4027 47.8835 86.8468C47.3009 87.5567 47.0282 88.6088 45.8635 88.6751C45.2277 88.3502 44.5923 88.025 43.8406 87.6408C44.4496 87.4696 44.86 87.6517 45.1906 87.8566C46.2028 88.4842 46.7993 88.0765 47.2715 87.1566C47.5416 86.6308 47.8493 86.1242 48.1399 85.6097Z" fill="#423E3E"/>
<path d="M55.2519 72.1421C55.1434 72.2005 55.0381 72.3212 54.894 72.1952C54.7641 72.0814 54.7996 71.9518 54.8574 71.8188C55.1895 71.0582 55.5191 70.2964 55.8542 69.5373C55.923 69.3814 56.0082 69.1816 56.2227 69.297C56.364 69.3727 56.5514 69.5561 56.4377 69.7173C55.9117 70.4622 55.674 71.3424 55.2519 72.1421Z" fill="#898585"/>
<path d="M84.7061 24.7401C84.7969 24.844 84.9079 24.936 84.9748 25.0534C85.185 25.4235 85.175 25.3997 84.6772 25.4659C84.4983 25.4896 84.3414 25.6809 84.1744 25.7955C84.0001 25.8048 83.9146 25.7262 83.9295 25.5481C84.2189 25.2629 84.4259 25.0275 83.9605 24.6606C83.6751 24.4356 83.2048 24.444 83.0766 23.9661C83.7505 23.9842 84.2204 24.3797 84.7061 24.7401Z" fill="#544E50"/>
<path d="M41.3481 94.7346C41.6264 94.6332 41.7832 94.814 41.9687 95.0001C41.7467 95.1762 41.2943 94.9201 41.2602 95.3553C41.2337 95.6988 41.7035 95.4499 41.7884 95.8171C41.0969 95.7314 40.5126 95.8758 40.3204 96.6404C40.0807 96.4858 39.6815 96.4173 40.1397 96.0142C40.5782 95.6281 40.9479 95.1642 41.3481 94.7346Z" fill="#8D898B"/>
<path d="M45.3671 89.7595C45.8173 89.6073 46.1189 89.7252 46.2151 90.2219C46.3308 90.8201 45.7907 90.617 45.5448 90.773C45.3911 90.6312 45.237 90.4908 45.0827 90.3495C45.1775 90.153 45.272 89.9562 45.3671 89.7595Z" fill="#A9A3A4"/>
<path d="M83.9295 25.5481C84.0112 25.6304 84.093 25.713 84.1744 25.7955C84.257 26.4296 84.1397 26.8864 83.3384 26.7316C83.2159 26.724 83.0945 26.7164 82.9721 26.7088C83.2916 26.3217 83.6106 25.9347 83.9295 25.5481Z" fill="#7C7475"/>
<path d="M65.2586 51.6125C65.3505 51.5696 65.4419 51.5261 65.534 51.483C65.2764 52.1915 65.0697 52.9375 64.2548 53.2412C64.5895 52.6982 64.9239 52.1555 65.2586 51.6125Z" fill="#605A59"/>
<path d="M51.8745 74.8276C51.6387 74.89 51.2868 74.9248 51.2522 74.702C51.1895 74.2984 51.4309 73.9425 51.7678 73.684C51.8836 73.8867 51.4544 74.2549 52.0382 74.3587C52.2911 74.4036 51.8816 74.643 51.8745 74.8276Z" fill="#A9A3A5"/>
<path d="M52.8943 74.0973C52.5724 74.6405 52.2501 75.1834 51.9282 75.7267C51.8754 75.7015 51.8229 75.6761 51.7702 75.6509C51.8336 75.4092 51.897 75.168 51.9604 74.9263C52.3534 74.7422 52.4269 74.1977 52.8943 74.0973Z" fill="#A9A3A5"/>
<path d="M53.7629 74.6732C53.8447 74.217 53.8903 73.7418 54.3875 73.5079C54.4763 74.0552 54.4426 74.537 53.7629 74.6732Z" fill="#928E90"/>
<path d="M94.5339 19.3159C90.7143 15.5228 90.286 9.33034 93.612 5.55192C95.4981 3.40945 98.0655 2.80837 100.744 2.68234C107.516 2.36345 113.322 8.55804 112.831 15.3229C112.402 21.222 106.809 23.8425 102.485 23.2452C99.4171 22.8209 96.7582 21.5248 94.5339 19.3159Z" fill="#3E3937"/>
<path d="M90.2879 16.467C90.4389 16.3263 90.5897 16.1854 90.7409 16.0449C93.2337 21.4698 100.629 25.9007 107.375 24.3891C107.424 24.3781 107.491 24.4415 107.549 24.4704C107.135 24.9229 106.517 24.807 106.018 25.0246C101.063 25.3825 96.8501 23.7092 93.246 20.3754C92.4275 19.4523 91.6426 18.4959 90.7744 17.6225C90.4231 17.2692 90.9279 16.6376 90.2879 16.467Z" fill="#3E3938"/>
<path d="M89.6144 12.7257C89.5505 12.5999 89.4866 12.4736 89.4227 12.3477C89.1331 8.59341 90.3893 5.57562 93.6488 3.50876C90.7692 5.83647 89.5432 8.86221 89.8086 12.521C89.7434 12.5892 89.6791 12.6575 89.6144 12.7257Z" fill="#4B4747"/>
<path d="M99.1143 34.8316C98.6771 34.8725 98.2402 34.939 97.8022 34.9488C97.0184 34.9659 96.6754 34.631 96.5221 33.7064C96.8705 33.7794 96.9016 34.2713 97.4028 34.2273C97.096 33.4513 97.6815 32.2587 97.4067 32.0182C96.3794 31.12 97.546 30.6229 97.5498 29.9632C98.4421 29.5712 98.2584 30.694 98.7747 30.8312C98.5481 31.456 99.2004 31.8335 99.2104 32.391C99.2225 33.0609 99.4877 33.7157 99.3334 34.3938C99.2975 34.5526 99.049 34.6153 99.1143 34.8316Z" fill="#C8C3C0"/>
<path d="M102.503 35.1402C101.96 35.5909 101.247 35.4455 100.64 35.6726C100.854 34.703 100.441 33.692 100.875 32.7246C101.031 32.3768 101.146 32.2051 101.694 32.1C102.033 32.035 102.457 32.0329 102.428 32.408C102.398 32.8009 102.7 32.9219 102.818 33.1512C103.068 33.6392 103.329 33.9927 102.698 34.3844C102.463 34.5312 102.393 34.8421 102.503 35.1402Z" fill="#ADA9AA"/>
<path d="M81.3427 18.8851C81.3404 19.0231 81.3382 19.161 81.3359 19.2996C80.9893 19.494 80.8759 19.9985 80.414 19.1319C79.9865 18.3296 80.341 17.6277 80.0393 16.9537C80.3172 16.6202 80.9019 16.699 80.9478 16.8362C81.0799 17.2324 81.2314 17.6929 80.9966 18.1394C80.7947 18.5227 80.7044 18.8806 81.3427 18.8851Z" fill="#9A9597"/>
<path d="M94.4311 36.1787C93.0825 35.9185 91.7981 35.4598 90.5391 34.9242C90.3299 34.8353 90.0417 34.8098 90.1382 34.4568C90.3998 34.4145 90.6614 34.3727 90.9228 34.3307C91.3554 33.9666 91.7693 34.1983 92.1877 34.3643C92.3884 34.4439 92.631 34.5047 92.7507 34.2893C92.8931 34.032 92.6156 33.9453 92.4599 33.8324C92.1044 33.5745 91.6172 33.4602 91.508 32.9401C91.5171 32.885 91.5279 32.8301 91.54 32.7756C91.6581 32.6845 91.806 32.6452 91.9255 32.717C92.5583 33.0961 93.0099 32.9011 93.3272 32.303C92.5095 32.1136 92.0681 31.5478 91.8548 30.7608L91.8568 30.7529C92.3073 30.3887 92.5034 30.9585 92.8343 31.0138C93.3773 31.1049 93.0446 30.7947 92.9934 30.6187C92.8364 30.2644 92.7612 29.9213 93.1267 29.6388C93.7157 29.4305 93.8032 29.9405 94.0239 30.2606C94.1601 30.586 94.5184 30.7099 94.699 30.9956C94.8369 31.2614 94.9136 31.5467 94.9661 31.8397C94.974 32.1842 95.0222 32.5347 94.9712 32.8704C94.9496 33.012 95.3745 33.9306 94.5483 33.2291C94.4744 33.1663 94.2898 33.3932 94.3312 33.5107C94.399 33.7026 94.1234 34.053 94.5331 34.083C95.3972 34.1464 95.5392 34.9067 95.8863 35.4572C96.1096 35.8112 96.0223 35.8911 95.2329 36.1648C95.0773 35.841 95.5676 35.2538 94.9082 35.1738C94.6085 35.1374 94.2155 34.7693 93.9818 35.1357C93.6799 35.6103 94.3515 35.7934 94.4311 36.1787Z" fill="#C8C4C1"/>
<path d="M93.2547 29.7084C92.9831 29.9901 93.0961 30.3028 93.1791 30.6135C92.4123 30.807 91.9373 30.2656 91.4079 29.8883C91.3207 29.8263 91.4408 29.64 91.5651 29.5594C91.736 29.136 91.821 28.6653 92.2131 28.3612C92.3213 28.2452 92.429 28.1297 92.5372 28.0132C92.5364 27.3784 93.32 28.0644 93.3704 27.5166C93.8268 27.7769 94.2829 28.0373 94.7391 28.2973C94.7108 28.6125 94.5385 28.9829 95.0434 29.0932C94.912 29.272 94.8067 29.4576 94.8859 29.6915C95.1172 30.2495 95.4262 30.8281 94.5171 31.0875C94.397 30.8205 93.9627 30.8472 93.9497 30.4802C93.8369 29.7674 93.2825 29.4661 92.7039 29.1511C92.6133 29.0824 92.6601 29.3195 92.7047 29.1863C92.7226 29.1321 92.7616 29.1221 92.8039 29.1708C92.9585 29.3462 93.193 29.4552 93.2547 29.7084Z" fill="#B4ACAC"/>
<path d="M91.8548 30.7608C92.1247 31.08 92.3563 31.45 92.6836 31.6915C92.8107 31.7851 93.0011 32.5401 93.3713 31.8222C93.4353 31.6983 93.6564 31.8137 93.6514 31.9803C93.6367 32.4912 93.2357 32.8174 92.9795 33.1985C92.7123 33.5962 92.4605 33.1068 92.1931 33.0604C91.9656 33.021 91.7568 32.8752 91.54 32.7756C90.8871 32.3958 91.3189 31.3729 90.4909 31.1504C90.669 30.8339 90.9322 31.13 91.1073 30.9103C90.8117 30.6408 90.7198 30.0716 90.0587 30.3761C90.2552 30.2072 90.9857 30.3971 91.8548 30.7608Z" fill="#E5E1DF"/>
<path d="M91.508 32.9401C91.9396 33.2177 92.3814 33.48 92.7988 33.7772C93.0657 33.9674 93.2014 34.2184 92.9958 34.5619C92.7898 34.9062 92.5275 34.7865 92.282 34.6695C91.8492 34.464 91.4291 34.2333 90.9228 34.3307C90.8911 33.7715 90.2782 33.8055 90.0234 33.4608C89.9141 33.3128 89.6091 33.2844 89.6135 33.0475C89.6205 32.6644 89.5491 32.1373 89.7623 31.9328C90.1199 31.5895 89.9348 32.3381 90.3217 32.3751C90.7315 32.4145 91.1139 32.7399 91.508 32.9401Z" fill="#F7F5F6"/>
<path d="M91.5651 29.5594C91.5546 29.6579 91.5442 29.7563 91.5337 29.8547C92.2688 29.7047 92.5571 30.5204 93.1791 30.6135C93.5823 30.7096 93.6659 31.0173 93.5002 31.3108C93.3282 31.616 93.0159 31.452 92.7752 31.3339C92.4492 31.1739 92.3089 30.7192 91.8568 30.7529C91.4777 30.3575 91.1475 29.9105 90.583 29.6144C90.9631 29.4023 91.241 29.0532 91.5651 29.5594Z" fill="#E5E1DF"/>
<path d="M90.5767 27.3316C91.1765 27.4375 91.6281 27.7782 92.0081 28.2322C91.1802 28.6532 90.5317 28.2447 90.5767 27.3316Z" fill="#E5E1DF"/>
<path d="M94.5171 31.0875C94.9844 30.7121 95.0201 30.223 94.8864 29.6904C95.0783 30.168 95.8805 30.6041 94.9569 31.167C94.8598 31.2264 94.9584 31.6079 94.9661 31.8397C94.8169 31.5888 94.6669 31.338 94.5171 31.0875Z" fill="#E5E1DF"/>
<path d="M95.0441 29.0924C94.7673 28.8253 94.5428 28.9369 94.3018 29.175C94.4478 28.8824 94.5938 28.5892 94.7398 28.2965C94.9491 28.368 95.1973 28.357 95.3326 28.5815C95.2362 28.752 95.1404 28.9225 95.0441 29.0924Z" fill="#FDFDFD"/>
<path d="M96.018 24.0919C96.0336 24.1232 96.0557 24.153 96.0632 24.1862C96.0772 24.2482 96.0822 24.3117 96.0908 24.3748C95.3672 24.0255 94.5213 23.8297 94.2465 22.9146C94.837 23.307 95.4275 23.6994 96.018 24.0919Z" fill="#3A312F"/>
<path d="M96.6143 27.7821C96.5454 27.7833 96.44 27.7564 96.4135 27.7903C95.8424 28.5262 95.4938 28.1943 95.206 27.5493C95.4156 26.5015 95.9498 27.3709 96.3247 27.3819C96.4255 27.3853 96.5183 27.6416 96.6143 27.7821Z" fill="#BAB2AE"/>
<path d="M68.6528 50.5086C68.5431 50.5731 68.441 50.6917 68.3015 50.5638C68.5942 50.2863 68.2929 49.7502 68.3068 49.7537C69.2655 50.0013 68.6079 48.8291 69.1887 48.7596C69.3637 48.7386 69.5279 48.6226 69.6971 48.5503C69.5478 49.309 68.8714 49.7866 68.6528 50.5086Z" fill="#938E8E"/>
<path d="M67.251 52.7191C67.3145 51.9826 67.4831 51.3121 68.3102 51.0621C67.9572 51.6142 67.6037 52.1668 67.251 52.7191Z" fill="#6E6766"/>
<path d="M69.6906 48.5701C69.877 47.9051 70.1305 47.2943 70.89 47.0948C70.4901 47.5867 70.0905 48.0783 69.6906 48.5701Z" fill="#938E8E"/>
<path d="M44.0988 96.7992C43.5981 96.5043 43.2889 97.0192 42.8784 97.1663C42.7756 96.617 43.359 96.7392 43.4688 96.3969C43.6464 95.8446 43.2665 96.163 43.112 96.1268C43.6205 95.4976 44.1286 94.8678 44.6373 94.2388C44.8738 93.9466 45.2536 93.7581 45.3003 93.3278C45.4051 93.0683 45.4444 92.7823 45.5691 92.5351C45.7647 92.1473 46.033 91.8959 46.4593 92.2889C46.3693 92.7454 46.2892 93.2628 46.1401 93.6323C46.0047 93.9673 45.3895 94.2576 45.0905 94.6534C44.6104 95.2898 44.0324 95.903 44.0988 96.7992Z" fill="#5F5354"/>
<path d="M46.4593 92.2889C46.2124 92.2027 45.9798 92.0269 45.8348 92.4674C45.7325 92.779 45.4836 93.0427 45.3003 93.3278C44.9033 92.4568 45.3321 91.6625 45.5346 90.8472C45.8212 91.2806 46.0756 92.2744 46.4387 90.8677C46.5069 90.6035 46.814 90.2687 47.0252 90.8521C47.4119 91.5567 46.5322 91.7645 46.4593 92.2889Z" fill="#A9A3A4"/>
<path d="M49.4327 83.8115C49.1218 83.6261 49.2817 83.4384 49.4155 83.2294C49.8296 82.5831 50.1904 81.9086 50.4151 81.1694C50.8656 80.7037 50.8458 79.9434 51.4259 79.5589C51.6734 80.2452 51.1055 80.7158 50.879 81.2361C50.7179 81.6062 50.5018 81.9977 50.3141 82.3824C49.7158 82.671 50.1772 83.612 49.4327 83.8115Z" fill="#5B5454"/>
<path d="M51.4213 79.5713C51.5114 78.8535 51.8166 78.2496 52.3748 77.7798C52.1861 78.4455 52.0532 79.1406 51.4213 79.5713Z" fill="#6E6768"/>
<path d="M51.6747 83.9197C51.4822 84.3619 51.4356 84.7917 51.0938 85.0968C51.112 84.63 50.5696 83.9447 51.6747 83.9197Z" fill="#999192"/>
<path d="M37.4146 106.806C41.3754 109.853 43.3176 113.967 43.5652 118.877C43.7486 122.517 42.867 125.941 40.3486 128.681C37.1653 132.144 31.8147 133.808 27.161 129.598C23.381 126.179 21.7528 121.876 21.8504 116.842C21.9102 113.756 22.6139 110.887 24.6737 108.472C24.8283 108.205 24.9798 107.934 25.4025 107.924C25.5899 109.353 24.5233 110.349 24.1904 111.578C22.4297 116.154 22.6661 120.583 25.1736 124.824C26.241 126.63 27.6885 128.094 29.4613 129.218C32.2609 130.992 35.724 130.609 38.2905 128.261C38.5757 128.001 38.8485 127.726 39.1629 127.5C39.9835 126.862 40.9057 126.012 41.1619 125.212C41.9986 122.6 42.8478 119.906 42.1527 117.078C42.0934 116.534 41.9122 116.02 41.762 115.499C41.4676 113.909 40.6279 112.558 39.8749 111.17C39.7554 110.996 39.6765 110.798 39.5539 110.626C39.1007 109.832 38.5069 109.136 37.9846 108.389C37.9073 108.309 37.8344 108.226 37.7612 108.143C37.4913 107.738 36.9949 107.391 37.4146 106.806Z" fill="#FAF9FA"/>
<path d="M24.0044 111.452C24.2221 110.248 25.0441 109.266 25.2933 108.005C25.0538 108.185 24.8635 108.328 24.6737 108.472C25.4456 107.027 26.843 106.354 28.2186 105.708C28.9235 105.377 29.7371 104.812 30.5093 105.667C31.0594 105.897 31.0858 106.254 30.6706 106.613C30.3542 106.887 30.0441 107.165 29.7445 107.457C28.408 108.181 26.8512 108.53 25.8475 109.822C25.5498 110.206 25.1944 110.543 24.92 110.953C24.7143 111.26 24.4966 111.633 24.0044 111.452Z" fill="#928885"/>
<path d="M29.6494 107.239C29.9131 106.996 29.9727 106.592 30.4321 106.487C31.1125 106.332 30.7383 105.968 30.5093 105.667C30.6227 105.593 30.7367 105.519 30.8498 105.445C31.5126 105.681 32.1639 105.311 32.8366 105.412C33.3127 105.483 32.6498 104.91 33.0712 104.865C33.8743 105.344 34.9106 105.202 35.6562 105.833C35.745 105.937 35.824 106.06 35.9399 106.127C36.7231 106.575 36.3116 106.806 35.7831 107.022C35.6283 107.124 35.4743 107.226 35.3073 107.307C35.1264 107.488 34.8198 107.12 34.6721 107.455C34.3673 107.552 34.1235 107.378 33.862 107.28C33.0141 106.521 31.2468 106.579 30.6238 107.391C30.2661 107.546 29.9171 107.648 29.6494 107.239Z" fill="#ACA4A1"/>
<path d="M35.6908 106.696C35.8878 106.681 36.0844 106.666 36.3065 106.649C36.1784 106.264 35.4829 106.397 35.6562 105.833C36.2616 106.123 36.9202 106.317 37.4146 106.806C37.3787 107.319 37.6963 107.657 38.0024 108.001C37.4871 108.869 37.0883 107.951 36.6308 107.916C36.4264 107.718 36.3925 107.366 35.9834 107.354C35.5224 107.341 35.554 107.021 35.6908 106.696Z" fill="#DAD6D7"/>
<path d="M49.388 81.4883C49.1644 81.5999 49.1215 81.9977 48.7578 81.8869C49.1463 81.5295 48.4203 81.4266 48.5884 81.0772C48.9826 80.2578 49.1278 79.2934 50.0039 78.7706C50.0551 78.7868 50.1083 78.7995 50.1624 78.8089C50.7191 79.1595 50.3335 79.5287 50.1826 79.8939C50.1478 79.9254 50.1125 79.9569 50.077 79.9881C49.709 80.4252 49.2404 80.8158 49.388 81.4883Z" fill="#B6B0B2"/>
<path d="M50.7551 79.415C50.6211 79.9033 50.5257 80.41 50.0835 80.8771C50.0805 80.5065 50.079 80.2473 50.077 79.9881L50.0745 79.9964C50.1628 79.7109 50.314 79.4825 50.6216 79.397C50.6661 79.4031 50.7108 79.4096 50.7551 79.415Z" fill="#B6B0B2"/>
<path d="M64.669 56.1518C64.8115 55.7556 64.4827 55.3792 64.991 55.2375C65.0861 55.211 65.2823 55.225 65.2827 55.2301C65.305 55.5817 65.2025 55.8765 64.669 56.1518Z" fill="#EEECEC"/>
<path d="M50.6216 79.397C50.4394 79.5967 50.2568 79.7967 50.0745 79.9964C49.9275 79.588 50.5117 79.2316 50.1624 78.8089C50.8904 78.5553 50.6162 79.0852 50.6216 79.397Z" fill="#E4E1E3"/>
<path d="M112.109 11.872C112.2 12.272 112.432 12.641 112.369 13.0748C111.651 13.7093 110.721 13.2963 109.932 13.5764C109.392 13.7203 109.707 14.2776 109.46 14.5615C109.241 15.3671 108.775 16.0746 108.546 16.8779C108.485 17.0924 108.229 16.787 107.285 17.4792C106.584 17.993 106.254 17.4742 105.785 17.5932C105.168 17.9727 105.093 18.8806 104.333 19.1206C105.117 18.8912 105.168 17.9214 105.846 17.5836C106.544 17.8924 106.001 18.2263 105.858 18.5451C105.765 18.7523 105.453 18.9484 105.662 19.1727C105.888 19.4154 106.177 19.2102 106.411 19.0724C106.906 18.7803 107.406 18.2704 107.827 19.1559C107.747 19.4511 107.87 19.8573 108.083 20.0919C108.122 20.1341 108.082 20.2243 108.083 20.2534C108.231 19.7116 108.419 19.4189 108.754 20.1524C108.999 20.6883 109.513 20.0615 109.803 20.3966C109.872 20.7389 109.612 20.8444 109.386 20.974C104.47 24.3512 97.5717 21.9185 94.7819 18.6755C92.1592 15.627 91.0726 12.2529 92.4733 8.39119C93.4331 5.74483 95.2965 3.93782 98.2415 3.53487C98.5726 3.87713 99.1615 4.21014 98.206 4.5337C97.8661 4.64871 97.9151 5.00257 97.9988 5.26661C98.209 5.92978 98.2358 6.66345 98.6965 7.23263C98.8408 7.41089 98.9025 7.57029 98.852 7.80356C98.6346 8.81202 99.0815 9.68752 99.4518 10.5677C99.6748 11.0978 99.3631 11.7814 99.9588 12.2193C100.041 12.2799 100.077 12.5084 100.267 12.5283C101.025 12.608 101.707 12.6976 102.369 13.2703C102.827 13.6661 103.359 12.9509 103.682 12.5127C103.997 12.0861 104.303 11.8613 104.867 11.7222C105.796 11.4924 106.856 11.2473 107.199 10.0908C108.645 9.56044 109.91 10.2385 111.211 10.6831C111.778 10.8768 111.683 11.571 112.109 11.872Z" fill="#FDFDFD"/>
<path d="M107.274 10.1936C107.275 10.3343 107.705 10.2385 107.357 10.65C106.7 11.4273 105.622 12.1722 105.038 12.0992C103.734 11.9364 103.958 13.2675 103.144 13.5168C102.778 13.629 102.488 13.866 102.208 13.5718C101.628 12.9614 100.842 12.9688 100.136 12.7231C100.053 12.6943 98.819 13.0555 99.778 12.1973C98.9537 11.9848 99.4768 11.1439 99.1994 10.8429C98.5624 10.1512 98.6407 9.23848 98.5339 8.53289C98.3478 7.30671 97.9094 6.19386 97.5726 5.03727C97.4439 4.59528 97.5769 4.26824 97.9506 4.25145C98.7072 4.21703 98.3281 3.84305 98.2415 3.53487C99.526 3.24008 100.819 3.12281 102.126 3.35546C101.794 3.70533 101.799 4.26583 101.376 4.5587C100.757 4.8681 99.9103 4.69647 99.4032 5.46614C100.055 5.37422 100.689 4.90023 101.147 5.40411C101.591 5.89296 102.86 5.5979 102.524 6.81722C102.283 7.2228 102.029 7.13783 101.802 6.81787C101.457 6.33238 100.976 6.56507 100.707 6.76549C100.49 6.92611 101.032 7.30898 100.848 7.66439C100.974 7.60785 100.802 7.51751 100.873 7.45283C101.424 6.95715 102.047 7.04131 102.682 7.21998C102.726 7.35994 102.479 7.51007 102.56 7.52557C103.244 7.65877 103.484 8.05593 103.345 8.71415C103.195 9.4229 102.646 9.38956 102.106 9.38109C101.981 9.37903 101.854 9.42256 101.784 9.45974C102.277 9.55067 102.811 9.64796 103.33 9.36015C103.9 9.04349 104.101 10.1507 104.646 9.69286C104.405 9.57169 103.936 9.38589 104.131 9.00343C104.472 8.33771 105.069 9.0952 105.533 8.88537C105.673 8.89485 105.609 8.67042 105.605 8.81102C105.605 8.83089 105.58 8.8363 105.531 8.83538C104.571 8.82094 103.603 8.75487 103.307 7.62019C103.237 7.35106 103.652 6.93161 102.972 7.01153C102.776 7.02141 102.603 6.98764 102.512 6.78718C102.522 6.17956 102.489 5.57192 102.503 4.96335C103.842 4.45272 104.093 4.51928 104.402 5.34482C104.554 5.75028 104.227 5.99221 104.223 6.28672C105.646 6.13261 107.219 5.39796 108.227 7.2107C108.197 7.41835 108.081 7.57675 107.938 7.71987C107.753 7.93766 107.267 8.091 107.559 8.44171C107.901 8.85274 108.38 8.68091 108.795 8.43527C109.123 8.26984 109.37 8.41228 109.593 8.64398C110.059 9.45052 109.421 9.63469 108.892 9.72761C108.329 9.82574 107.787 9.94287 107.274 10.1936Z" fill="#C1BAB6"/>
<path d="M107.735 19.2523C107.49 18.9165 107.25 18.6837 106.877 19.1401C106.731 19.3186 106.486 19.4127 106.295 19.558C105.872 19.8812 105.473 19.553 105.18 19.3936C104.913 19.2496 105.317 18.9387 105.391 18.6903C105.505 18.3026 106.223 18.1637 105.856 17.5726L105.855 17.5876C106.093 17.6712 106.319 16.9705 106.568 17.576C106.592 17.6343 106.658 17.6758 106.704 17.7251C106.975 17.3275 107.242 17.2496 107.798 17.2787C108.36 17.3077 108.459 16.411 108.638 15.8483C108.788 15.3727 108.844 14.8432 109.327 14.5415C109.717 13.7011 109.823 14.6151 110.07 14.6602C109.543 13.8469 109.543 13.8469 109.854 13.4495C110.645 13.0065 111.534 13.2242 112.369 13.0748C112.599 14.4002 112.526 15.6985 112.01 16.9571C111.733 17.0666 111.363 16.9041 111.452 16.7248C111.756 16.1147 111.088 16.0593 110.971 15.7075C110.91 15.8162 111.08 15.9258 111.024 15.9778C110.319 16.6301 110.263 17.9005 109.058 18.0696C108.659 18.1254 108.447 18.3318 108.311 18.7026C108.218 18.9557 108.07 19.2198 107.735 19.2523Z" fill="#DEDAD9"/>
<path d="M107.735 19.2523C108.147 18.5597 108.292 17.5677 109.488 17.7575C109.599 17.7751 109.857 17.4277 109.894 17.2229C109.933 16.9987 109.984 16.7684 110.149 16.6772C110.826 16.3044 110.98 15.8011 110.561 15.077C111.03 15.337 111.071 16.1015 111.827 15.8133C111.973 15.7576 112.004 16.3099 111.791 16.5001C111.254 16.977 111.919 16.8173 112.01 16.9571C111.879 17.8542 111.37 18.5836 110.95 19.3544C110.748 19.7252 110.396 19.7004 110.065 19.7488C109.994 19.9809 109.536 19.9691 109.69 20.3428C109.077 20.8108 108.577 20.9641 108.506 19.919C108.375 20.0896 108.082 20.0671 107.918 19.9672C107.61 19.7803 107.783 20.4155 107.428 20.2512C107.238 19.8458 107.596 19.5783 107.735 19.2523Z" fill="#B7B0B0"/>
<path d="M108.17 7.1732C107.94 6.76018 107.049 7.07423 107.173 6.26817C107.177 6.24174 107.131 6.18099 107.123 6.1834C106.719 6.31557 106.309 6.6319 105.93 6.13763C105.481 6.78298 104.79 6.37035 104.223 6.49188C103.752 6.59326 104.181 6.25766 104.158 6.13618C104.101 5.83874 104.517 5.33471 103.777 5.25629C103.532 5.23011 104.161 5.09648 103.897 4.79522C103.493 4.95415 103.059 5.20939 102.579 4.97852C101.773 5.69857 101.625 4.64895 101.16 4.45328C101.482 4.08717 101.804 3.72132 102.126 3.35546C102.39 3.22145 102.635 3.25147 102.864 3.43434C103.225 3.92728 103.597 4.35592 104.325 4.12831C105.179 3.86098 105.253 4.83432 105.279 5.08633C105.343 5.71035 105.639 5.26755 105.643 5.20826C105.674 4.79216 106.08 4.79483 106.282 4.58068C106.831 4.66704 107.144 5.14835 107.609 5.37561C107.652 5.6231 107.631 5.93718 108.047 5.80395C108.337 5.77034 108.492 5.95541 108.631 6.16593C108.847 6.64114 108.696 7.02264 108.326 7.34964C108.222 7.33599 108.173 7.27468 108.17 7.1732Z" fill="#908684"/>
<path d="M108.3 7.32138C108.167 6.86682 108.472 6.53736 108.631 6.16593C109.796 7.2428 110.742 8.48353 111.433 9.91527C111.195 10.3581 110.829 10.4959 110.373 10.3126C109.737 10.0572 109.768 9.45328 109.691 8.91439C109.379 8.64486 109.221 8.26655 108.615 8.31166C108.123 8.34818 107.792 7.85784 108.3 7.32138Z" fill="#C1BAB6"/>
<path d="M109.591 8.69136C109.701 8.82361 109.9 8.95165 109.907 9.08888C109.962 10.2265 110.557 10.3183 111.433 9.91527C111.826 10.5092 112.13 11.1341 112.109 11.872C111.759 11.7274 111.314 11.6182 111.332 11.1537C111.359 10.4766 111.031 11.1673 110.807 11.0278C109.661 10.3139 109.618 10.3825 107.96 10.5078C107.671 10.5297 107.621 10.0397 107.274 10.1936C107.628 9.72331 108.149 9.51737 108.687 9.48706C109.18 9.45923 109.567 9.46333 109.477 8.8164C109.463 8.75244 109.475 8.71265 109.514 8.69655C109.553 8.68097 109.579 8.67891 109.591 8.69136Z" fill="#A49C9A"/>
<path d="M106.282 4.58068C106.225 4.72207 105.367 5.50488 105.328 5.58113C105.168 5.89723 104.879 5.71349 104.836 5.62248C104.724 5.38698 105.025 5.44376 105.129 5.34885C105.311 5.18376 105.274 5.0256 105.046 4.99666C104.575 4.93696 104.576 4.8511 104.892 4.50119C105.023 4.35631 104.702 4.20182 104.497 4.29103C103.588 4.68552 102.968 4.55632 102.864 3.43434C104.062 3.64179 105.23 3.93839 106.282 4.58068Z" fill="#C6BFBB"/>
<path d="M109.69 20.3428C109.549 20.2956 109.408 20.2489 109.268 20.2017C109.482 19.9554 109.652 19.6329 110.067 19.7494C110.414 20.2892 110.362 20.384 109.386 20.974C109.456 20.749 109.804 20.6566 109.69 20.3428Z" fill="#A79F9E"/>
<path d="M108.047 5.80395C108.09 5.92733 108.207 6.11782 108.165 6.16241C107.794 6.56277 107.833 5.51636 107.428 5.94413C107.291 5.69236 107.55 5.56592 107.609 5.37561C107.754 5.51847 107.901 5.66134 108.047 5.80395Z" fill="#C1BAB6"/>
<path d="M93.2547 29.7084C93.0664 29.5125 92.8781 29.3166 92.663 29.093C93.7932 29.6131 93.7927 29.6136 93.9497 30.4802C93.6082 30.3223 93.7009 29.7722 93.2547 29.7084Z" fill="#E5E1DF"/>
<path d="M29.6494 107.239C29.9489 107.237 30.2484 107.234 30.5481 107.232C30.8183 107.266 31.1925 106.983 31.3101 107.481C31.0367 108.018 30.4565 107.801 30.0456 108.001C25.7426 109.342 23.1241 113.525 23.565 118.389C23.9617 122.768 26.0882 126.134 29.6679 128.596C32.0172 130.212 35.6619 129.881 37.8152 127.955C38.3849 127.446 38.8241 126.769 39.592 126.499C39.8558 126.829 39.8558 126.829 39.3577 127.691C38.4186 128.474 37.5565 129.341 36.4193 129.879C33.6491 131.19 31.0389 130.784 28.6866 129.032C23.1511 124.908 21.3115 117.826 24.0044 111.452C24.7524 111.204 24.9064 110.431 25.3226 109.904C26.4531 108.472 28.0878 107.93 29.6494 107.239Z" fill="#3B3231"/>
<path d="M33.9893 107.166C34.235 107.239 34.4809 107.311 34.7266 107.383C36.447 107.56 37.5651 108.737 38.7481 109.804C39.1006 110.121 39.3336 110.605 39.902 110.617C39.9361 110.751 39.9705 110.885 40.0047 111.02C40.2055 111.496 40.3763 111.984 40.5448 112.472C40.6453 112.763 40.6673 113.064 40.1831 112.94C39.5446 112.566 39.3508 111.799 38.7835 111.362C37.8308 110.298 36.8045 109.318 35.5847 108.56C35.1568 108.18 34.5473 108.124 34.1158 107.747C33.9846 107.573 33.9272 107.383 33.9893 107.166Z" fill="#3B3231"/>
<path d="M33.9893 107.166C34.1281 107.28 34.2116 107.416 34.169 107.605C34.0055 107.796 33.812 107.933 33.552 107.947C33.2833 107.643 32.9761 107.919 32.69 107.89C32.2101 107.842 31.6212 108.106 31.3288 107.461C31.0687 107.385 30.8083 107.308 30.5481 107.232C30.7548 106.537 31.8903 106.97 31.9403 106.085C32.041 106.107 32.2035 106.097 32.2334 106.156C32.7364 107.141 33.2986 106.552 33.7717 106.12C34.0834 106.51 33.1756 106.966 33.9893 107.166Z" fill="#716B69"/>
<path d="M100.326 17.6568C98.5269 17.1744 98.1443 16.6131 98.5209 14.8056C98.8518 15.5719 99.4063 14.9733 99.8375 15.1709C100.299 15.3826 100.666 15.6605 100.607 16.2927C101.01 15.7614 100.538 15.3893 100.498 14.9594C101.456 15.5938 101.488 16.4522 100.552 17.1317C100.322 17.2984 100.03 17.3452 100.325 17.6873L100.326 17.6568Z" fill="#584A47"/>
<path d="M100.325 17.6873C100.766 17.315 101.37 17.1473 101.633 16.5484C102.227 15.1917 101.057 13.9437 99.298 14.0774C99.8699 13.5614 100.389 13.5547 101.268 14.1192C102.037 14.6128 102.508 15.3169 102.249 16.251C101.992 17.1761 101.357 17.7227 100.326 17.6568L100.325 17.6873Z" fill="#393332"/>
<path d="M97.7939 18.2916C99.0906 18.8049 100.406 19.1313 101.849 18.6136C101.05 19.6936 98.935 19.6581 97.5039 18.6079C97.5054 18.4153 97.6134 18.3199 97.7939 18.2916Z" fill="#A29FA0"/>
<path d="M109.854 13.4495C109.416 14.0046 110.158 14.1629 110.238 14.5486C110.248 14.5977 110.707 14.4069 110.437 14.771C110.35 14.8889 110.16 15.0943 109.94 14.8268C109.796 14.6518 109.777 14.0987 109.327 14.5415C109.537 14.1942 108.897 13.4385 109.854 13.4495Z" fill="#B1ACAD"/>
<path d="M105.856 17.5726C105.388 18.2076 105.143 19.0563 104.221 19.2561C104.923 18.8522 104.872 17.7205 105.855 17.5876L105.856 17.5726Z" fill="#C1BDBF"/>
<path d="M97.7939 18.2916C97.6972 18.3971 97.6007 18.5029 97.5039 18.6079C97.3739 18.5596 97.2199 18.5399 97.1192 18.4565C96.9275 18.2983 96.5364 18.1575 96.7985 17.8357C97.0435 17.5346 97.2926 17.8239 97.5009 17.9947C97.6079 18.0825 97.6968 18.1917 97.7939 18.2916Z" fill="#BBB7B8"/>
<path d="M103.915 17.5265C103.902 17.7961 103.78 17.9169 103.653 17.9056C103.157 17.8623 103.324 18.6287 102.835 18.5493C102.782 18.5407 102.694 18.3634 102.718 18.329C103 17.9167 103.373 17.6275 103.915 17.5265Z" fill="#BBB8B9"/>
<path d="M103.748 19.1065C103.888 18.3463 104.541 18.0403 105.154 17.4008C104.79 18.2483 104.092 18.5297 103.748 19.1065Z" fill="#A5A2A3"/>
<path d="M102.93 6.85377C103.17 6.7494 103.366 6.48392 103.68 6.65026C103.128 6.83859 104.239 7.32014 103.531 7.48059C103.693 7.7425 104.019 7.91317 103.906 8.3219C103.847 8.5397 104.036 8.61022 104.24 8.58112L105.313 8.43764C105.279 8.27569 105.406 8.27446 105.5 8.26881C105.694 8.25711 105.691 8.41198 105.726 8.54618C105.789 8.78562 105.599 9.10907 105.531 9.0655C105.107 8.79544 104.645 9.63551 104.281 8.88261C104.343 9.67479 104.823 9.4673 105.247 9.41908C104.881 9.70307 104.641 10.0378 104.077 9.97234C103.716 9.93076 103.845 9.32127 103.356 9.56094C103.002 9.73381 102.591 10.2351 102.173 9.78726C101.791 9.37934 101.333 9.90578 100.941 9.49128C101.418 9.37524 101.885 9.13438 102.318 9.18343C103.132 9.2757 103.246 8.62312 103.186 8.24561C103.136 7.93352 102.72 7.2956 102.04 7.72262C102.232 7.55748 102.424 7.39207 102.617 7.22693C102.636 7.03182 102.881 7.02437 102.93 6.85377Z" fill="#9A9290"/>
<path d="M101.16 4.45328C101.706 4.43001 101.901 5.35284 102.579 4.97852C103.132 5.59962 102.571 6.17435 102.5 6.76962L102.509 6.76952C102.365 6.32141 102.321 5.80071 101.584 6.01261C101.368 6.07438 100.885 6.20024 100.964 5.53148C100.996 5.26245 100.47 5.53481 100.197 5.52315C99.8952 5.51042 99.4693 5.88251 99.3168 5.4699C99.1045 4.89513 99.6272 4.77254 100.059 4.66662C100.423 4.57753 100.758 4.34341 101.16 4.45328Z" fill="#9D9695"/>
<path d="M102.93 6.85377C103.027 7.1466 102.77 7.14311 102.617 7.22693C102.084 7.30958 101.552 7.39301 101.018 7.47589C101.093 7.89725 101.499 7.55691 101.612 7.90049C101.174 8.11385 100.686 8.24625 100.703 7.56309C100.72 6.88425 100.35 7.06496 99.7643 7.10866C100.417 6.73363 100.618 6.08649 101.386 6.32852C101.685 6.42274 101.939 6.32526 102.007 6.77656C102.048 7.05051 102.335 6.90138 102.509 6.76952L102.5 6.76962C102.643 6.7975 102.787 6.82564 102.93 6.85377Z" fill="#9D9695"/>
<path d="M108.721 8.65614C108.2 8.98392 107.649 9.20893 107.215 8.58571C106.794 7.98159 107.441 7.86717 107.753 7.61249C108.108 7.93047 108.535 8.182 108.721 8.65614Z" fill="#A49C9A"/>
<path d="M108.721 8.65614C108.545 8.17225 107.764 8.24904 107.753 7.61249C107.892 7.46598 108.031 7.31946 108.17 7.1732C108.216 7.22018 108.259 7.2694 108.3 7.32138C108.381 7.41232 108.521 7.49878 108.529 7.595C108.547 7.83438 107.988 7.22821 108.179 7.81431C108.398 7.72228 108.276 8.47639 108.792 7.98442C109.134 7.65843 109.256 8.50065 109.591 8.69136C109.572 8.75064 109.534 8.79224 109.477 8.8164C109.269 8.56128 109.06 8.30335 108.721 8.65614Z" fill="#6F6664"/>
<path d="M106.336 10.8271C106.034 10.4097 105.326 10.8884 105.092 10.2681C105.082 10.2417 104.849 10.2993 104.721 10.3178C104.724 10.2889 104.718 10.2531 104.733 10.2325C104.839 10.0869 104.981 9.93555 105.16 9.98805C105.627 10.1249 106.039 10.3711 106.336 10.8271Z" fill="#9A9290"/>
<path d="M106.756 7.53109C106.564 7.45593 106.586 7.90181 106.354 7.64777C106.694 7.39488 105.978 7.17751 106.328 6.93526C106.503 6.81413 106.681 6.47313 106.917 6.82485C107.093 7.08702 106.898 7.312 106.756 7.53109Z" fill="#787371"/>
<path d="M41.1451 123.399C40.985 124.59 40.2004 125.488 39.6807 126.511C38.0943 128.271 36.3484 129.723 33.8285 129.904C31.5301 130.069 29.7454 129.126 28.0213 127.703C23.6279 124.074 21.946 117.405 24.3853 112.45C25.5673 110.049 27.4359 108.369 30.1096 107.719C30.6137 107.916 31.3787 107.451 31.6329 108.037C31.8447 108.526 31.1026 108.842 30.8797 109.303C30.681 109.713 30.4235 110.086 30.5488 110.571C30.3204 111.403 30.0409 112.221 29.878 113.07C29.8277 113.332 29.6829 113.604 29.9322 113.845C30.1721 114.861 30.0918 115.85 29.677 116.813C29.1226 117.52 28.4218 118.13 28.5655 119.195C28.7059 120.238 29.4242 121.226 30.2638 121.341C30.919 121.431 31.755 120.86 32.0562 120.117C32.5325 118.942 32.3229 117.832 31.4968 117.251C31.2132 117.052 30.8493 116.975 30.618 116.69C30.1732 115.568 30.5485 115.119 32.1255 114.886C32.279 114.881 32.4279 114.904 32.5729 114.954C32.8524 115.078 33.0971 115.261 33.3629 115.409C33.5828 115.545 33.7745 115.716 33.9588 115.896C34.0353 115.965 34.1069 116.04 34.177 116.116C34.4586 116.42 34.724 116.735 34.8911 117.12C34.9387 117.207 34.9768 117.3 35.009 117.394C35.455 118.436 35.9742 119.46 35.8127 120.656C35.7989 120.759 35.9601 120.74 36.0313 120.796C36.0462 121.649 36.7998 121.807 37.3292 122.173C38.1208 122.635 39.2285 122.446 39.7918 123.41C39.9353 123.656 40.3025 123.485 40.5671 123.421C40.7585 123.371 40.9498 123.326 41.1451 123.399Z" fill="#FDFDFD"/>
<path d="M30.4556 110.529C30.1659 110.441 30.0411 110.264 30.2027 109.98C30.5763 109.322 30.8388 108.583 31.5806 108.123C31.1332 107.714 30.4991 108.121 30.1096 107.719C30.5158 107.633 30.9226 107.547 31.3288 107.461C32.0596 107.774 32.8661 107.595 33.612 107.809C33.4325 108.189 32.93 108.444 33.1553 108.982C33.1336 109.364 33.352 109.66 33.5126 109.977C33.2799 110.369 32.9243 110.188 32.6044 110.178C32.149 110.117 31.6962 110.076 31.2861 110.36C31.0239 110.491 30.7646 110.635 30.4556 110.529Z" fill="#D6D2D2"/>
<path d="M35.6037 108.271C35.5171 108.867 36.3619 108.588 36.3677 109.205C35.693 109.123 35.184 108.561 34.2433 108.555C34.6532 108.794 34.878 108.926 35.1031 109.057C35.0593 109.181 34.9738 109.261 34.8466 109.296L34.8334 109.295C34.3628 109.413 33.9277 109.146 33.4653 109.174C33.2765 109.187 33.1029 109.114 32.9229 109.078C32.6293 108.372 32.954 108 33.612 107.809C33.7659 107.652 33.916 107.488 34.169 107.605C34.6678 107.783 35.2137 107.859 35.6037 108.271Z" fill="#9E989A"/>
<path d="M32.4473 111.58C32.1002 111.559 31.7532 111.526 31.4057 111.521C31.1181 111.515 30.8431 111.539 30.7912 111.929C30.6896 112.694 30.1722 113.248 29.7746 113.862C29.6268 113.983 29.4151 114.08 29.4729 113.776C29.6844 112.661 29.8165 111.517 30.4556 110.529C30.7063 110.388 30.9572 110.247 31.2081 110.105C31.5808 110.062 31.9515 109.957 32.3131 110.179C32.607 110.36 32.4587 109.969 32.597 109.937C32.906 109.904 33.2071 110.144 33.5203 109.962C34.2103 109.713 34.7365 109.946 35.1514 110.511C35.3493 111.019 35.3493 111.019 34.4766 110.914C34.6734 111.119 34.8201 111.272 34.9665 111.424C34.078 111.072 33.2643 111.364 32.4473 111.58Z" fill="#B3ADAD"/>
<path d="M32.597 109.937C32.6296 110.159 32.7468 110.537 32.679 110.574C32.4184 110.715 32.3221 110.496 32.17 110.27C31.9624 109.962 31.5183 110.271 31.2081 110.105C31.6289 109.698 32.1203 109.879 32.597 109.937Z" fill="#81797D"/>
</g>
</svg>
