<svg width="795" height="561" viewBox="0 0 795 561" fill="none" xmlns="http://www.w3.org/2000/svg">
<path opacity="0.02" d="M4 446.482C4 446.482 19.3501 413.245 31.4121 420.916C43.474 428.586 47.6772 459.994 56.8138 449.22C65.9504 438.446 71.0686 421.828 72.1639 427.125C73.2592 432.422 75.4544 453.238 78.9251 450.135C82.3958 447.031 88.9767 419.089 109.993 415.803C131.009 412.517 146.359 422.058 150.334 427.811C154.309 433.564 154.948 437.901 160.066 441.828C165.184 445.754 168.746 447.763 170.026 446.575C171.306 445.387 169.753 438.904 179.622 432.513C189.491 426.121 194.515 422.286 200.09 423.474C205.665 424.662 207.399 433.245 204.293 435.436C201.188 437.627 181.449 446.94 185.287 447.581C189.126 448.219 200.911 446.669 209.868 442.924C218.822 439.18 225.309 435.986 228.235 439.912C231.158 443.839 232.62 448.586 224.488 452.148C216.355 455.71 195.704 464.475 200.64 465.114C205.573 465.752 241.209 463.971 239.838 460.822C238.466 457.673 226.749 449.318 227.639 454.317C228.529 459.315 236.616 462.877 240.591 462.671C244.566 462.466 249.91 460.138 252.379 462.945C254.846 465.752 252.447 473.012 248.678 474.312C244.908 475.614 198.445 482.735 209.067 484.174C219.689 485.613 247.443 474.656 252.858 476.984C258.273 479.313 256.422 485.887 253.817 487.804C251.213 489.722 209.135 497.803 207.216 501.089C205.297 504.377 210.094 505.061 199.953 509.581C189.81 514.1 180.491 506.156 163.633 503.964C146.774 501.773 102.832 481.666 91.8131 464.382C80.7939 447.097 73.2638 430.962 85.6908 403.57C98.1179 376.177 119.499 344.128 140.88 303.041C162.261 261.953 176.79 216.207 203.654 201.962C230.519 187.718 271.636 172.789 273.692 175.53C275.748 178.268 279.038 186.76 289.592 193.883C300.145 201.005 303.983 200.457 305.352 205.663C306.724 210.867 313.576 252.549 325.453 264.785C337.333 277.021 376.439 277.568 369.131 274.465C361.822 271.361 347.75 269.9 337.333 262.229C326.916 254.558 322.348 242.142 321.983 247.072C321.618 252.002 319.607 272.091 333.312 306.058C347.017 340.024 350.308 364.128 350.581 386.865C350.855 409.601 353.322 429.596 349.21 429.049C345.098 428.502 331.117 405.766 328.377 396.727C325.636 387.688 322.346 326.055 313.3 296.471C304.255 266.888 285.067 210.595 278.899 216.759C272.731 222.922 269.03 227.442 268.345 231.551C267.661 235.66 268.071 249.081 267.248 250.588C266.424 252.096 250.663 260.587 249.018 277.844C247.373 295.101 254.912 310.167 262.312 336.191C269.712 362.213 273.094 373.719 277.388 383.488C281.683 393.259 283.51 397 285.977 397.368C288.444 397.732 288.626 396.271 288.444 395.815C288.261 395.359 277.251 377.005 271.905 352.901C266.558 328.796 254.91 289.897 257.376 274.421C259.843 258.945 277.799 258.672 284.788 263.465C291.778 268.258 298.493 271.957 300.138 291.542C301.784 311.127 307.265 347.971 305.346 369.61C303.427 391.25 301.097 393.991 302.605 394.948C304.113 395.906 307.539 395.906 307.402 395.085C307.265 394.264 310.829 383.855 309.731 346.6C308.634 309.346 310.829 290.445 303.153 274.148C295.477 257.849 277.934 253.192 277.477 251.184C277.021 249.175 280.309 223.061 277.112 225.617C273.913 228.174 256.644 241.322 256.37 238.583C256.096 235.844 253.538 224.338 261.671 210.826C269.803 197.313 277.112 189.095 276.291 186.263C275.469 183.433 273.55 177.498 265.326 156.861C257.102 136.225 244.31 128.374 248.513 112.121C252.717 95.8672 271.905 71.2155 305.713 66.2833C339.521 61.3534 373.147 100.615 372.782 95.5023C372.417 90.39 367.298 80.8928 370.771 75.963C374.244 71.0331 377.715 71.6351 376.62 65.8546C375.522 60.0742 348.477 4.7419 300.962 4.01222C253.449 3.27343 231.885 36.1431 229.51 70.2943C227.135 104.445 240.657 130.374 242.12 123.618C243.582 116.861 236.089 98.0517 255.277 79.4244C274.465 60.7971 280.131 63.3532 281.774 53.4935C283.419 43.6314 285.977 2.54375 288.17 14.5971C290.363 26.6505 295.114 45.4602 299.682 45.4602C304.25 45.4602 327.277 35.4157 341.349 54.9551C355.421 74.4945 363.645 85.6335 365.471 80.3387C367.296 75.044 376.252 63.3555 382.101 69.9294C387.949 76.5034 398.366 103.166 395.075 112.661C391.785 122.156 385.206 122.888 385.939 126.356C386.669 129.827 392.7 145.531 390.142 165.62C387.584 185.706 364.375 211.457 344.272 215.108C324.171 218.761 304.981 207.62 309.916 206.707C314.85 205.795 350.668 210.36 364.74 191.368C378.813 172.376 385.026 137.68 396.538 147.722C408.05 157.767 425.413 179.132 438.57 202.872C451.727 226.612 459.404 239.577 455.018 240.127C450.632 240.676 425.595 230.447 425.778 235.926C425.961 241.406 425.778 289.615 422.855 316.095C419.932 342.573 415.546 379.919 418.287 383.116C421.027 386.313 425.322 380.925 428.43 387.772C431.535 394.62 431.17 416.168 418.652 414.25C406.133 412.333 401.565 397.45 405.129 389.87C408.694 382.291 413.536 384.575 416.918 387.223C420.299 389.87 422.914 391.97 424.621 389.232C426.328 386.493 428.521 336.364 430.896 309.886C433.272 283.408 439.12 245.424 435.099 241.406C431.079 237.388 416.094 228.623 414.631 233.553C413.168 238.483 414.266 246.336 389.777 284.502C365.288 322.669 343.724 330.522 346.65 326.14C349.573 321.757 389.412 268.251 399.829 228.258C410.245 188.265 391.422 157.997 397.453 161.283C403.484 164.571 409.241 175.801 414.585 177.719C419.932 179.636 491.201 183.061 504.359 202.783C517.516 222.505 522.452 252.638 514.775 303.862C507.099 355.085 504.434 427.674 490.143 458.081C475.851 488.486 450.358 497.251 450.358 493.145C450.358 489.036 458.308 475.34 445.699 453.151C433.089 430.965 421.36 432.333 424.621 427.403C427.882 422.473 436.38 407.132 445.151 372.618C453.923 338.104 465.437 284.689 468.999 298.932C472.563 313.176 457.761 402.202 446.52 416.444C435.282 430.689 409.515 438.084 391.97 440.457C374.427 442.831 353.32 442.74 348.66 436.576C344 430.413 320.974 393.021 314.669 394.939C308.365 396.857 294.178 405.417 289.245 409.389C284.311 413.361 278.554 422.605 271.976 420.209C265.397 417.812 264.712 410.005 267.795 407.334C270.878 404.664 280.199 400.761 288.149 399.39C296.1 398.02 302.473 396.583 299.525 399.595C296.579 402.608 268.16 420.824 272.637 425.207C277.114 429.59 281.956 434.428 287.166 431.599C292.373 428.769 294.933 423.928 305.259 418.542C315.584 413.154 320.244 411.329 318.69 414.889C317.136 418.451 293.014 436.072 293.927 439.543C294.84 443.013 304.344 449.038 306.263 447.943C308.182 446.846 307.634 444.84 317.319 437.99C327.005 431.142 333.216 431.599 332.121 433.607C331.023 435.616 312.203 448.217 313.754 452.782C315.308 457.347 317.501 459.538 325.816 456.161C334.131 452.784 347.106 445.661 341.44 446.482C335.774 447.303 319.144 450.864 320.059 454.608C320.972 458.353 438.205 541.078 434.184 540.895C430.164 540.713 317.41 513.138 311.561 508.573C305.713 504.008 174.501 408.865 171.213 411.968C167.922 415.071 153.67 437.534 160.796 434.248C167.922 430.96 175.599 420.918 174.868 419.091C174.138 417.265 80.9377 353.897 88.4291 352.438C95.9227 350.976 192.411 372.891 204.291 379.648C216.17 386.404 236.089 401.014 235.724 396.084C235.358 391.154 213.977 360.108 212.15 330.889C210.322 301.67 217.083 257.295 219.826 269.348C222.566 281.401 221.288 312.08 217.633 325.41C213.977 338.74 200.09 366.498 202.83 369.786C205.571 373.074 354.963 503.385 370.043 503.552C385.124 503.718 431.994 499.716 448.168 499.716C464.342 499.716 538.902 492.321 536.709 507.661C534.516 523 510.805 556.829 527.253 591.756C543.7 626.682 583.859 628.187 602.497 611.751C621.136 595.315 628.264 558.063 670.479 500.539C712.693 443.016 719.819 418.909 712.145 348.785C704.472 278.66 645.259 235.929 627.169 257.295C609.076 278.66 599.757 346.593 585.502 383.848C571.247 421.103 528.896 496.02 543.698 492.732C558.501 489.444 600.031 404.391 620.588 355.495C641.147 306.6 638.131 276.196 627.714 268.525C617.297 260.854 604.688 256.471 595.642 259.76C586.597 263.048 550.687 280.578 543.559 268.798C536.433 257.019 524.644 222.801 519.711 223.132C514.778 223.463 485.036 225.517 487.913 216.889C490.791 208.26 499.838 186.894 494.629 177.58C489.422 168.267 479.142 162.332 478.044 131.286C476.947 100.241 493.394 94.214 500.705 110.103C508.016 125.991 544.015 172.009 565.214 169.453C586.412 166.897 583.672 135.669 606.698 135.669C629.724 135.669 637.583 151.922 636.486 167.809C635.388 183.695 616.385 204.514 613.459 198.122C610.534 191.731 614.922 188.078 609.074 171.644C603.225 155.21 594.636 153.749 599.937 147.357C605.238 140.966 615.105 141.695 623.328 151.01C631.552 160.325 672.487 173.655 677.237 165.255C681.988 156.855 665.817 90.4744 681.03 69.1086C696.243 47.7427 743.528 56.3711 747.229 97.4588C750.93 138.546 718.446 182.101 701.587 171.829C684.729 161.556 689.662 143.39 683.907 108.963C678.15 74.5355 656.769 19.3902 589.748 18.9797C522.725 18.5693 475.121 85.2686 484.075 89.8337C493.029 94.3987 584.402 42.5369 612.364 60.341C640.324 78.1452 646.686 105.818 656.224 136.766C665.76 167.713 668.012 173.471 690.488 193.195C712.965 212.919 732.429 222.779 724.479 227.982C716.529 233.186 634.019 258.113 643.067 244.418C652.112 230.723 752.715 206.89 780.675 230.447C808.634 254.004 846.668 390.967 878.261 470.404C909.853 549.84 933.085 630.924 920.475 646.263C907.866 661.602 683.088 661.602 673.219 648.044C663.35 634.485 634.158 555.183 645.67 569.565C657.182 583.946 780.948 650.098 783.826 618.87C786.703 587.642 723.381 394.116 757.511 440.546C791.639 486.976 896.078 613.94 879.632 561.757C863.185 509.574 795.34 340.701 814.665 355.904C833.99 371.106 880.043 401.923 882.92 376.036C885.798 350.148 861.129 262.63 874.697 292.214C888.265 321.798 914.031 403.565 923.969 353.026C933.906 302.487 916.227 233.047 916.227 233.047" stroke="white" stroke-width="8" stroke-miterlimit="10"/>
</svg>
