<svg width="122" height="122" viewBox="0 0 122 122" fill="none" xmlns="http://www.w3.org/2000/svg">
<g opacity="0.16">
<path d="M0 0H4.3444V4.33931H0V0Z" fill="#0D6DFD"/>
<path d="M0 62.4861H4.3444V66.8254H0V62.4861Z" fill="#0D6DFD"/>
<path d="M0 31.243H4.3444V35.5823H0V31.243Z" fill="#0D6DFD"/>
<path d="M0 93.7291H4.3444V98.0684H0V93.7291Z" fill="#0D6DFD"/>
<path d="M0 15.6216H4.3444V19.9609H0V15.6216Z" fill="#0D6DFD"/>
<path d="M0 78.1075H4.3444V82.4469H0V78.1075Z" fill="#0D6DFD"/>
<path d="M0 46.8645H4.3444V51.2038H0V46.8645Z" fill="#0D6DFD"/>
<path d="M0 109.351H4.3444V113.69H0V109.351Z" fill="#0D6DFD"/>
<path d="M0 7.81074H4.3444V12.15H0V7.81074Z" fill="#0D6DFD"/>
<path d="M0 70.2968H4.3444V74.6361H0V70.2968Z" fill="#0D6DFD"/>
<path d="M0 39.0538H4.3444V43.3931H0V39.0538Z" fill="#0D6DFD"/>
<path d="M0 101.54H4.3444V105.879H0V101.54Z" fill="#0D6DFD"/>
<path d="M0 23.4322H4.3444V27.7715H0V23.4322Z" fill="#0D6DFD"/>
<path d="M0 85.9184H4.3444V90.2577H0V85.9184Z" fill="#0D6DFD"/>
<path d="M0 54.6753H4.3444V59.0146H0V54.6753Z" fill="#0D6DFD"/>
<path d="M0 117.161H4.3444V121.501H0V117.161Z" fill="#0D6DFD"/>
<path d="M62.5594 0H66.9038V4.33931H62.5594V0Z" fill="#0D6DFD"/>
<path d="M62.5594 62.4861H66.9038V66.8254H62.5594V62.4861Z" fill="#0D6DFD"/>
<path d="M62.5594 31.243H66.9038V35.5823H62.5594V31.243Z" fill="#0D6DFD"/>
<path d="M62.5594 93.7291H66.9038V98.0684H62.5594V93.7291Z" fill="#0D6DFD"/>
<path d="M62.5594 15.6216H66.9038V19.9609H62.5594V15.6216Z" fill="#0D6DFD"/>
<path d="M62.5594 78.1075H66.9038V82.4469H62.5594V78.1075Z" fill="#0D6DFD"/>
<path d="M62.5594 46.8645H66.9038V51.2038H62.5594V46.8645Z" fill="#0D6DFD"/>
<path d="M62.5594 109.351H66.9038V113.69H62.5594V109.351Z" fill="#0D6DFD"/>
<path d="M62.5594 7.81074H66.9038V12.15H62.5594V7.81074Z" fill="#0D6DFD"/>
<path d="M62.5594 70.2968H66.9038V74.6361H62.5594V70.2968Z" fill="#0D6DFD"/>
<path d="M62.5594 39.0538H66.9038V43.3931H62.5594V39.0538Z" fill="#0D6DFD"/>
<path d="M62.5594 101.54H66.9038V105.879H62.5594V101.54Z" fill="#0D6DFD"/>
<path d="M62.5594 23.4322H66.9038V27.7715H62.5594V23.4322Z" fill="#0D6DFD"/>
<path d="M62.5594 85.9184H66.9038V90.2577H62.5594V85.9184Z" fill="#0D6DFD"/>
<path d="M62.5594 54.6753H66.9038V59.0146H62.5594V54.6753Z" fill="#0D6DFD"/>
<path d="M62.5594 117.161H66.9038V121.501H62.5594V117.161Z" fill="#0D6DFD"/>
<path d="M31.2797 0H35.6241V4.33931H31.2797V0Z" fill="#0D6DFD"/>
<path d="M31.2797 62.4861H35.6241V66.8254H31.2797V62.4861Z" fill="#0D6DFD"/>
<path d="M31.2797 31.243H35.6241V35.5823H31.2797V31.243Z" fill="#0D6DFD"/>
<path d="M31.2797 93.7291H35.6241V98.0684H31.2797V93.7291Z" fill="#0D6DFD"/>
<path d="M31.2797 15.6216H35.6241V19.9609H31.2797V15.6216Z" fill="#0D6DFD"/>
<path d="M31.2797 78.1075H35.6241V82.4469H31.2797V78.1075Z" fill="#0D6DFD"/>
<path d="M31.2797 46.8645H35.6241V51.2038H31.2797V46.8645Z" fill="#0D6DFD"/>
<path d="M31.2797 109.351H35.6241V113.69H31.2797V109.351Z" fill="#0D6DFD"/>
<path d="M31.2797 7.81074H35.6241V12.15H31.2797V7.81074Z" fill="#0D6DFD"/>
<path d="M31.2797 70.2968H35.6241V74.6361H31.2797V70.2968Z" fill="#0D6DFD"/>
<path d="M31.2797 39.0538H35.6241V43.3931H31.2797V39.0538Z" fill="#0D6DFD"/>
<path d="M31.2797 101.54H35.6241V105.879H31.2797V101.54Z" fill="#0D6DFD"/>
<path d="M31.2797 23.4322H35.6241V27.7715H31.2797V23.4322Z" fill="#0D6DFD"/>
<path d="M31.2797 85.9184H35.6241V90.2577H31.2797V85.9184Z" fill="#0D6DFD"/>
<path d="M31.2797 54.6753H35.6241V59.0146H31.2797V54.6753Z" fill="#0D6DFD"/>
<path d="M31.2797 117.161H35.6241V121.501H31.2797V117.161Z" fill="#0D6DFD"/>
<path d="M93.8391 0H98.1835V4.33931H93.8391V0Z" fill="#0D6DFD"/>
<path d="M93.8391 62.4861H98.1835V66.8254H93.8391V62.4861Z" fill="#0D6DFD"/>
<path d="M93.8391 31.243H98.1835V35.5823H93.8391V31.243Z" fill="#0D6DFD"/>
<path d="M93.8391 93.7291H98.1835V98.0684H93.8391V93.7291Z" fill="#0D6DFD"/>
<path d="M93.8391 15.6216H98.1835V19.9609H93.8391V15.6216Z" fill="#0D6DFD"/>
<path d="M93.8391 78.1075H98.1835V82.4469H93.8391V78.1075Z" fill="#0D6DFD"/>
<path d="M93.8391 46.8645H98.1835V51.2038H93.8391V46.8645Z" fill="#0D6DFD"/>
<path d="M93.8391 109.351H98.1835V113.69H93.8391V109.351Z" fill="#0D6DFD"/>
<path d="M93.8391 7.81074H98.1835V12.15H93.8391V7.81074Z" fill="#0D6DFD"/>
<path d="M93.8391 70.2968H98.1835V74.6361H93.8391V70.2968Z" fill="#0D6DFD"/>
<path d="M93.8391 39.0538H98.1835V43.3931H93.8391V39.0538Z" fill="#0D6DFD"/>
<path d="M93.8391 101.54H98.1835V105.879H93.8391V101.54Z" fill="#0D6DFD"/>
<path d="M93.8391 23.4322H98.1835V27.7715H93.8391V23.4322Z" fill="#0D6DFD"/>
<path d="M93.8391 85.9184H98.1835V90.2577H93.8391V85.9184Z" fill="#0D6DFD"/>
<path d="M93.8391 54.6753H98.1835V59.0146H93.8391V54.6753Z" fill="#0D6DFD"/>
<path d="M93.8391 117.161H98.1835V121.501H93.8391V117.161Z" fill="#0D6DFD"/>
<path d="M15.6399 0H19.9843V4.33931H15.6399V0Z" fill="#0D6DFD"/>
<path d="M15.6399 62.4861H19.9843V66.8254H15.6399V62.4861Z" fill="#0D6DFD"/>
<path d="M15.6399 31.243H19.9843V35.5823H15.6399V31.243Z" fill="#0D6DFD"/>
<path d="M15.6399 93.7291H19.9843V98.0684H15.6399V93.7291Z" fill="#0D6DFD"/>
<path d="M15.6399 15.6216H19.9843V19.9609H15.6399V15.6216Z" fill="#0D6DFD"/>
<path d="M15.6399 78.1075H19.9843V82.4469H15.6399V78.1075Z" fill="#0D6DFD"/>
<path d="M15.6399 46.8645H19.9843V51.2038H15.6399V46.8645Z" fill="#0D6DFD"/>
<path d="M15.6399 109.351H19.9843V113.69H15.6399V109.351Z" fill="#0D6DFD"/>
<path d="M15.6399 7.81074H19.9843V12.15H15.6399V7.81074Z" fill="#0D6DFD"/>
<path d="M15.6399 70.2968H19.9843V74.6361H15.6399V70.2968Z" fill="#0D6DFD"/>
<path d="M15.6399 39.0538H19.9843V43.3931H15.6399V39.0538Z" fill="#0D6DFD"/>
<path d="M15.6399 101.54H19.9843V105.879H15.6399V101.54Z" fill="#0D6DFD"/>
<path d="M15.6399 23.4322H19.9843V27.7715H15.6399V23.4322Z" fill="#0D6DFD"/>
<path d="M15.6399 85.9184H19.9843V90.2577H15.6399V85.9184Z" fill="#0D6DFD"/>
<path d="M15.6399 54.6753H19.9843V59.0146H15.6399V54.6753Z" fill="#0D6DFD"/>
<path d="M15.6399 117.161H19.9843V121.501H15.6399V117.161Z" fill="#0D6DFD"/>
<path d="M78.1992 0H82.5436V4.33931H78.1992V0Z" fill="#0D6DFD"/>
<path d="M78.1992 62.4861H82.5436V66.8254H78.1992V62.4861Z" fill="#0D6DFD"/>
<path d="M78.1992 31.243H82.5436V35.5823H78.1992V31.243Z" fill="#0D6DFD"/>
<path d="M78.1992 93.7291H82.5436V98.0684H78.1992V93.7291Z" fill="#0D6DFD"/>
<path d="M78.1992 15.6216H82.5436V19.9609H78.1992V15.6216Z" fill="#0D6DFD"/>
<path d="M78.1992 78.1075H82.5436V82.4469H78.1992V78.1075Z" fill="#0D6DFD"/>
<path d="M78.1992 46.8645H82.5436V51.2038H78.1992V46.8645Z" fill="#0D6DFD"/>
<path d="M78.1992 109.351H82.5436V113.69H78.1992V109.351Z" fill="#0D6DFD"/>
<path d="M78.1992 7.81074H82.5436V12.15H78.1992V7.81074Z" fill="#0D6DFD"/>
<path d="M78.1992 70.2968H82.5436V74.6361H78.1992V70.2968Z" fill="#0D6DFD"/>
<path d="M78.1992 39.0538H82.5436V43.3931H78.1992V39.0538Z" fill="#0D6DFD"/>
<path d="M78.1992 101.54H82.5436V105.879H78.1992V101.54Z" fill="#0D6DFD"/>
<path d="M78.1992 23.4322H82.5436V27.7715H78.1992V23.4322Z" fill="#0D6DFD"/>
<path d="M78.1992 85.9184H82.5436V90.2577H78.1992V85.9184Z" fill="#0D6DFD"/>
<path d="M78.1992 54.6753H82.5436V59.0146H78.1992V54.6753Z" fill="#0D6DFD"/>
<path d="M78.1992 117.161H82.5436V121.501H78.1992V117.161Z" fill="#0D6DFD"/>
<path d="M46.9195 0H51.2639V4.33931H46.9195V0Z" fill="#0D6DFD"/>
<path d="M46.9195 62.4861H51.2639V66.8254H46.9195V62.4861Z" fill="#0D6DFD"/>
<path d="M46.9195 31.243H51.2639V35.5823H46.9195V31.243Z" fill="#0D6DFD"/>
<path d="M46.9195 93.7291H51.2639V98.0684H46.9195V93.7291Z" fill="#0D6DFD"/>
<path d="M46.9195 15.6216H51.2639V19.9609H46.9195V15.6216Z" fill="#0D6DFD"/>
<path d="M46.9195 78.1075H51.2639V82.4469H46.9195V78.1075Z" fill="#0D6DFD"/>
<path d="M46.9195 46.8645H51.2639V51.2038H46.9195V46.8645Z" fill="#0D6DFD"/>
<path d="M46.9195 109.351H51.2639V113.69H46.9195V109.351Z" fill="#0D6DFD"/>
<path d="M46.9195 7.81074H51.2639V12.15H46.9195V7.81074Z" fill="#0D6DFD"/>
<path d="M46.9195 70.2968H51.2639V74.6361H46.9195V70.2968Z" fill="#0D6DFD"/>
<path d="M46.9195 39.0538H51.2639V43.3931H46.9195V39.0538Z" fill="#0D6DFD"/>
<path d="M46.9195 101.54H51.2639V105.879H46.9195V101.54Z" fill="#0D6DFD"/>
<path d="M46.9195 23.4322H51.2639V27.7715H46.9195V23.4322Z" fill="#0D6DFD"/>
<path d="M46.9195 85.9184H51.2639V90.2577H46.9195V85.9184Z" fill="#0D6DFD"/>
<path d="M46.9195 54.6753H51.2639V59.0146H46.9195V54.6753Z" fill="#0D6DFD"/>
<path d="M46.9195 117.161H51.2639V121.501H46.9195V117.161Z" fill="#0D6DFD"/>
<path d="M109.479 0H113.823V4.33931H109.479V0Z" fill="#0D6DFD"/>
<path d="M109.479 62.4861H113.823V66.8254H109.479V62.4861Z" fill="#0D6DFD"/>
<path d="M109.479 31.243H113.823V35.5823H109.479V31.243Z" fill="#0D6DFD"/>
<path d="M109.479 93.7291H113.823V98.0684H109.479V93.7291Z" fill="#0D6DFD"/>
<path d="M109.479 15.6216H113.823V19.9609H109.479V15.6216Z" fill="#0D6DFD"/>
<path d="M109.479 78.1075H113.823V82.4469H109.479V78.1075Z" fill="#0D6DFD"/>
<path d="M109.479 46.8645H113.823V51.2038H109.479V46.8645Z" fill="#0D6DFD"/>
<path d="M109.479 109.351H113.823V113.69H109.479V109.351Z" fill="#0D6DFD"/>
<path d="M109.479 7.81074H113.823V12.15H109.479V7.81074Z" fill="#0D6DFD"/>
<path d="M109.479 70.2968H113.823V74.6361H109.479V70.2968Z" fill="#0D6DFD"/>
<path d="M109.479 39.0538H113.823V43.3931H109.479V39.0538Z" fill="#0D6DFD"/>
<path d="M109.479 101.54H113.823V105.879H109.479V101.54Z" fill="#0D6DFD"/>
<path d="M109.479 23.4322H113.823V27.7715H109.479V23.4322Z" fill="#0D6DFD"/>
<path d="M109.479 85.9184H113.823V90.2577H109.479V85.9184Z" fill="#0D6DFD"/>
<path d="M109.479 54.6753H113.823V59.0146H109.479V54.6753Z" fill="#0D6DFD"/>
<path d="M109.479 117.161H113.823V121.501H109.479V117.161Z" fill="#0D6DFD"/>
<path d="M7.81991 0H12.1643V4.33931H7.81991V0Z" fill="#0D6DFD"/>
<path d="M7.81991 62.4861H12.1643V66.8254H7.81991V62.4861Z" fill="#0D6DFD"/>
<path d="M7.81991 31.243H12.1643V35.5823H7.81991V31.243Z" fill="#0D6DFD"/>
<path d="M7.81991 93.7291H12.1643V98.0684H7.81991V93.7291Z" fill="#0D6DFD"/>
<path d="M7.81991 15.6216H12.1643V19.9609H7.81991V15.6216Z" fill="#0D6DFD"/>
<path d="M7.81991 78.1075H12.1643V82.4469H7.81991V78.1075Z" fill="#0D6DFD"/>
<path d="M7.81991 46.8645H12.1643V51.2038H7.81991V46.8645Z" fill="#0D6DFD"/>
<path d="M7.81991 109.351H12.1643V113.69H7.81991V109.351Z" fill="#0D6DFD"/>
<path d="M7.81991 7.81074H12.1643V12.15H7.81991V7.81074Z" fill="#0D6DFD"/>
<path d="M7.81991 70.2968H12.1643V74.6361H7.81991V70.2968Z" fill="#0D6DFD"/>
<path d="M7.81991 39.0538H12.1643V43.3931H7.81991V39.0538Z" fill="#0D6DFD"/>
<path d="M7.81991 101.54H12.1643V105.879H7.81991V101.54Z" fill="#0D6DFD"/>
<path d="M7.81991 23.4322H12.1643V27.7715H7.81991V23.4322Z" fill="#0D6DFD"/>
<path d="M7.81991 85.9184H12.1643V90.2577H7.81991V85.9184Z" fill="#0D6DFD"/>
<path d="M7.81991 54.6753H12.1643V59.0146H7.81991V54.6753Z" fill="#0D6DFD"/>
<path d="M7.81991 117.161H12.1643V121.501H7.81991V117.161Z" fill="#0D6DFD"/>
<path d="M70.3793 0H74.7237V4.33931H70.3793V0Z" fill="#0D6DFD"/>
<path d="M70.3793 62.4861H74.7237V66.8254H70.3793V62.4861Z" fill="#0D6DFD"/>
<path d="M70.3793 31.243H74.7237V35.5823H70.3793V31.243Z" fill="#0D6DFD"/>
<path d="M70.3793 93.7291H74.7237V98.0684H70.3793V93.7291Z" fill="#0D6DFD"/>
<path d="M70.3793 15.6216H74.7237V19.9609H70.3793V15.6216Z" fill="#0D6DFD"/>
<path d="M70.3793 78.1075H74.7237V82.4469H70.3793V78.1075Z" fill="#0D6DFD"/>
<path d="M70.3793 46.8645H74.7237V51.2038H70.3793V46.8645Z" fill="#0D6DFD"/>
<path d="M70.3793 109.351H74.7237V113.69H70.3793V109.351Z" fill="#0D6DFD"/>
<path d="M70.3793 7.81074H74.7237V12.15H70.3793V7.81074Z" fill="#0D6DFD"/>
<path d="M70.3793 70.2968H74.7237V74.6361H70.3793V70.2968Z" fill="#0D6DFD"/>
<path d="M70.3793 39.0538H74.7237V43.3931H70.3793V39.0538Z" fill="#0D6DFD"/>
<path d="M70.3793 101.54H74.7237V105.879H70.3793V101.54Z" fill="#0D6DFD"/>
<path d="M70.3793 23.4322H74.7237V27.7715H70.3793V23.4322Z" fill="#0D6DFD"/>
<path d="M70.3793 85.9184H74.7237V90.2577H70.3793V85.9184Z" fill="#0D6DFD"/>
<path d="M70.3793 54.6753H74.7237V59.0146H70.3793V54.6753Z" fill="#0D6DFD"/>
<path d="M70.3793 117.161H74.7237V121.501H70.3793V117.161Z" fill="#0D6DFD"/>
<path d="M39.0997 0H43.4441V4.33931H39.0997V0Z" fill="#0D6DFD"/>
<path d="M39.0997 62.4861H43.4441V66.8254H39.0997V62.4861Z" fill="#0D6DFD"/>
<path d="M39.0997 31.243H43.4441V35.5823H39.0997V31.243Z" fill="#0D6DFD"/>
<path d="M39.0997 93.7291H43.4441V98.0684H39.0997V93.7291Z" fill="#0D6DFD"/>
<path d="M39.0997 15.6216H43.4441V19.9609H39.0997V15.6216Z" fill="#0D6DFD"/>
<path d="M39.0997 78.1075H43.4441V82.4469H39.0997V78.1075Z" fill="#0D6DFD"/>
<path d="M39.0997 46.8645H43.4441V51.2038H39.0997V46.8645Z" fill="#0D6DFD"/>
<path d="M39.0997 109.351H43.4441V113.69H39.0997V109.351Z" fill="#0D6DFD"/>
<path d="M39.0997 7.81074H43.4441V12.15H39.0997V7.81074Z" fill="#0D6DFD"/>
<path d="M39.0997 70.2968H43.4441V74.6361H39.0997V70.2968Z" fill="#0D6DFD"/>
<path d="M39.0997 39.0538H43.4441V43.3931H39.0997V39.0538Z" fill="#0D6DFD"/>
<path d="M39.0997 101.54H43.4441V105.879H39.0997V101.54Z" fill="#0D6DFD"/>
<path d="M39.0997 23.4322H43.4441V27.7715H39.0997V23.4322Z" fill="#0D6DFD"/>
<path d="M39.0997 85.9184H43.4441V90.2577H39.0997V85.9184Z" fill="#0D6DFD"/>
<path d="M39.0997 54.6753H43.4441V59.0146H39.0997V54.6753Z" fill="#0D6DFD"/>
<path d="M39.0997 117.161H43.4441V121.501H39.0997V117.161Z" fill="#0D6DFD"/>
<path d="M101.659 0H106.003V4.33931H101.659V0Z" fill="#0D6DFD"/>
<path d="M101.659 62.4861H106.003V66.8254H101.659V62.4861Z" fill="#0D6DFD"/>
<path d="M101.659 31.243H106.003V35.5823H101.659V31.243Z" fill="#0D6DFD"/>
<path d="M101.659 93.7291H106.003V98.0684H101.659V93.7291Z" fill="#0D6DFD"/>
<path d="M101.659 15.6216H106.003V19.9609H101.659V15.6216Z" fill="#0D6DFD"/>
<path d="M101.659 78.1075H106.003V82.4469H101.659V78.1075Z" fill="#0D6DFD"/>
<path d="M101.659 46.8645H106.003V51.2038H101.659V46.8645Z" fill="#0D6DFD"/>
<path d="M101.659 109.351H106.003V113.69H101.659V109.351Z" fill="#0D6DFD"/>
<path d="M101.659 7.81074H106.003V12.15H101.659V7.81074Z" fill="#0D6DFD"/>
<path d="M101.659 70.2968H106.003V74.6361H101.659V70.2968Z" fill="#0D6DFD"/>
<path d="M101.659 39.0538H106.003V43.3931H101.659V39.0538Z" fill="#0D6DFD"/>
<path d="M101.659 101.54H106.003V105.879H101.659V101.54Z" fill="#0D6DFD"/>
<path d="M101.659 23.4322H106.003V27.7715H101.659V23.4322Z" fill="#0D6DFD"/>
<path d="M101.659 85.9184H106.003V90.2577H101.659V85.9184Z" fill="#0D6DFD"/>
<path d="M101.659 54.6753H106.003V59.0146H101.659V54.6753Z" fill="#0D6DFD"/>
<path d="M101.659 117.161H106.003V121.501H101.659V117.161Z" fill="#0D6DFD"/>
<path d="M23.4598 0H27.8042V4.33931H23.4598V0Z" fill="#0D6DFD"/>
<path d="M23.4598 62.4861H27.8042V66.8254H23.4598V62.4861Z" fill="#0D6DFD"/>
<path d="M23.4598 31.243H27.8042V35.5823H23.4598V31.243Z" fill="#0D6DFD"/>
<path d="M23.4598 93.7291H27.8042V98.0684H23.4598V93.7291Z" fill="#0D6DFD"/>
<path d="M23.4598 15.6216H27.8042V19.9609H23.4598V15.6216Z" fill="#0D6DFD"/>
<path d="M23.4598 78.1075H27.8042V82.4469H23.4598V78.1075Z" fill="#0D6DFD"/>
<path d="M23.4598 46.8645H27.8042V51.2038H23.4598V46.8645Z" fill="#0D6DFD"/>
<path d="M23.4598 109.351H27.8042V113.69H23.4598V109.351Z" fill="#0D6DFD"/>
<path d="M23.4598 7.81074H27.8042V12.15H23.4598V7.81074Z" fill="#0D6DFD"/>
<path d="M23.4598 70.2968H27.8042V74.6361H23.4598V70.2968Z" fill="#0D6DFD"/>
<path d="M23.4598 39.0538H27.8042V43.3931H23.4598V39.0538Z" fill="#0D6DFD"/>
<path d="M23.4598 101.54H27.8042V105.879H23.4598V101.54Z" fill="#0D6DFD"/>
<path d="M23.4598 23.4322H27.8042V27.7715H23.4598V23.4322Z" fill="#0D6DFD"/>
<path d="M23.4598 85.9184H27.8042V90.2577H23.4598V85.9184Z" fill="#0D6DFD"/>
<path d="M23.4598 54.6753H27.8042V59.0146H23.4598V54.6753Z" fill="#0D6DFD"/>
<path d="M23.4598 117.161H27.8042V121.501H23.4598V117.161Z" fill="#0D6DFD"/>
<path d="M86.0192 0H90.3636V4.33931H86.0192V0Z" fill="#0D6DFD"/>
<path d="M86.0192 62.4861H90.3636V66.8254H86.0192V62.4861Z" fill="#0D6DFD"/>
<path d="M86.0192 31.243H90.3636V35.5823H86.0192V31.243Z" fill="#0D6DFD"/>
<path d="M86.0192 93.7291H90.3636V98.0684H86.0192V93.7291Z" fill="#0D6DFD"/>
<path d="M86.0192 15.6216H90.3636V19.9609H86.0192V15.6216Z" fill="#0D6DFD"/>
<path d="M86.0192 78.1075H90.3636V82.4469H86.0192V78.1075Z" fill="#0D6DFD"/>
<path d="M86.0192 46.8645H90.3636V51.2038H86.0192V46.8645Z" fill="#0D6DFD"/>
<path d="M86.0192 109.351H90.3636V113.69H86.0192V109.351Z" fill="#0D6DFD"/>
<path d="M86.0192 7.81074H90.3636V12.15H86.0192V7.81074Z" fill="#0D6DFD"/>
<path d="M86.0192 70.2968H90.3636V74.6361H86.0192V70.2968Z" fill="#0D6DFD"/>
<path d="M86.0192 39.0538H90.3636V43.3931H86.0192V39.0538Z" fill="#0D6DFD"/>
<path d="M86.0192 101.54H90.3636V105.879H86.0192V101.54Z" fill="#0D6DFD"/>
<path d="M86.0192 23.4322H90.3636V27.7715H86.0192V23.4322Z" fill="#0D6DFD"/>
<path d="M86.0192 85.9184H90.3636V90.2577H86.0192V85.9184Z" fill="#0D6DFD"/>
<path d="M86.0192 54.6753H90.3636V59.0146H86.0192V54.6753Z" fill="#0D6DFD"/>
<path d="M86.0192 117.161H90.3636V121.501H86.0192V117.161Z" fill="#0D6DFD"/>
<path d="M54.7395 0H59.0839V4.33931H54.7395V0Z" fill="#0D6DFD"/>
<path d="M54.7395 62.4861H59.0839V66.8254H54.7395V62.4861Z" fill="#0D6DFD"/>
<path d="M54.7395 31.243H59.0839V35.5823H54.7395V31.243Z" fill="#0D6DFD"/>
<path d="M54.7395 93.7291H59.0839V98.0684H54.7395V93.7291Z" fill="#0D6DFD"/>
<path d="M54.7395 15.6216H59.0839V19.9609H54.7395V15.6216Z" fill="#0D6DFD"/>
<path d="M54.7395 78.1075H59.0839V82.4469H54.7395V78.1075Z" fill="#0D6DFD"/>
<path d="M54.7395 46.8645H59.0839V51.2038H54.7395V46.8645Z" fill="#0D6DFD"/>
<path d="M54.7395 109.351H59.0839V113.69H54.7395V109.351Z" fill="#0D6DFD"/>
<path d="M54.7395 7.81074H59.0839V12.15H54.7395V7.81074Z" fill="#0D6DFD"/>
<path d="M54.7395 70.2968H59.0839V74.6361H54.7395V70.2968Z" fill="#0D6DFD"/>
<path d="M54.7395 39.0538H59.0839V43.3931H54.7395V39.0538Z" fill="#0D6DFD"/>
<path d="M54.7395 101.54H59.0839V105.879H54.7395V101.54Z" fill="#0D6DFD"/>
<path d="M54.7395 23.4322H59.0839V27.7715H54.7395V23.4322Z" fill="#0D6DFD"/>
<path d="M54.7395 85.9184H59.0839V90.2577H54.7395V85.9184Z" fill="#0D6DFD"/>
<path d="M54.7395 54.6753H59.0839V59.0146H54.7395V54.6753Z" fill="#0D6DFD"/>
<path d="M54.7395 117.161H59.0839V121.501H54.7395V117.161Z" fill="#0D6DFD"/>
<path d="M117.299 0H121.643V4.33931H117.299V0Z" fill="#0D6DFD"/>
<path d="M117.299 62.4861H121.643V66.8254H117.299V62.4861Z" fill="#0D6DFD"/>
<path d="M117.299 31.243H121.643V35.5823H117.299V31.243Z" fill="#0D6DFD"/>
<path d="M117.299 93.7291H121.643V98.0684H117.299V93.7291Z" fill="#0D6DFD"/>
<path d="M117.299 15.6216H121.643V19.9609H117.299V15.6216Z" fill="#0D6DFD"/>
<path d="M117.299 78.1075H121.643V82.4469H117.299V78.1075Z" fill="#0D6DFD"/>
<path d="M117.299 46.8645H121.643V51.2038H117.299V46.8645Z" fill="#0D6DFD"/>
<path d="M117.299 109.351H121.643V113.69H117.299V109.351Z" fill="#0D6DFD"/>
<path d="M117.299 7.81074H121.643V12.15H117.299V7.81074Z" fill="#0D6DFD"/>
<path d="M117.299 70.2968H121.643V74.6361H117.299V70.2968Z" fill="#0D6DFD"/>
<path d="M117.299 39.0538H121.643V43.3931H117.299V39.0538Z" fill="#0D6DFD"/>
<path d="M117.299 101.54H121.643V105.879H117.299V101.54Z" fill="#0D6DFD"/>
<path d="M117.299 23.4322H121.643V27.7715H117.299V23.4322Z" fill="#0D6DFD"/>
<path d="M117.299 85.9184H121.643V90.2577H117.299V85.9184Z" fill="#0D6DFD"/>
<path d="M117.299 54.6753H121.643V59.0146H117.299V54.6753Z" fill="#0D6DFD"/>
<path d="M117.299 117.161H121.643V121.501H117.299V117.161Z" fill="#0D6DFD"/>
</g>
</svg>
